<svg width="32" height="33" viewBox="0 0 32 33" fill="none" xmlns="http://www.w3.org/2000/svg">
<path fill-rule="evenodd" clip-rule="evenodd" d="M28.8592 16.5342C28.8592 23.6361 23.1019 29.3934 16 29.3934C8.89801 29.3934 3.14073 23.6361 3.14073 16.5342C3.14073 9.43219 8.89801 3.67491 16 3.67491C23.1019 3.67491 28.8592 9.43219 28.8592 16.5342ZM29.6296 16.5342C29.6296 24.0616 23.5274 30.1638 16 30.1638C8.47255 30.1638 2.37036 24.0616 2.37036 16.5342C2.37036 9.00673 8.47255 2.90454 16 2.90454C23.5274 2.90454 29.6296 9.00673 29.6296 16.5342ZM18.6439 10.7618V11.5879V16.949V17.7193H19.282V16.949V11.5879V10.7618V10.5421L19.4142 10.6635L20.0524 11.2494L22.6325 13.6181L23.1111 13.2314L23.044 13.1698L22.5373 12.7046L19.6936 10.0938L19.4142 9.83736L18.963 9.42305L18.5117 9.83736L18.2323 10.0938L15.3886 12.7046L14.8819 13.1698L14.8148 13.2314L15.2934 13.6181L17.8735 11.2494L18.5117 10.6635L18.6439 10.5421V10.7618ZM13.9487 22.3065V21.4804V16.1193V15.349H13.3105V16.1193V21.4804V22.3065V22.5262L13.1783 22.4048L12.5402 21.8189L9.9601 19.4502L9.48147 19.8369L9.54855 19.8985L10.0553 20.3637L12.899 22.9745L13.1783 23.231L13.6296 23.6453L14.0809 23.231L14.3603 22.9745L17.204 20.3637L17.7107 19.8985L17.7778 19.8369L17.2991 19.4502L14.7191 21.8189L14.0809 22.4048L13.9487 22.5262V22.3065Z" fill="black"/>
</svg>
