<svg width="33" height="33" viewBox="0 0 33 33" fill="none" xmlns="http://www.w3.org/2000/svg">
<path d="M16.0823 29.7786C23.397 29.7786 29.3267 23.8489 29.3267 16.5342C29.3267 9.21952 23.397 3.28979 16.0823 3.28979C8.76761 3.28979 2.83789 9.21952 2.83789 16.5342C2.83789 23.8489 8.76761 29.7786 16.0823 29.7786Z" stroke="#050505" stroke-width="0.77037"/>
<path d="M18.2568 16.1855V16.1925M18.9811 10.6082V13.2595C19.8774 13.7587 20.5598 14.5489 20.9061 15.4883H21.8773C22.0694 15.4883 22.2536 15.5618 22.3894 15.6925C22.5252 15.8233 22.6015 16.0006 22.6015 16.1855V17.5798C22.6015 17.7647 22.5252 17.9421 22.3894 18.0728C22.2536 18.2035 22.0694 18.277 21.8773 18.277H20.9054C20.6617 18.9396 20.2488 19.5325 19.7046 20.0011V21.4143C19.7046 21.6916 19.5901 21.9576 19.3864 22.1537C19.1826 22.3498 18.9063 22.46 18.6182 22.46C18.3301 22.46 18.0538 22.3498 17.85 22.1537C17.6463 21.9576 17.5318 21.6916 17.5318 21.4143V21.0078C17.2925 21.0464 17.0503 21.0658 16.8076 21.0657H13.9106C13.668 21.0658 13.4257 21.0464 13.1864 21.0078V21.4143C13.1864 21.6916 13.0719 21.9576 12.8682 22.1537C12.6645 22.3498 12.3882 22.46 12.1 22.46C11.8119 22.46 11.5356 22.3498 11.3319 22.1537C11.1281 21.9576 11.0137 21.6916 11.0137 21.4143V20.0011C10.3575 19.4364 9.89486 18.6931 9.68718 17.8698C9.47947 17.0464 9.53641 16.1817 9.85046 15.3902C10.1646 14.5987 10.7209 13.9176 11.4459 13.4371C12.1709 12.9567 13.0304 12.6995 13.9106 12.6997H15.7212L18.9811 10.6082Z" stroke="#050505" stroke-width="0.77037" stroke-linecap="round" stroke-linejoin="round"/>
<path d="M14.7664 14.1638H15.0298V14.7243C15.8963 14.7637 16.0833 15.1942 16.0833 15.5582H15.8199C15.8199 15.1881 15.5096 15.0004 14.8981 15.0004C14.6821 15.0004 13.9763 15.0459 13.9763 15.6276C13.9763 15.8708 13.9763 16.1463 14.9299 16.3989L15.3529 16.5342C16.0201 16.7949 16.0833 17.112 16.0833 17.4408C16.0833 17.9653 15.6835 18.3033 15.0298 18.3429V18.9046H14.7664V18.344C13.8999 18.3047 13.7129 17.8741 13.7129 17.5102H13.9763C13.9763 17.8803 14.2865 18.068 14.8981 18.068C15.114 18.068 15.8199 18.0225 15.8199 17.4408C15.8199 17.1976 15.8199 16.9221 14.8662 16.6694L14.4432 16.5342C13.7761 16.2734 13.7129 15.9564 13.7129 15.6276C13.7129 15.103 14.1127 14.7651 14.7664 14.7255V14.1638Z" fill="#050505"/>
</svg>
