<svg width="17" height="15" viewBox="0 0 17 15" fill="none" xmlns="http://www.w3.org/2000/svg">
<path fill-rule="evenodd" clip-rule="evenodd" d="M8.5 15C13.1946 15 17 11.6423 17 7.5C17 3.35775 13.1946 0 8.5 0C3.80545 0 0 3.35775 0 7.5C0 11.6423 3.80545 15 8.5 15ZM15.1853 6.38175C15.1412 6.38703 15.0978 6.39531 15.0552 6.4065C14.2231 6.62775 13.3084 6.798 12.3114 6.9165C12.2094 4.75575 11.5507 2.97825 10.7534 1.76625C13.0195 2.47725 14.7373 4.23 15.1853 6.38175ZM15.2847 7.91025C15.1003 10.38 13.2634 12.4462 10.7534 13.2338C11.5073 12.0878 12.1371 10.4362 12.2901 8.43225C13.3018 8.32501 14.3028 8.15051 15.2847 7.91025ZM10.6182 7.06575C10.5119 3.8745 9.2684 1.5 8.5 1.5C7.7316 1.5 6.48805 3.8745 6.3818 7.065C7.0567 7.10475 7.7622 7.125 8.5 7.125C9.2378 7.125 9.9433 7.10625 10.6182 7.06575ZM4.7107 8.4315C3.69879 8.32451 2.69748 8.15027 1.7153 7.91025C1.89975 10.38 3.7366 12.4462 6.24665 13.2338C5.4927 12.0878 4.8637 10.4362 4.7107 8.4315ZM4.6886 6.9165C4.7906 4.75575 5.44935 2.97825 6.24665 1.76625C3.98055 2.47725 2.2627 4.23 1.81475 6.38175C1.8581 6.387 1.90145 6.39525 1.9448 6.4065C2.84286 6.6396 3.76028 6.81012 4.6886 6.9165ZM10.5808 8.571C9.88799 8.60782 9.19406 8.62582 8.5 8.625C7.78005 8.625 7.08645 8.607 6.41835 8.571C6.6538 11.4353 7.78345 13.5 8.5 13.5C9.21655 13.5 10.3462 11.436 10.5808 8.571Z" fill="black"/>
</svg>
