<svg width="20" height="20" viewBox="0 0 11 8" fill="none" xmlns="http://www.w3.org/2000/svg">
<mask id="path-1-inside-1_57_1981" fill="white">
<path d="M5.44367 1.26797L5.17922 1.49028C5.24842 1.55307 5.34389 1.58855 5.44367 1.58855C5.54345 1.58855 5.63892 1.55307 5.70812 1.49028L5.44367 1.26797ZM4.18409 6.74839C3.4424 6.23768 2.63138 5.73893 1.98799 5.10609C1.35718 4.48561 0.917138 3.76164 0.917138 2.82237H0.183105C0.183105 3.96173 0.726534 4.83094 1.43914 5.53183C2.13917 6.22036 3.03153 6.77117 3.72966 7.25192L4.18409 6.74839ZM0.917138 2.82237C0.917138 1.90298 1.51188 1.13199 2.32372 0.807843C3.11242 0.492938 4.17216 0.576333 5.17922 1.49028L5.70812 1.04565C4.51316 -0.0387903 3.12613 -0.217519 2.01856 0.224706C0.934123 0.657693 0.183105 1.6631 0.183105 2.82237H0.917138ZM3.72966 7.25192C3.98033 7.42453 4.24942 7.60859 4.52212 7.74776C4.79474 7.8869 5.10582 8 5.44367 8V7.35883C5.29216 7.35883 5.11389 7.30723 4.89246 7.19418C4.67112 7.0812 4.44151 6.92565 4.18409 6.74839L3.72966 7.25192ZM7.15768 7.25192C7.8558 6.77117 8.74818 6.22036 9.4482 5.53183C10.1608 4.83094 10.7042 3.96173 10.7042 2.82237H9.9702C9.9702 3.76164 9.53017 4.48561 8.89935 5.10609C8.25594 5.73893 7.44493 6.23768 6.70327 6.74839L7.15768 7.25192ZM10.7042 2.82237C10.7042 1.6631 9.95322 0.657693 8.86876 0.224706C7.7612 -0.217519 6.37418 -0.0387903 5.17922 1.04565L5.70812 1.49028C6.71516 0.576333 7.77491 0.492938 8.5636 0.807843C9.37544 1.13199 9.9702 1.90298 9.9702 2.82237H10.7042ZM6.70327 6.74839C6.44582 6.92565 6.21621 7.0812 5.99488 7.19418C5.77344 7.30723 5.59517 7.35883 5.44367 7.35883V8C5.78152 8 6.0926 7.8869 6.36522 7.74776C6.63794 7.60859 6.90699 7.42453 7.15768 7.25192L6.70327 6.74839Z"/>
</mask>
<path d="M4.32806 7.33515L4.55528 7.08338L3.81291 6.4134L3.58569 6.66516L4.32806 7.33515ZM6.55928 7.33514L6.78649 7.58691L7.52888 6.91694L7.30167 6.66517L6.55928 7.33514ZM0.917138 2.32237H0.183105V3.32237H0.917138V2.32237ZM4.10085 7.58691L4.55528 7.08338L3.81291 6.4134L3.35848 6.91693L4.10085 7.58691ZM5.94367 8V7.35883H4.94367V8H5.94367ZM10.7042 2.32237H9.9702V3.32237H10.7042V2.32237ZM6.33207 7.08337L6.78649 7.58691L7.52888 6.91694L7.07446 6.41341L6.33207 7.08337ZM4.18409 6.74839L4.75125 5.92478L4.75123 5.92476L4.18409 6.74839ZM5.44367 1.26797L6.08717 0.502517L5.44367 -0.0384595L4.80017 0.502517L5.44367 1.26797ZM5.17922 1.49028L4.50718 2.23079L4.50721 2.23082L5.17922 1.49028ZM5.70812 1.49028L6.38013 2.23082L6.38017 2.23079L5.70812 1.49028ZM7.15768 7.25192L7.72477 8.07558L7.72485 8.07553L7.15768 7.25192ZM1.98799 5.10609L1.28674 5.81901L1.28675 5.81902L1.98799 5.10609ZM1.43914 5.53183L2.14037 4.8189L2.14036 4.81888L1.43914 5.53183ZM3.72966 7.25192L3.16251 8.07554L3.16253 8.07555L3.72966 7.25192ZM2.32372 0.807843L1.95291 -0.120867L1.95291 -0.120865L2.32372 0.807843ZM5.70812 1.04565L6.35161 1.8111L7.22787 1.07445L6.38015 0.305129L5.70812 1.04565ZM2.01856 0.224706L1.64775 -0.704003L1.64775 -0.704003L2.01856 0.224706ZM4.52212 7.74776L4.06753 8.63846L4.06753 8.63847L4.52212 7.74776ZM4.89246 7.19418L5.3472 6.30355L5.34708 6.30349L4.89246 7.19418ZM9.4482 5.53183L8.74698 4.81889L8.74697 4.8189L9.4482 5.53183ZM8.89935 5.10609L9.60057 5.81903L9.60058 5.81902L8.89935 5.10609ZM6.70327 6.74839L7.27037 7.57203L7.27041 7.57201L6.70327 6.74839ZM8.86876 0.224706L8.49795 1.15341L8.49796 1.15342L8.86876 0.224706ZM5.17922 1.04565L4.50719 0.305129L3.65947 1.07445L4.53572 1.8111L5.17922 1.04565ZM8.5636 0.807843L8.19279 1.73655V1.73655L8.5636 0.807843ZM5.99488 7.19418L5.54025 6.30349L5.54014 6.30355L5.99488 7.19418ZM6.36522 7.74776L5.91066 6.85705L5.91064 6.85706L6.36522 7.74776ZM4.80017 0.502517L4.53572 0.724833L5.82272 2.25573L6.08717 2.03341L4.80017 0.502517ZM4.50721 2.23082C4.77359 2.47255 5.11384 2.58855 5.44367 2.58855V0.588551C5.57394 0.588551 5.72325 0.633596 5.85124 0.749743L4.50721 2.23082ZM5.44367 2.58855C5.7735 2.58855 6.11375 2.47255 6.38013 2.23082L5.0361 0.749743C5.16409 0.633596 5.3134 0.588551 5.44367 0.588551V2.58855ZM6.35161 0.724833L6.08717 0.502517L4.80017 2.03341L5.06462 2.25573L6.35161 0.724833ZM4.75123 5.92476C3.94665 5.37075 3.25101 4.94573 2.68922 4.39316L1.28675 5.81902C2.01175 6.53213 2.93815 7.1046 3.61696 7.57202L4.75123 5.92476ZM2.68923 4.39317C2.173 3.88539 1.91714 3.40247 1.91714 2.82237H-0.0828625C-0.0828625 4.12081 0.541353 5.08583 1.28674 5.81901L2.68923 4.39317ZM-0.816895 2.82237C-0.816895 4.32136 -0.08883 5.43162 0.737923 6.24478L2.14036 4.81888C1.5419 4.23027 1.18311 3.6021 1.18311 2.82237H-0.816895ZM0.737912 6.24477C1.51936 7.01338 2.52533 7.63676 3.16251 8.07554L4.29682 6.42831C3.53773 5.90559 2.75898 5.42734 2.14037 4.8189L0.737912 6.24477ZM1.91714 2.82237C1.91714 2.35559 2.2206 1.92578 2.69453 1.73655L1.95291 -0.120865C0.803167 0.338199 -0.0828625 1.45037 -0.0828625 2.82237H1.91714ZM2.69453 1.73655C3.10711 1.57182 3.76597 1.55812 4.50718 2.23079L5.85126 0.749769C4.57835 -0.40545 3.11772 -0.585943 1.95291 -0.120867L2.69453 1.73655ZM5.82272 2.25573L6.35161 1.8111L5.06462 0.280201L4.53572 0.724833L5.82272 2.25573ZM6.38015 0.305129C4.92086 -1.0192 3.13324 -1.29712 1.64775 -0.704003L2.38937 1.15341C3.11902 0.862085 4.10546 0.941617 5.03608 1.78617L6.38015 0.305129ZM1.64775 -0.704003C0.224764 -0.135841 -0.816895 1.21112 -0.816895 2.82237H1.18311C1.18311 2.11507 1.64348 1.45123 2.38937 1.15341L1.64775 -0.704003ZM3.16253 8.07555C3.4051 8.24258 3.72698 8.46466 4.06753 8.63846L4.9767 6.85706C4.77186 6.75252 4.55555 6.60647 4.2968 6.4283L3.16253 8.07555ZM4.06753 8.63847C4.41028 8.81339 4.88401 9 5.44367 9V7C5.32762 7 5.17919 6.9604 4.9767 6.85706L4.06753 8.63847ZM5.44367 6.35883C5.48183 6.35883 5.49608 6.36535 5.4785 6.36014C5.45991 6.35463 5.41779 6.33959 5.3472 6.30355L4.43772 8.0848C4.72939 8.23372 5.07034 8.35883 5.44367 8.35883V6.35883ZM5.34708 6.30349C5.19384 6.22527 5.01742 6.10807 4.75125 5.92478L3.61694 7.572C3.8656 7.74323 4.14841 7.93713 4.43783 8.08486L5.34708 6.30349ZM7.72485 8.07553C8.36197 7.63678 9.368 7.01338 10.1494 6.24476L8.74697 4.8189C8.12837 5.42735 7.34962 5.90557 6.59051 6.42832L7.72485 8.07553ZM10.1494 6.24477C10.9762 5.43162 11.7042 4.32136 11.7042 2.82237H9.70423C9.70423 3.6021 9.34544 4.23027 8.74698 4.81889L10.1494 6.24477ZM8.9702 2.82237C8.9702 3.40247 8.71435 3.88539 8.19811 4.39317L9.60058 5.81902C10.346 5.08583 10.9702 4.12081 10.9702 2.82237H8.9702ZM8.19812 4.39316C7.63631 4.94574 6.94068 5.37075 6.13612 5.92477L7.27041 7.57201C7.94919 7.1046 8.87557 6.53212 9.60057 5.81903L8.19812 4.39316ZM11.7042 2.82237C11.7042 1.21112 10.6626 -0.135845 9.23956 -0.704006L8.49796 1.15342C9.24386 1.45123 9.70423 2.11508 9.70423 2.82237H11.7042ZM9.23957 -0.704001C7.75409 -1.29713 5.96647 -1.0192 4.50719 0.305129L5.85125 1.78617C6.78188 0.941615 7.76832 0.862087 8.49795 1.15341L9.23957 -0.704001ZM4.53572 1.8111L5.06462 2.25573L6.35161 0.724833L5.82272 0.280201L4.53572 1.8111ZM6.38017 2.23079C7.12135 1.55812 7.78021 1.57182 8.19279 1.73655L8.93441 -0.120866C7.7696 -0.585943 6.30897 -0.405453 5.03607 0.749775L6.38017 2.23079ZM8.19279 1.73655C8.66673 1.92579 8.9702 2.35561 8.9702 2.82237H10.9702C10.9702 1.45036 10.0841 0.338194 8.93441 -0.120866L8.19279 1.73655ZM6.13616 5.92475C5.8699 6.10808 5.69351 6.22527 5.54025 6.30349L6.4495 8.08486C6.73892 7.93713 7.02174 7.74323 7.27037 7.57203L6.13616 5.92475ZM5.54014 6.30355C5.46955 6.33959 5.42742 6.35463 5.40884 6.36014C5.39126 6.36535 5.4055 6.35883 5.44367 6.35883V8.35883C5.817 8.35883 6.15794 8.23372 6.44962 8.0848L5.54014 6.30355ZM5.44367 9C6.00332 9 6.47706 8.81339 6.8198 8.63847L5.91064 6.85706C5.70815 6.9604 5.55971 7 5.44367 7V9ZM6.81978 8.63848C7.16038 8.46466 7.48227 8.24254 7.72477 8.07558L6.5906 6.42827C6.3317 6.60651 6.1155 6.75251 5.91066 6.85705L6.81978 8.63848Z" fill="black" mask="url(#path-1-inside-1_57_1981)"/>
</svg>
