<svg width="12" height="11" viewBox="0 0 12 11" fill="none" xmlns="http://www.w3.org/2000/svg">
<path d="M11.0914 5.65671L6.56332 1.1043L6.25981 0.799006C6.19066 0.729899 6.09714 0.69112 5.99966 0.69112C5.90218 0.69112 5.80866 0.729899 5.7395 0.799006L0.907863 5.65671C0.836999 5.72771 0.780997 5.81227 0.743153 5.9054C0.705315 5.99854 0.686406 6.09834 0.687549 6.19897C0.692235 6.61388 1.03559 6.94513 1.4481 6.94513H1.94614V10.7843H10.0532V6.94513H10.5618C10.7622 6.94513 10.9508 6.8661 11.0926 6.72347C11.1624 6.65346 11.2177 6.57024 11.2554 6.47857C11.293 6.38696 11.3122 6.28868 11.3118 6.18951C11.3118 5.98914 11.2333 5.79934 11.0914 5.65671ZM6.65591 9.93565H5.34341V7.53093H6.65591V9.93565ZM9.20945 6.09637V9.93565H7.40591V7.24804C7.40591 6.98757 7.19617 6.77652 6.93716 6.77652H5.06215C4.80317 6.77652 4.59341 6.98757 4.59341 7.24804V9.93565H2.78989V6.09637H1.66489L6.00083 1.73849L6.27153 2.01078L10.3356 6.09637H9.20945Z" fill="black"/>
</svg>
