<svg width="33" height="33" viewBox="0 0 33 33" fill="none" xmlns="http://www.w3.org/2000/svg">
<mask id="mask0_42_3303" style="mask-type:luminance" maskUnits="userSpaceOnUse" x="3" y="2" width="28" height="29">
<path fill-rule="evenodd" clip-rule="evenodd" d="M16.9167 29.3934C24.0187 29.3934 29.7759 23.6361 29.7759 16.5342C29.7759 9.43219 24.0187 3.67491 16.9167 3.67491C9.81476 3.67491 4.05748 9.43219 4.05748 16.5342C4.05748 23.6361 9.81476 29.3934 16.9167 29.3934ZM16.9167 30.1638C24.4441 30.1638 30.5463 24.0616 30.5463 16.5342C30.5463 9.00673 24.4441 2.90454 16.9167 2.90454C9.38929 2.90454 3.28711 9.00673 3.28711 16.5342C3.28711 24.0616 9.38929 30.1638 16.9167 30.1638ZM11.7111 19.7634V13.8975V13.8372L11.7612 13.8084L16.8643 10.8741L16.9167 10.844L16.9692 10.8741L22.0723 13.8084L22.1224 13.8372V13.8975V19.7634V19.8237L22.0723 19.8525L16.9692 22.7868L16.9167 22.8169L16.8643 22.7868L11.7612 19.8525L11.7111 19.8237V19.7634ZM16.9167 23.6453L16.5588 23.4395L11.3531 20.4462L10.9908 20.2379V19.8237V13.8372V13.423L11.3531 13.2147L16.5588 10.2215L16.9167 10.0156L17.2747 10.2215L22.4803 13.2147L22.8426 13.423V13.8372V19.8237V20.2379L22.4803 20.4462L17.2747 23.4395L16.9167 23.6453ZM17.1143 13.8895V12.9786H16.7192V13.8913C15.7386 13.9556 15.1389 14.5048 15.1389 15.3572C15.1389 15.8915 15.2338 16.4068 16.2344 16.8305L16.8689 17.0502C18.2994 17.4608 18.2994 17.9085 18.2994 18.3037C18.2994 19.249 17.2407 19.3228 16.9167 19.3228C15.9994 19.3228 15.534 19.0179 15.534 18.4165H15.1389C15.1389 19.0079 15.4194 19.7076 16.7192 19.7715V20.6823H17.1143V19.7696C18.0948 19.7053 18.6945 19.1561 18.6945 18.3037C18.6945 17.7694 18.5997 17.2542 17.599 16.8305L16.9645 16.6107C15.534 16.2001 15.534 15.7524 15.534 15.3572C15.534 14.4119 16.5928 14.3381 16.9167 14.3381C17.8341 14.3381 18.2994 14.6431 18.2994 15.2444H18.6945C18.6945 14.653 18.414 13.9533 17.1143 13.8895Z" fill="white"/>
</mask>
<g mask="url(#mask0_42_3303)">
<path d="M11.712 13.8372L11.328 13.1694L10.9416 13.3915V13.8372H11.712ZM16.9176 10.844L17.3016 10.1761L16.9176 9.95531L16.5336 10.1761L16.9176 10.844ZM22.1233 13.8372H22.8936V13.3915L22.5073 13.1694L22.1233 13.8372ZM22.1233 19.8237L22.5073 20.4915L22.8936 20.2694V19.8237H22.1233ZM16.9176 22.8169L16.5336 23.4848L16.9176 23.7056L17.3016 23.4848L16.9176 22.8169ZM11.712 19.8237H10.9416V20.2694L11.328 20.4915L11.712 19.8237ZM16.9176 23.6453L16.5336 24.3131L16.9176 24.5339L17.3016 24.3131L16.9176 23.6453ZM10.9917 20.2379H10.2213V20.6835L10.6077 20.9057L10.9917 20.2379ZM10.9917 13.423L10.6077 12.7552L10.2213 12.9774V13.423H10.9917ZM16.9176 10.0156L17.3016 9.34779L16.9176 9.12699L16.5336 9.34779L16.9176 10.0156ZM22.8435 13.423H23.6139V12.9774L23.2276 12.7552L22.8435 13.423ZM22.8435 20.2379L23.2276 20.9057L23.6139 20.6835V20.2379H22.8435ZM17.1152 12.9786H17.8855V12.2082H17.1152V12.9786ZM17.1152 13.8895H16.3448V14.6229L17.0773 14.6589L17.1152 13.8895ZM16.7201 12.9786V12.2082H15.9497V12.9786H16.7201ZM16.7201 13.8913L16.7705 14.66L17.4905 14.6127V13.8913H16.7201ZM16.2353 16.8305L15.935 17.5399L15.9588 17.5499L15.9832 17.5584L16.2353 16.8305ZM16.8698 17.0502L16.6177 17.7782L16.6373 17.785L16.6573 17.7907L16.8698 17.0502ZM15.5349 18.4165H16.3053V17.6461H15.5349V18.4165ZM15.1398 18.4165V17.6461H14.3695V18.4165H15.1398ZM16.7201 19.7715H17.4905V19.038L16.7579 19.002L16.7201 19.7715ZM16.7201 20.6823H15.9497V21.4527H16.7201V20.6823ZM17.1152 20.6823V21.4527H17.8855V20.6823H17.1152ZM17.1152 19.7696L17.0647 19.0009L16.3448 19.0482V19.7696H17.1152ZM17.5999 16.8305L17.9003 16.1211L17.8765 16.111L17.8521 16.1025L17.5999 16.8305ZM16.9654 16.6107L17.2176 15.8827L17.1979 15.8759L17.1779 15.8702L16.9654 16.6107ZM18.3003 15.2444H17.53V16.0148H18.3003V15.2444ZM18.6954 15.2444V16.0148H19.4658V15.2444H18.6954ZM29.0065 16.5342C29.0065 23.2107 23.5941 28.623 16.9176 28.623V30.1638C24.445 30.1638 30.5472 24.0616 30.5472 16.5342H29.0065ZM16.9176 4.44527C23.5941 4.44527 29.0065 9.85765 29.0065 16.5342H30.5472C30.5472 9.00672 24.445 2.90453 16.9176 2.90453V4.44527ZM4.82869 16.5342C4.82869 9.85765 10.2411 4.44527 16.9176 4.44527V2.90453C9.39013 2.90453 3.28795 9.00672 3.28795 16.5342H4.82869ZM16.9176 28.623C10.2411 28.623 4.82869 23.2107 4.82869 16.5342H3.28795C3.28795 24.0616 9.39013 30.1638 16.9176 30.1638V28.623ZM29.7768 16.5342C29.7768 23.6361 24.0196 29.3934 16.9176 29.3934V30.9341C24.8705 30.9341 31.3176 24.487 31.3176 16.5342H29.7768ZM16.9176 3.6749C24.0196 3.6749 29.7768 9.43218 29.7768 16.5342H31.3176C31.3176 8.58125 24.8705 2.13416 16.9176 2.13416V3.6749ZM4.05832 16.5342C4.05832 9.43218 9.8156 3.6749 16.9176 3.6749V2.13416C8.96467 2.13416 2.51758 8.58125 2.51758 16.5342H4.05832ZM16.9176 29.3934C9.8156 29.3934 4.05832 23.6361 4.05832 16.5342H2.51758C2.51758 24.487 8.96467 30.9341 16.9176 30.9341V29.3934ZM10.9416 13.8975V19.7634H12.4823V13.8975H10.9416ZM10.9416 13.8372V13.8975H12.4823V13.8372H10.9416ZM11.3781 13.1406L11.328 13.1694L12.096 14.505L12.1461 14.4762L11.3781 13.1406ZM16.4812 10.2063L11.3781 13.1406L12.1461 14.4762L17.2492 11.542L16.4812 10.2063ZM16.5336 10.1761L16.4812 10.2063L17.2492 11.542L17.3016 11.5118L16.5336 10.1761ZM17.3541 10.2063L17.3016 10.1761L16.5336 11.5118L16.5861 11.542L17.3541 10.2063ZM22.4572 13.1406L17.3541 10.2063L16.5861 11.542L21.6892 14.4762L22.4572 13.1406ZM22.5073 13.1694L22.4572 13.1406L21.6892 14.4762L21.7392 14.505L22.5073 13.1694ZM22.8936 13.8975V13.8372H21.3529V13.8975H22.8936ZM22.8936 19.7634V13.8975H21.3529V19.7634H22.8936ZM22.8936 19.8237V19.7634H21.3529V19.8237H22.8936ZM22.4572 20.5203L22.5073 20.4915L21.7393 19.1559L21.6892 19.1847L22.4572 20.5203ZM17.3541 23.4546L22.4572 20.5203L21.6892 19.1847L16.5861 22.1189L17.3541 23.4546ZM17.3016 23.4848L17.3541 23.4546L16.5861 22.1189L16.5336 22.1491L17.3016 23.4848ZM16.4811 23.4546L16.5336 23.4848L17.3016 22.1491L17.2492 22.119L16.4811 23.4546ZM11.3781 20.5203L16.4811 23.4546L17.2492 22.119L12.1461 19.1847L11.3781 20.5203ZM11.328 20.4915L11.3781 20.5203L12.1461 19.1847L12.096 19.1559L11.328 20.4915ZM10.9416 19.7634V19.8237H12.4823V19.7634H10.9416ZM16.1757 24.1073L16.5336 24.3131L17.3016 22.9774L16.9437 22.7716L16.1757 24.1073ZM10.97 21.114L16.1757 24.1073L16.9437 22.7716L11.738 19.7784L10.97 21.114ZM10.6077 20.9057L10.97 21.114L11.738 19.7784L11.3757 19.57L10.6077 20.9057ZM10.2213 19.8237V20.2379H11.7621V19.8237H10.2213ZM10.2213 13.8372V19.8237H11.7621V13.8372H10.2213ZM10.2213 13.423V13.8372H11.7621V13.423H10.2213ZM10.97 12.5469L10.6077 12.7552L11.3757 14.0909L11.738 13.8825L10.97 12.5469ZM16.1757 9.55361L10.97 12.5469L11.738 13.8825L16.9437 10.8893L16.1757 9.55361ZM16.5336 9.34779L16.1757 9.55361L16.9437 10.8893L17.3016 10.6835L16.5336 9.34779ZM17.6596 9.55361L17.3016 9.34779L16.5336 10.6835L16.8916 10.8893L17.6596 9.55361ZM22.8652 12.5469L17.6596 9.55361L16.8916 10.8893L22.0972 13.8825L22.8652 12.5469ZM23.2276 12.7552L22.8652 12.5469L22.0972 13.8825L22.4595 14.0909L23.2276 12.7552ZM23.6139 13.8372V13.423H22.0732V13.8372H23.6139ZM23.6139 19.8237V13.8372H22.0732V19.8237H23.6139ZM23.6139 20.2379V19.8237H22.0732V20.2379H23.6139ZM22.8652 21.114L23.2276 20.9057L22.4595 19.57L22.0972 19.7784L22.8652 21.114ZM17.6596 24.1073L22.8652 21.114L22.0972 19.7784L16.8916 22.7716L17.6596 24.1073ZM17.3016 24.3131L17.6596 24.1073L16.8916 22.7716L16.5336 22.9774L17.3016 24.3131ZM16.3448 12.9786V13.8895H17.8855V12.9786H16.3448ZM16.7201 13.749H17.1152V12.2082H16.7201V13.749ZM17.4905 13.8913V12.9786H15.9497V13.8913H17.4905ZM15.9102 15.3572C15.9102 15.1242 15.9857 14.9864 16.0852 14.8944C16.1963 14.7917 16.4077 14.6838 16.7705 14.66L16.6696 13.1225C16.0519 13.1631 15.4732 13.362 15.0393 13.763C14.5939 14.1748 14.3695 14.7379 14.3695 15.3572H15.9102ZM16.5357 16.1211C16.126 15.9476 16.0101 15.801 15.9733 15.7396C15.9348 15.6753 15.9102 15.5871 15.9102 15.3572H14.3695C14.3695 15.6617 14.3923 16.0982 14.6513 16.531C14.9122 16.9667 15.344 17.2896 15.935 17.5399L16.5357 16.1211ZM17.122 16.3223L16.4875 16.1025L15.9832 17.5584L16.6177 17.7782L17.122 16.3223ZM19.0707 18.3037C19.0707 18.1033 19.0851 17.6316 18.7111 17.1869C18.3803 16.7935 17.837 16.5263 17.0823 16.3098L16.6573 17.7907C17.3332 17.9847 17.5051 18.1467 17.5319 18.1785C17.5355 18.1828 17.5331 18.1808 17.5295 18.1732C17.526 18.1658 17.5248 18.1604 17.5248 18.1608C17.5273 18.1724 17.53 18.194 17.53 18.3037H19.0707ZM16.9176 20.0932C17.1139 20.0932 17.5904 20.0745 18.0452 19.8709C18.2817 19.765 18.5438 19.5952 18.7473 19.3223C18.9578 19.0401 19.0707 18.694 19.0707 18.3037H17.53C17.53 18.3492 17.5237 18.3739 17.5205 18.3842C17.5174 18.3939 17.5145 18.3982 17.5123 18.4011C17.5072 18.4079 17.4844 18.4338 17.4157 18.4646C17.2601 18.5342 17.0453 18.5525 16.9176 18.5525V20.0932ZM14.7645 18.4165C14.7645 18.9508 14.9908 19.432 15.46 19.7395C15.8742 20.011 16.3973 20.0932 16.9176 20.0932V18.5525C16.5206 18.5525 16.3524 18.4822 16.3046 18.4509C16.2907 18.4418 16.2994 18.4446 16.3076 18.4606C16.3145 18.474 16.3053 18.4665 16.3053 18.4165H14.7645ZM15.1398 19.1869H15.5349V17.6461H15.1398V19.1869ZM16.7579 19.002C16.2399 18.9766 16.067 18.8336 16.0136 18.7747C15.954 18.7089 15.9102 18.6002 15.9102 18.4165H14.3695C14.3695 18.8242 14.4659 19.361 14.8715 19.8089C15.2833 20.2636 15.9005 20.5025 16.6823 20.5409L16.7579 19.002ZM17.4905 20.6823V19.7715H15.9497V20.6823H17.4905ZM17.1152 19.9119H16.7201V21.4527H17.1152V19.9119ZM16.3448 19.7696V20.6823H17.8855V19.7696H16.3448ZM17.925 18.3037C17.925 18.5367 17.8496 18.6745 17.75 18.7665C17.6389 18.8692 17.4276 18.9771 17.0647 19.0009L17.1656 20.5384C17.7833 20.4978 18.362 20.299 18.7959 19.8979C19.2414 19.4861 19.4658 18.923 19.4658 18.3037H17.925ZM17.2995 17.5399C17.7093 17.7133 17.8252 17.8599 17.8619 17.9213C17.9004 17.9856 17.925 18.0738 17.925 18.3037H19.4658C19.4658 17.9992 19.4429 17.5627 19.1839 17.1299C18.9231 16.6942 18.4912 16.3713 17.9003 16.1211L17.2995 17.5399ZM16.7133 17.3386L17.3477 17.5584L17.8521 16.1025L17.2176 15.8827L16.7133 17.3386ZM14.7645 15.3572C14.7645 15.5576 14.7502 16.0293 15.1241 16.474C15.455 16.8674 15.9983 17.1346 16.7529 17.3511L17.1779 15.8702C16.502 15.6762 16.3301 15.5142 16.3033 15.4824C16.2998 15.4781 16.3021 15.4801 16.3057 15.4877C16.3093 15.4951 16.3105 15.5005 16.3104 15.5001C16.3079 15.4885 16.3053 15.4669 16.3053 15.3572H14.7645ZM16.9176 13.5677C16.7214 13.5677 16.2448 13.5864 15.79 13.79C15.5535 13.8959 15.2914 14.0657 15.0879 14.3386C14.8774 14.6208 14.7645 14.9669 14.7645 15.3572H16.3053C16.3053 15.3117 16.3115 15.287 16.3148 15.2767C16.3179 15.267 16.3207 15.2627 16.3229 15.2598C16.328 15.253 16.3508 15.2271 16.4196 15.1963C16.5751 15.1267 16.7899 15.1084 16.9176 15.1084V13.5677ZM19.0707 15.2444C19.0707 14.7101 18.8445 14.2289 18.3753 13.9214C17.9611 13.6499 17.4379 13.5677 16.9176 13.5677V15.1084C17.3146 15.1084 17.4829 15.1787 17.5307 15.21C17.5445 15.2191 17.5358 15.2163 17.5276 15.2003C17.5208 15.1869 17.53 15.1944 17.53 15.2444H19.0707ZM18.6954 14.474H18.3003V16.0148H18.6954V14.474ZM17.0773 14.6589C17.5953 14.6844 17.7683 14.8273 17.8217 14.8862C17.8812 14.952 17.925 15.0607 17.925 15.2444H19.4658C19.4658 14.8367 19.3693 14.2999 18.9637 13.852C18.5519 13.3973 17.9347 13.1584 17.153 13.12L17.0773 14.6589Z" fill="#050505"/>
</g>
</svg>
