<svg width="36" height="38" viewBox="0 0 36 38" fill="none" xmlns="http://www.w3.org/2000/svg">
<g clip-path="url(#clip0_57_1628)">
<path d="M18 36.9136C27.9411 36.9136 36 28.8547 36 18.9136C36 8.97245 27.9411 0.913574 18 0.913574C8.05887 0.913574 0 8.97245 0 18.9136C0 28.8547 8.05887 36.9136 18 36.9136Z" fill="white"/>
<path d="M22.8518 27.9154H13.1504C12.8134 27.8441 12.4673 27.8025 12.1418 27.6969C10.2496 27.0816 9.01039 25.3818 9.00492 23.3854C8.9967 20.4036 9.00054 17.4218 9.00383 14.4394C9.00492 13.4752 9.2739 12.5877 9.84748 11.8093C10.7799 10.5421 12.0454 9.91706 13.616 9.91542C16.5157 9.91267 19.4148 9.91267 22.3144 9.91761C22.6179 9.91761 22.9258 9.9313 23.2233 9.98554C24.8865 10.2879 26.0462 11.2329 26.6806 12.7942C26.8433 13.1942 26.8965 13.639 27 14.063V23.7667C26.9775 23.8921 26.9567 24.0181 26.9332 24.1436C26.622 25.7959 25.6858 26.9529 24.1376 27.59C23.7333 27.7565 23.2819 27.8097 22.8518 27.9154ZM25.4891 18.9157H25.4956C25.4956 17.4508 25.493 15.9864 25.4973 14.5216C25.4984 14.0527 25.4354 13.5962 25.2261 13.1745C24.658 12.03 23.7322 11.4252 22.452 11.4208C19.4822 11.4104 16.5124 11.417 13.5426 11.4192C13.3678 11.4192 13.192 11.4356 13.0183 11.4603C11.6553 11.652 10.5268 12.8852 10.5175 14.2657C10.4972 17.3297 10.5093 20.3937 10.5076 23.4578C10.5076 23.8741 10.5892 24.2757 10.7722 24.6476C11.348 25.814 12.2913 26.4094 13.5935 26.4111C16.5283 26.4155 19.4629 26.4133 22.3977 26.4111C22.596 26.4111 22.7954 26.3957 22.9921 26.3689C24.3288 26.1853 25.4655 24.9391 25.4836 23.5909C25.505 22.0329 25.4891 20.4743 25.4891 18.9157Z" fill="#1019FF"/>
<path d="M17.9808 23.4139C15.4898 23.3925 13.4727 21.353 13.5023 18.8856C13.5324 16.3957 15.5551 14.3945 18.0203 14.4147C20.5112 14.4355 22.5284 16.4757 22.4988 18.9425C22.4686 21.4308 20.4444 23.4353 17.9808 23.4139ZM18.0044 21.9107C19.6621 21.9074 20.9956 20.5723 20.996 18.9152C20.9966 17.2585 19.6638 15.9229 18.0054 15.9185C16.345 15.9141 14.9968 17.2634 15.005 18.9228C15.0133 20.5827 16.3494 21.914 18.0044 21.9107Z" fill="#1019FF"/>
<path d="M22.8669 15.159C22.2485 15.1546 21.7554 14.6588 21.7554 14.0403C21.7554 13.4174 22.2681 12.9063 22.8828 12.9157C23.4986 12.9254 23.9987 13.4284 23.9999 14.0386C24.0009 14.6572 23.4887 15.1628 22.8669 15.159Z" fill="#1019FF"/>
</g>
<defs>
<clipPath id="clip0_57_1628">
<rect width="36" height="37.125" fill="white" transform="translate(0 0.192383)"/>
</clipPath>
</defs>
</svg>
