<svg width="37" height="38" viewBox="0 0 37 38" fill="none" xmlns="http://www.w3.org/2000/svg">
<g clip-path="url(#clip0_6_905)">
<g clip-path="url(#clip1_6_905)">
<g clip-path="url(#clip2_6_905)">
<path d="M18.3398 36.9136C28.281 36.9136 36.3398 28.8547 36.3398 18.9136C36.3398 8.97245 28.281 0.913574 18.3398 0.913574C8.39872 0.913574 0.339844 8.97245 0.339844 18.9136C0.339844 28.8547 8.39872 36.9136 18.3398 36.9136Z" fill="white"/>
<path d="M20.565 27.9024H16.8506V15.9108H20.4024V17.5254C20.4517 17.4973 20.4752 17.492 20.484 17.478C21.2672 16.2159 22.4389 15.6568 23.8869 15.6134C24.7141 15.5888 25.5238 15.6891 26.2829 16.047C27.2657 16.5105 27.8166 17.3231 28.1205 18.3334C28.3628 19.1395 28.4467 19.9703 28.4526 20.8052C28.4685 23.1185 28.4619 25.4318 28.4643 27.7453C28.4643 27.7804 28.459 27.8156 28.4555 27.8655H24.7305C24.7305 27.7851 24.7305 27.7012 24.7305 27.6167C24.73 25.6548 24.7358 23.6929 24.7229 21.7309C24.72 21.2868 24.6847 20.8368 24.6044 20.4003C24.378 19.1723 23.5789 18.7552 22.4342 18.8902C21.3922 19.0134 20.8185 19.6229 20.6565 20.7506C20.5973 21.1619 20.5708 21.5807 20.5685 21.9967C20.5597 23.8707 20.5644 25.7446 20.5644 27.6191C20.5644 27.7059 20.565 27.7928 20.565 27.9024Z" fill="#1019FF"/>
<path d="M10.7744 15.9077H14.4847V27.894H10.7744V15.9077Z" fill="#1019FF"/>
<path d="M14.7824 12.0668C14.7888 13.2596 13.8214 14.2482 12.6409 14.2553C11.454 14.2622 10.4648 13.2719 10.4648 12.075C10.4648 10.8981 11.4311 9.92422 12.611 9.91366C13.8002 9.9031 14.776 10.87 14.7824 12.0668Z" fill="#1019FF"/>
</g>
</g>
</g>
<defs>
<clipPath id="clip0_6_905">
<rect width="36" height="37.13" fill="white" transform="translate(0.339844 0.189941)"/>
</clipPath>
<clipPath id="clip1_6_905">
<rect width="36" height="37.13" fill="white" transform="translate(0.339844 0.189941)"/>
</clipPath>
<clipPath id="clip2_6_905">
<rect width="36" height="37.125" fill="white" transform="translate(0.339844 0.192383)"/>
</clipPath>
</defs>
</svg>
