<svg width="19" height="18" viewBox="0 0 19 18" fill="none" xmlns="http://www.w3.org/2000/svg">
<path d="M7.61714 13.5372C9.23162 13.5372 10.7565 12.9649 11.97 11.9239L17.8691 17.838C17.9783 17.9478 18.1222 18.0027 18.2655 18.0027C18.4083 18.0027 18.5517 17.9483 18.6609 17.8391C18.8799 17.6207 18.8804 17.2663 18.662 17.0473L12.7579 11.1287C14.9683 8.48882 14.8395 4.53578 12.3631 2.05386C11.0953 0.782661 9.4097 0.0826607 7.61658 0.0826607C5.82346 0.0826607 4.13786 0.782661 2.87002 2.05386C0.254263 4.67634 0.254263 8.9441 2.87002 11.5666C4.13842 12.8372 5.82402 13.5372 7.61714 13.5372ZM3.66354 2.84458C4.7197 1.78562 6.12362 1.20266 7.61714 1.20266C9.11066 1.20266 10.5146 1.78562 11.5707 2.84458C13.7519 5.03138 13.7519 8.58906 11.5707 10.7759C10.5146 11.8348 9.11066 12.4178 7.61714 12.4178C6.12362 12.4178 4.7197 11.8348 3.66354 10.7759C1.4829 8.58906 1.4829 5.03138 3.66354 2.84458Z" fill="#231F20"/>
</svg>
