<svg width="28" height="29" viewBox="0 0 28 29" fill="none" xmlns="http://www.w3.org/2000/svg">
<path d="M2.3335 7.25C2.3335 6.58266 2.85584 6.04167 3.50016 6.04167H24.5002C25.1445 6.04167 25.6668 6.58266 25.6668 7.25C25.6668 7.91734 25.1445 8.45833 24.5002 8.45833H3.50016C2.85584 8.45833 2.3335 7.91734 2.3335 7.25Z" fill="#0E2171"/>
<path d="M2.3335 14.5C2.3335 13.8326 2.85584 13.2917 3.50016 13.2917H24.5002C25.1445 13.2917 25.6668 13.8326 25.6668 14.5C25.6668 15.1674 25.1445 15.7083 24.5002 15.7083H3.50016C2.85584 15.7083 2.3335 15.1674 2.3335 14.5Z" fill="#0E2171"/>
<path d="M3.50016 20.5417C2.85584 20.5417 2.3335 21.0826 2.3335 21.75C2.3335 22.4174 2.85584 22.9583 3.50016 22.9583H24.5002C25.1445 22.9583 25.6668 22.4174 25.6668 21.75C25.6668 21.0826 25.1445 20.5417 24.5002 20.5417H3.50016Z" fill="#0E2171"/>
</svg>
