<svg width="31" height="31" viewBox="0 0 31 31" fill="none" xmlns="http://www.w3.org/2000/svg">
<path d="M15.3 0C6.86 0 0 6.86 0 15.3C0 23.74 6.86 30.6 15.3 30.6C23.74 30.6 30.6 23.74 30.6 15.3C30.6 6.86 23.74 0 15.3 0ZM15.3 28C11.28 28 7.7 26.12 5.37 23.19C6.9916 21.0686 9.25321 19.5258 11.82 18.79C10.8948 18.2035 10.1328 17.3927 9.60482 16.4329C9.07684 15.4731 8.79999 14.3954 8.8 13.3C8.8 11.5761 9.48482 9.92279 10.7038 8.70381C11.9228 7.48482 13.5761 6.8 15.3 6.8C17.0239 6.8 18.6772 7.48482 19.8962 8.70381C21.1152 9.92279 21.8 11.5761 21.8 13.3C21.8008 14.397 21.5243 15.4763 20.9964 16.4379C20.4684 17.3994 19.706 18.2119 18.78 18.8C21.3471 19.5352 23.6089 21.0781 25.23 23.2C24.0436 24.6968 22.5343 25.906 20.8147 26.7372C19.0951 27.5684 17.2099 28.0001 15.3 28Z" fill="#6A6A6A"/>
</svg>
