<svg width="32" height="33" viewBox="0 0 32 33" fill="none" xmlns="http://www.w3.org/2000/svg">
<path fill-rule="evenodd" clip-rule="evenodd" d="M2.98191 16.5342C2.98191 9.48215 8.6987 3.76536 15.7507 3.76536C22.8027 3.76536 28.5195 9.48215 28.5195 16.5342C28.5195 23.5862 22.8027 29.303 15.7507 29.303C8.6987 29.303 2.98191 23.5862 2.98191 16.5342ZM15.7507 2.90454C8.22328 2.90454 2.12109 9.00673 2.12109 16.5342C2.12109 24.0616 8.22328 30.1638 15.7507 30.1638C23.2781 30.1638 29.3803 24.0616 29.3803 16.5342C29.3803 9.00673 23.2781 2.90454 15.7507 2.90454Z" fill="#050505"/>
<path fill-rule="evenodd" clip-rule="evenodd" d="M14.6781 11.2009C14.6781 10.281 15.4237 9.53538 16.3436 9.53538C17.2634 9.53538 18.0091 10.281 18.0091 11.2009C18.0091 11.2508 18.0069 11.3001 18.0026 11.3489C17.4408 11.5944 17.0305 12.1219 16.9504 12.7524C16.7624 12.826 16.5577 12.8664 16.3436 12.8664C15.4237 12.8664 14.6781 12.1207 14.6781 11.2009ZM16.939 12.8765C16.7529 12.9426 16.5524 12.9787 16.3436 12.9787C15.3617 12.9787 14.5658 12.1827 14.5658 11.2009C14.5658 10.219 15.3617 9.4231 16.3436 9.4231C17.3254 9.4231 18.1213 10.219 18.1213 11.2009C18.1213 11.2352 18.1204 11.2692 18.1184 11.3031C18.3046 11.2369 18.5051 11.2009 18.7139 11.2009C19.6958 11.2009 20.4917 11.9968 20.4917 12.9787C20.4917 13.9605 19.6958 14.7564 18.7139 14.7564C17.7321 14.7564 16.9361 13.9605 16.9361 12.9787C16.9361 12.9444 16.9371 12.9103 16.939 12.8765ZM18.1071 11.4272C18.2951 11.3536 18.4998 11.3132 18.7139 11.3132C19.6337 11.3132 20.3794 12.0588 20.3794 12.9787C20.3794 13.8985 19.6337 14.6442 18.7139 14.6442C17.7941 14.6442 17.0484 13.8985 17.0484 12.9787C17.0484 12.9288 17.0506 12.8794 17.0549 12.8306C17.6166 12.5851 18.027 12.0577 18.1071 11.4272ZM17.0718 12.6992C17.5464 12.468 17.8949 12.018 17.9857 11.4804C17.511 11.7115 17.1626 12.1616 17.0718 12.6992ZM16.4123 10.1961H16.2749V10.4433C15.9338 10.4608 15.7252 10.6095 15.7252 10.8405C15.7252 10.9852 15.7582 11.1248 16.1063 11.2396L16.3269 11.2991C16.8245 11.4103 16.8245 11.5316 16.8245 11.6387C16.8245 11.8947 16.4562 11.9147 16.3436 11.9147C16.0245 11.9147 15.8626 11.8321 15.8626 11.6692H15.7252C15.7252 11.8294 15.8228 12.019 16.2749 12.0363V12.283H16.4123V12.0358C16.7533 12.0184 16.9619 11.8696 16.9619 11.6387C16.9619 11.4939 16.9289 11.3543 16.5809 11.2396L16.3602 11.18C15.8626 11.0688 15.8626 10.9475 15.8626 10.8405C15.8626 10.5844 16.2309 10.5644 16.3436 10.5644C16.6626 10.5644 16.8245 10.647 16.8245 10.8099H16.9619C16.9619 10.6497 16.8644 10.4601 16.4123 10.4428V10.1961ZM14.0497 11.7935H9.82497H9.23242V12.3861V22.5562V23.1488H9.82497H16.7508H17.3434H17.5305H21.6174H22.21V22.5562V15.6304V15.0378H21.6174H17.5305H17.3434V14.1638H16.7508V22.5562H13.8806V21.1211H12.6954V22.5562H9.82497V12.3861H14.0497V11.7935ZM10.6676 13.0101V13.8212H11.8528V13.0101H10.6676ZM12.6954 13.8212V13.0101H13.8806V13.8212H12.6954ZM10.6676 15.4434V14.6323H11.8528V15.4434H10.6676ZM10.6676 16.2545V17.0656H11.8528V16.2545H10.6676ZM10.6676 18.6877V17.8766H11.8528V18.6877H10.6676ZM10.6676 19.4988V20.3099H11.8528V19.4988H10.6676ZM10.6676 21.9322V21.1211H11.8528V21.9322H10.6676ZM12.6954 14.6323V15.4434H13.8806V14.6323H12.6954ZM12.6954 17.0656V16.2545H13.8806V17.0656H12.6954ZM12.6954 17.8766V18.6877H13.8806V17.8766H12.6954ZM12.6954 20.3099V19.4988H13.8806V20.3099H12.6954ZM14.7232 15.4434V14.6323H15.9084V15.4434H14.7232ZM14.7232 16.2545V17.0656H15.9084V16.2545H14.7232ZM14.7232 18.6877V17.8766H15.9084V18.6877H14.7232ZM14.7232 19.4988V20.3099H15.9084V19.4988H14.7232ZM14.7232 21.9322V21.1211H15.9084V21.9322H14.7232ZM17.5305 15.6304H21.6174V22.5562H17.5305V15.6304ZM20.0673 17.0745V16.2544H21.2525V17.0745H20.0673ZM18.0172 16.2544V17.0745H19.2023V16.2544H18.0172ZM18.0172 17.8946V18.7147H19.2023V17.8946H18.0172ZM18.0172 20.3549V19.5348H19.2023V20.3549H18.0172ZM18.0172 21.1751V21.9952H19.2023V21.1751H18.0172ZM20.0673 17.8946V18.7147H21.2525V17.8946H20.0673ZM20.0673 20.3549V19.5348H21.2525V20.3549H20.0673ZM20.0673 21.1751V21.9952H21.2525V21.1751H20.0673ZM18.6453 11.9738H18.7827V12.2206C19.2348 12.2379 19.3323 12.4274 19.3323 12.5876H19.1949C19.1949 12.4247 19.033 12.3421 18.714 12.3421C18.6013 12.3421 18.233 12.3621 18.233 12.6182C18.233 12.7252 18.233 12.8465 18.7306 12.9577L18.9513 13.0173C19.2993 13.1321 19.3323 13.2716 19.3323 13.4164C19.3323 13.6473 19.1237 13.7961 18.7827 13.8135V14.0608H18.6453V13.814C18.1932 13.7967 18.0956 13.6072 18.0956 13.447H18.233C18.233 13.6099 18.3949 13.6925 18.714 13.6925C18.8266 13.6925 19.1949 13.6725 19.1949 13.4164C19.1949 13.3093 19.1949 13.188 18.6973 13.0768L18.4767 13.0173C18.1286 12.9025 18.0956 12.7629 18.0956 12.6182C18.0956 12.3873 18.3042 12.2385 18.6453 12.2211V11.9738Z" fill="#050505"/>
</svg>
