<svg width="10" height="9" viewBox="0 0 10 9" fill="none" xmlns="http://www.w3.org/2000/svg">
<path d="M9.31826 3.41433C9.28355 3.31433 9.19371 3.24148 9.08564 3.22545L6.21638 2.80268L4.9308 0.161736C4.88267 0.0630069 4.77971 0 4.66668 0C4.55366 0 4.45084 0.0630069 4.40257 0.161736L3.11699 2.80268L0.247726 3.22559C0.139659 3.24148 0.0499672 3.31447 0.0151114 3.41447C-0.0195986 3.51432 0.00650681 3.62458 0.0829271 3.70011L2.16757 5.76147L1.67492 8.67329C1.65683 8.77962 1.70336 8.88664 1.7948 8.94853C1.84497 8.9827 1.90374 9 1.96266 9C2.01108 9 2.05979 8.98819 2.10383 8.96484L4.66654 7.59796L7.22924 8.96484C7.27328 8.98819 7.322 9 7.37041 9C7.42933 9 7.48825 8.9827 7.53828 8.94853C7.62972 8.88664 7.67624 8.77962 7.65816 8.67329L7.16551 5.76147L9.25015 3.70011C9.32671 3.62444 9.35297 3.51418 9.31826 3.41433Z" fill="#04037A"/>
<path d="M9.31826 3.41433C9.28355 3.31433 9.19371 3.24148 9.08564 3.22545L6.21638 2.80268L4.9308 0.161736C4.88267 0.0630069 4.77971 0 4.66668 0C4.55366 0 4.45084 0.0630069 4.40257 0.161736L3.11699 2.80268L0.247726 3.22559C0.139659 3.24148 0.0499672 3.31447 0.0151114 3.41447C-0.0195986 3.51432 0.00650681 3.62458 0.0829271 3.70011L2.16757 5.76147L1.67492 8.67329C1.65683 8.77962 1.70336 8.88664 1.7948 8.94853C1.84497 8.9827 1.90374 9 1.96266 9C2.01108 9 2.05979 8.98819 2.10383 8.96484L4.66654 7.59796L7.22924 8.96484C7.27328 8.98819 7.322 9 7.37041 9C7.42933 9 7.48825 8.9827 7.53828 8.94853C7.62972 8.88664 7.67624 8.77962 7.65816 8.67329L7.16551 5.76147L9.25015 3.70011C9.32671 3.62444 9.35297 3.51418 9.31826 3.41433Z" fill="#0F2BA1"/>
</svg>
