<svg width="33" height="33" viewBox="0 0 33 33" fill="none" xmlns="http://www.w3.org/2000/svg">
<path fill-rule="evenodd" clip-rule="evenodd" d="M16.8327 29.3934C23.9347 29.3934 29.692 23.6361 29.692 16.5342C29.692 9.4322 23.9347 3.67491 16.8327 3.67491C9.73079 3.67491 3.9735 9.4322 3.9735 16.5342C3.9735 23.6361 9.73079 29.3934 16.8327 29.3934ZM16.8327 30.1638C24.3602 30.1638 30.4624 24.0616 30.4624 16.5342C30.4624 9.00673 24.3602 2.90454 16.8327 2.90454C9.30533 2.90454 3.20312 9.00673 3.20312 16.5342C3.20312 24.0616 9.30533 30.1638 16.8327 30.1638Z" fill="#050505"/>
<path d="M10.3145 22.4601H23.6478M16.0923 15.349V18.0156M17.8701 15.349V18.0156M16.9812 15.349C16.631 15.349 16.2842 15.28 15.9607 15.146C15.6371 15.012 15.3432 14.8155 15.0955 14.5679C14.8479 14.3203 14.6515 14.0263 14.5175 13.7028C14.3835 13.3792 14.3145 13.0325 14.3145 12.6823C14.3145 12.3321 14.3835 11.9853 14.5175 11.6618C14.6515 11.3383 14.8479 11.0443 15.0955 10.7967C15.3432 10.5491 15.6371 10.3526 15.9607 10.2186C16.2842 10.0846 16.631 10.0156 16.9812 10.0156C17.6884 10.0156 18.3667 10.2966 18.8668 10.7967C19.3669 11.2968 19.6478 11.975 19.6478 12.6823C19.6478 13.3895 19.3669 14.0678 18.8668 14.5679C18.3667 15.068 17.6884 15.349 16.9812 15.349ZM10.7589 20.6823V19.7934C10.7589 19.3219 10.9462 18.8697 11.2796 18.5363C11.613 18.2029 12.0652 18.0156 12.5367 18.0156H21.4256C21.8971 18.0156 22.3493 18.2029 22.6827 18.5363C23.0161 18.8697 23.2034 19.3219 23.2034 19.7934V20.6823H10.7589Z" stroke="#050505" stroke-width="0.592593"/>
</svg>
