<svg width="37" height="38" viewBox="0 0 37 38" fill="none" xmlns="http://www.w3.org/2000/svg">
<g clip-path="url(#clip0_6_900)">
<g clip-path="url(#clip1_6_900)">
<g clip-path="url(#clip2_6_900)">
<path d="M18.1699 36.9136C28.111 36.9136 36.1699 28.8547 36.1699 18.9136C36.1699 8.97245 28.111 0.913574 18.1699 0.913574C8.2288 0.913574 0.169922 8.97245 0.169922 18.9136C0.169922 28.8547 8.2288 36.9136 18.1699 36.9136Z" fill="white"/>
<path d="M12.3722 20.6003C11.7807 20.0729 11.3568 19.4516 11.1513 18.7024C11.0611 18.3745 11.0146 18.0303 10.988 17.6909C10.9571 17.2959 11.0777 17.1374 11.4518 16.9769C11.3753 16.789 11.2889 16.6034 11.2234 16.4107C10.8313 15.2562 10.9562 14.1492 11.5524 13.0929C11.7665 12.7133 12.2245 12.6833 12.5156 13.0279C13.3676 14.0372 14.3825 14.8375 15.5654 15.4237C16.4731 15.8737 17.4306 16.1667 18.4331 16.3124C18.4792 16.319 18.5261 16.3176 18.5798 16.3205C18.5997 16.0683 18.603 15.8202 18.642 15.5775C18.9035 13.9375 20.1372 12.633 21.7806 12.2727C23.1601 11.9703 24.3834 12.2979 25.4387 13.2364C25.6115 13.3897 25.8213 13.3849 26.0225 13.3983C26.5106 13.4295 26.9514 13.2657 27.3773 13.0422C27.4983 12.9786 27.6446 12.9254 27.777 12.9302C28.0888 12.9406 28.2982 13.1922 28.2949 13.5145C28.2877 14.19 28.04 14.79 27.6659 15.3321C27.4286 15.6758 27.1295 15.9763 26.8665 16.3025C26.8096 16.3731 26.7568 16.4709 26.7545 16.5578C26.6529 20.3306 25.0518 23.2804 21.8912 25.3515C20.5331 26.2416 19.0146 26.7177 17.3992 26.8809C14.9687 27.1264 12.7064 26.6289 10.6215 25.3472C10.293 25.1455 10.2024 24.8108 10.3951 24.5161C10.5252 24.3167 10.7146 24.2464 10.9462 24.2721C11.8462 24.3722 12.7311 24.2915 13.5965 24.0266C13.9045 23.9322 14.2041 23.8082 14.552 23.6816C14.4092 23.6093 14.3166 23.5643 14.2249 23.5158C13.296 23.0255 12.6471 22.2878 12.2696 21.308C12.1723 21.055 12.1742 20.8229 12.3722 20.6003ZM13.2485 25.3211C13.2846 25.3354 13.3197 25.3525 13.3563 25.3639C14.6564 25.7716 15.9837 25.8984 17.337 25.7427C19.7309 25.4678 21.755 24.4614 23.3352 22.6349C24.9198 20.8035 25.6746 18.6607 25.5991 16.2336C25.591 15.9819 25.6731 15.7892 25.8782 15.6378C26.2935 15.3311 26.604 14.9343 26.8675 14.4672C26.8019 14.4711 26.7621 14.4743 26.7217 14.4758C26.3676 14.4863 26.0125 14.518 25.6598 14.5004C25.329 14.4839 25.0062 14.4117 24.7536 14.1544C23.3096 12.6838 21.0192 13.2567 20.1159 14.7478C19.7242 15.3944 19.6502 16.0878 19.8078 16.8179C19.8942 17.219 19.6241 17.5361 19.2126 17.5257C19.0943 17.5229 18.9767 17.5091 18.8584 17.4987C16.3426 17.2718 14.178 16.2762 12.3575 14.5275C12.3214 14.4929 12.2825 14.4606 12.2341 14.4183C12.2174 14.4762 12.2018 14.5152 12.1952 14.5556C12.179 14.6548 12.1605 14.7545 12.1539 14.8541C12.0812 15.9502 12.5055 16.8103 13.3899 17.4507C13.661 17.6467 13.7502 17.8713 13.6628 18.1347C13.5755 18.3991 13.3648 18.5387 13.0382 18.5206C12.7814 18.5064 12.526 18.4665 12.2056 18.431C12.3902 18.749 12.5307 19.0504 12.7249 19.313C13.1373 19.8702 13.697 20.2205 14.3745 20.3768C14.5914 20.4266 14.7784 20.5115 14.8682 20.7351C15.0001 21.0646 14.8373 21.4111 14.4875 21.5037C14.2501 21.5663 14.0047 21.5981 13.7141 21.6527C13.8927 21.8322 14.0412 22.0059 14.214 22.1507C14.7044 22.5617 15.2721 22.7901 15.9134 22.8323C16.0193 22.8394 16.1289 22.8447 16.2282 22.8779C16.4365 22.9472 16.5586 23.1048 16.5932 23.3193C16.6311 23.5581 16.5377 23.7432 16.3449 23.8886C15.4187 24.5873 14.3849 25.0478 13.247 25.3207L13.2485 25.3211Z" fill="#1019FF"/>
</g>
</g>
</g>
<defs>
<clipPath id="clip0_6_900">
<rect width="36" height="37.13" fill="white" transform="translate(0.169922 0.189941)"/>
</clipPath>
<clipPath id="clip1_6_900">
<rect width="36" height="37.13" fill="white" transform="translate(0.169922 0.189941)"/>
</clipPath>
<clipPath id="clip2_6_900">
<rect width="36" height="37.125" fill="white" transform="translate(0.169922 0.192383)"/>
</clipPath>
</defs>
</svg>
