<svg width="14" height="14" viewBox="0 0 14 14" fill="none" xmlns="http://www.w3.org/2000/svg">
<path d="M7 0C3.13438 0 0 3.13437 0 7C0 10.8657 3.13438 13.9999 7 13.9999C10.8656 13.9999 14 10.8657 14 7C14 3.13437 10.8656 0 7 0ZM7.5 10.3749C7.5 10.4437 7.44375 10.4999 7.375 10.4999H6.625C6.55625 10.4999 6.5 10.4437 6.5 10.3749V6.125C6.5 6.05625 6.55625 6 6.625 6H7.375C7.44375 6 7.5 6.05625 7.5 6.125V10.3749ZM7 5C6.80374 4.99599 6.61687 4.91521 6.47949 4.77499C6.3421 4.63478 6.26516 4.4463 6.26516 4.25C6.26516 4.05369 6.3421 3.86521 6.47949 3.725C6.61687 3.58478 6.80374 3.504 7 3.5C7.19626 3.504 7.38314 3.58478 7.52052 3.725C7.6579 3.86521 7.73485 4.05369 7.73485 4.25C7.73485 4.4463 7.6579 4.63478 7.52052 4.77499C7.38314 4.91521 7.19626 4.99599 7 5Z" fill="#050505"/>
</svg>
