<svg width="33" height="33" viewBox="0 0 33 33" fill="none" xmlns="http://www.w3.org/2000/svg">
<path d="M16.9163 29.7786C24.231 29.7786 30.1607 23.8489 30.1607 16.5342C30.1607 9.21952 24.231 3.28979 16.9163 3.28979C9.60159 3.28979 3.67188 9.21952 3.67188 16.5342C3.67188 23.8489 9.60159 29.7786 16.9163 29.7786Z" stroke="#050505" stroke-width="0.77037"/>
<mask id="mask0_42_3317" style="mask-type:luminance" maskUnits="userSpaceOnUse" x="10" y="8" width="13" height="18">
<path fill-rule="evenodd" clip-rule="evenodd" d="M17.6271 9.89477L17.0426 9.46096H17.0447L16.0947 8.75487C15.8524 8.57534 15.5598 8.4784 15.2604 8.4784H11.3779C11.2983 8.4784 11.2308 8.54345 11.2308 8.62879V9.41077C11.2308 9.4961 11.2983 9.56115 11.3779 9.56115H11.9088L12.5184 10.0541C12.7509 10.241 13.0395 10.3431 13.3367 10.3431H15.2544C15.334 10.3431 15.4014 10.2781 15.4014 10.1928C15.4014 10.1074 15.334 10.0424 15.2544 10.0424H14.2853C14.0438 10.0424 13.8508 9.84472 13.8508 9.60627C13.8508 9.36781 14.0438 9.17016 14.2853 9.17016H15.8258L17.3397 10.2952C17.4475 10.3752 17.5989 10.3527 17.6791 10.2428C17.7602 10.1315 17.7361 9.97573 17.6271 9.89477ZM15.2604 8.23779C15.6117 8.23779 15.9546 8.35143 16.238 8.56158L17.7717 9.70157C17.8554 9.7641 17.9134 9.84949 17.9436 9.94218C17.9908 10.0871 17.9701 10.2522 17.8734 10.3846C17.7147 10.6021 17.4119 10.6485 17.1963 10.4884L15.7462 9.41077H14.2853C14.1786 9.41077 14.0914 9.49874 14.0914 9.60627C14.0914 9.71379 14.1786 9.80176 14.2853 9.80176H15.2544C15.4688 9.80176 15.642 9.97649 15.642 10.1928C15.642 10.409 15.4688 10.5837 15.2544 10.5837H13.3367C12.9842 10.5837 12.6426 10.4628 12.3676 10.2416L11.8237 9.80176H11.3779C11.1635 9.80176 10.9902 9.62704 10.9902 9.41077V8.62879C10.9902 8.41252 11.1635 8.23779 11.3779 8.23779H15.2604ZM13.0631 14.6305L17.3063 12.1807L21.5494 14.6305V19.5301L17.3063 21.9799L13.0631 19.5301V14.6305ZM17.3063 11.4861L22.151 14.2832V19.8774L17.3063 22.6745L12.4615 19.8774V14.2832L17.3063 11.4861ZM17.5402 14.2531H17.1926V14.9087C16.33 14.9549 15.8024 15.3495 15.8024 15.9618C15.8024 16.3456 15.8859 16.7157 16.7662 17.0201L17.3244 17.178C18.5828 17.4729 18.5828 17.7946 18.5828 18.0784C18.5828 18.7575 17.6514 18.8105 17.3664 18.8105C16.5594 18.8105 16.15 18.5915 16.15 18.1595H15.8024C15.8024 18.5843 16.0492 19.0869 17.1926 19.1328V19.7871H17.5402V19.1315C18.4028 19.0853 18.9304 18.6907 18.9304 18.0784C18.9304 17.6946 18.847 17.3245 17.9666 17.0201L17.4085 16.8622C16.15 16.5673 16.15 16.2457 16.15 15.9618C16.15 15.2827 17.0814 15.2297 17.3664 15.2297C18.1734 15.2297 18.5828 15.4488 18.5828 15.8808H18.9304C18.9304 15.4559 18.6836 14.9533 17.5402 14.9074V14.2531ZM16.9795 24.6829L16.2895 24.1707C16.1997 24.104 16.1795 23.9753 16.2467 23.8832C16.3127 23.7928 16.4365 23.7745 16.5249 23.84L17.9749 24.9176L18.0504 24.9737H18.1444H19.6053C19.8711 24.9737 20.0833 24.7562 20.0833 24.4941C20.0833 24.232 19.8711 24.0145 19.6053 24.0145H18.6362C18.581 24.0145 18.5327 23.9693 18.5327 23.9076C18.5327 23.846 18.581 23.8007 18.6362 23.8007H20.5539C20.8411 23.8007 21.1199 23.8992 21.3447 24.0799L21.8883 24.5195L21.9664 24.5827H22.0669H22.5127C22.5679 24.5827 22.6163 24.6279 22.6163 24.6896V25.4716C22.6163 25.5332 22.5679 25.5785 22.5127 25.5785H18.6302C18.3401 25.5785 18.0566 25.4846 17.8218 25.3106L16.9774 24.6829H16.9795ZM16.1197 24.3994L16.5011 24.6829L17.6525 25.5388C17.936 25.7489 18.2788 25.8626 18.6302 25.8626H22.5127C22.7271 25.8626 22.9004 25.6878 22.9004 25.4716V24.6896C22.9004 24.4733 22.7271 24.2986 22.5127 24.2986H22.0669L21.523 23.8587C21.248 23.6376 20.9064 23.5166 20.5539 23.5166H18.6362C18.4218 23.5166 18.2486 23.6913 18.2486 23.9076C18.2486 24.1239 18.4218 24.2986 18.6362 24.2986H19.6053C19.7119 24.2986 19.7992 24.3866 19.7992 24.4941C19.7992 24.6016 19.7119 24.6896 19.6053 24.6896H18.1444L16.6943 23.6119C16.4787 23.4519 16.1758 23.4983 16.0171 23.7158C15.9301 23.8351 15.9046 23.9809 15.935 24.1147C15.9599 24.2242 16.0223 24.3257 16.1189 24.3979L16.1197 24.3994Z" fill="white"/>
</mask>
<g mask="url(#mask0_42_3317)">
<path d="M17.0435 9.46095V8.69058H14.7132L16.5844 10.0795L17.0435 9.46095ZM17.0456 9.46095V10.2313H19.3733L17.5051 8.84268L17.0456 9.46095ZM11.9097 9.56114L12.3941 8.96213L12.1822 8.79077H11.9097V9.56114ZM12.5193 10.0541L12.0349 10.6531L12.0367 10.6546L12.5193 10.0541ZM15.8267 9.17015L16.2863 8.55184L16.0817 8.39978H15.8267V9.17015ZM17.3406 10.2952L16.8811 10.9136L16.8826 10.9147L17.3406 10.2952ZM17.3406 10.2952L17.7995 9.6765L17.7987 9.67589L17.3406 10.2952ZM17.7726 9.70156V10.4719H20.1003L18.2322 9.08329L17.7726 9.70156ZM17.7714 9.70156V8.93119H15.4454L17.3115 10.3196L17.7714 9.70156ZM17.7726 9.70156L18.233 9.08478L18.2322 9.08329L17.7726 9.70156ZM15.7471 9.41076L16.2066 8.79245L16.002 8.64039H15.7471V9.41076ZM12.3685 10.2416L11.8841 10.8406L11.8857 10.8419L12.3685 10.2416ZM11.8246 9.80175L12.309 9.20274L12.0971 9.03138H11.8246V9.80175ZM17.3072 12.1807L17.6923 11.5136L17.3072 11.2912L16.922 11.5136L17.3072 12.1807ZM13.064 14.6305L12.6788 13.9634L12.2936 14.1857V14.6305H13.064ZM21.5503 14.6305H22.3207V14.1857L21.9355 13.9634L21.5503 14.6305ZM21.5503 19.5301L21.9355 20.1973L22.3207 19.9749V19.5301H21.5503ZM17.3072 21.9799L16.922 22.6471L17.3072 22.8695L17.6923 22.6471L17.3072 21.9799ZM13.064 19.5301H12.2936V19.9749L12.6788 20.1973L13.064 19.5301ZM22.1519 14.2832H22.9222V13.8385L22.5371 13.6161L22.1519 14.2832ZM17.3072 11.4861L17.6923 10.819L17.3072 10.5966L16.922 10.819L17.3072 11.4861ZM22.1519 19.8774L22.5371 20.5446L22.9222 20.3222V19.8774H22.1519ZM17.3072 22.6745L16.922 23.3417L17.3072 23.5641L17.6923 23.3417L17.3072 22.6745ZM12.4624 19.8774H11.6921V20.3222L12.0773 20.5446L12.4624 19.8774ZM12.4624 14.2832L12.0773 13.6161L11.6921 13.8385V14.2832H12.4624ZM17.1935 14.2531V13.4827H16.4232V14.2531H17.1935ZM17.5411 14.2531H18.3115V13.4827H17.5411V14.2531ZM17.1935 14.9087L17.2348 15.678L17.9639 15.6389V14.9087H17.1935ZM16.7671 17.0201L16.5154 17.7482L16.5362 17.7554L16.5574 17.7614L16.7671 17.0201ZM17.3253 17.178L17.1156 17.9193L17.1324 17.924L17.1495 17.928L17.3253 17.178ZM16.1509 18.1595H16.9213V17.3891H16.1509V18.1595ZM15.8033 18.1595V17.3891H15.033V18.1595H15.8033ZM17.1935 19.1328H17.9639V18.3927L17.2244 18.3631L17.1935 19.1328ZM17.1935 19.7871H16.4232V20.5575H17.1935V19.7871ZM17.5411 19.7871V20.5575H18.3115V19.7871H17.5411ZM17.5411 19.1315L17.4999 18.3622L16.7707 18.4013V19.1315H17.5411ZM17.9675 17.0201L18.2193 16.292L18.1984 16.2848L18.1772 16.2788L17.9675 17.0201ZM17.4094 16.8622L17.619 16.1209L17.6022 16.1162L17.5851 16.1122L17.4094 16.8622ZM18.5837 15.8808H17.8134V16.6511H18.5837V15.8808ZM18.9313 15.8808V16.6511H19.7017V15.8808H18.9313ZM17.5411 14.9074H16.7707V15.6475L17.5102 15.6772L17.5411 14.9074ZM16.9804 24.6829V25.4533H19.3107L17.4396 24.0643L16.9804 24.6829ZM16.5258 23.84L16.988 23.2236L16.9844 23.221L16.5258 23.84ZM16.5258 23.84L16.0635 24.4563L16.0699 24.461L16.5258 23.84ZM16.5258 23.84L16.9854 23.2217L16.9817 23.219L16.5258 23.84ZM18.0513 24.9737L17.5917 25.592L17.7963 25.7441H18.0513V24.9737ZM21.3456 24.0799L21.8303 23.4811L21.8281 23.4794L21.3456 24.0799ZM21.9673 24.5827L21.4829 25.1817L21.6948 25.3531H21.9673V24.5827ZM17.8227 25.3106L17.3631 25.9288L17.3639 25.9294L17.8227 25.3106ZM16.9783 24.6829V23.9125H14.6505L16.5187 25.3012L16.9783 24.6829ZM22.0678 24.2986L21.5834 24.8976L21.7953 25.069H22.0678V24.2986ZM21.5239 23.8587L22.0083 23.2597L22.0067 23.2584L21.5239 23.8587ZM18.1453 24.6896L17.6858 25.3079L17.8904 25.46H18.1453V24.6896ZM16.1198 24.3979L15.6588 25.0151L15.6605 25.0164L16.1198 24.3979ZM16.121 24.3997V25.1692H18.4477L16.5805 23.7814L16.121 24.3997ZM16.1198 24.3979V23.6284H13.7908L15.6605 25.0164L16.1198 24.3979ZM16.5844 10.0795L17.1688 10.5133L18.0871 9.27619L17.5027 8.84238L16.5844 10.0795ZM17.0456 8.69058H17.0435V10.2313H17.0456V8.69058ZM15.6361 9.37313L16.586 10.0792L17.5051 8.84268L16.5552 8.13659L15.6361 9.37313ZM15.6361 9.37313L16.5552 8.13659L16.5544 8.13595L15.6361 9.37313ZM15.2613 9.24876C15.3945 9.24876 15.5258 9.29138 15.6361 9.37313L16.5544 8.13595C16.1802 7.85864 15.7268 7.70802 15.2613 7.70802V9.24876ZM11.3788 9.24876H15.2613V7.70802H11.3788V9.24876ZM12.0021 8.62878C12.0021 8.96572 11.7278 9.24876 11.3788 9.24876V7.70802C10.8705 7.70802 10.4614 8.12116 10.4614 8.62878H12.0021ZM12.0021 9.41076V8.62878H10.4614V9.41076H12.0021ZM11.3788 8.79077C11.7278 8.79077 12.0021 9.07381 12.0021 9.41076H10.4614C10.4614 9.91838 10.8705 10.3315 11.3788 10.3315V8.79077ZM11.9097 8.79077H11.3788V10.3315H11.9097V8.79077ZM13.0037 9.45511L12.3941 8.96213L11.4253 10.1602L12.0349 10.6531L13.0037 9.45511ZM13.3376 9.57276C13.2169 9.57276 13.0986 9.53141 13.0022 9.45388L12.0367 10.6546C12.4051 10.9509 12.8638 11.1135 13.3376 11.1135V9.57276ZM15.2553 9.57276H13.3376V11.1135H15.2553V9.57276ZM14.6319 10.1928C14.6319 9.8558 14.9062 9.57276 15.2553 9.57276V11.1135C15.7635 11.1135 16.1727 10.7004 16.1727 10.1928H14.6319ZM15.2553 10.8127C14.9062 10.8127 14.6319 10.5297 14.6319 10.1928H16.1727C16.1727 9.68513 15.7635 9.27199 15.2553 9.27199V10.8127ZM14.2862 10.8127H15.2553V9.27199H14.2862V10.8127ZM13.0813 9.60626C13.0813 10.2629 13.612 10.8127 14.2862 10.8127V9.27199C14.4774 9.27199 14.6221 9.42654 14.6221 9.60626H13.0813ZM14.2862 8.39978C13.612 8.39978 13.0813 8.94963 13.0813 9.60626H14.6221C14.6221 9.78597 14.4774 9.94052 14.2862 9.94052V8.39978ZM15.8267 8.39978H14.2862V9.94052H15.8267V8.39978ZM17.7995 9.6765L16.2863 8.55184L15.3672 9.78846L16.8811 10.9136L17.7995 9.6765ZM17.0577 9.78867C17.2289 9.55403 17.5628 9.50095 17.7995 9.6765L16.8811 10.9136C17.3336 11.2491 17.9706 11.1514 18.3023 10.6968L17.0577 9.78867ZM17.1688 10.5133C16.9371 10.3414 16.8903 10.018 17.0577 9.78867L18.3023 10.6968C18.632 10.245 18.5369 9.61009 18.0871 9.27619L17.1688 10.5133ZM16.6985 7.9433C16.2831 7.63533 15.7789 7.46741 15.2613 7.46741V9.00815C15.4464 9.00815 15.6286 9.06808 15.7801 9.18042L16.6985 7.9433ZM18.2322 9.08329L16.6985 7.9433L15.7801 9.18042L17.313 10.3198L18.2322 9.08329ZM17.7714 10.4719H17.7726V8.93119H17.7714V10.4719ZM18.2322 9.08329L18.2312 9.0835L17.3115 10.3196L17.313 10.3198L18.2322 9.08329ZM18.6769 9.70354C18.5993 9.46518 18.4487 9.24586 18.233 9.08478L17.3115 10.3196C17.2633 10.2836 17.2292 10.2338 17.212 10.1808L18.6769 9.70354ZM18.4967 10.8387C18.7453 10.4979 18.7975 10.0735 18.6769 9.70354L17.212 10.1808C17.1859 10.1008 17.1966 10.0065 17.252 9.93049L18.4967 10.8387ZM16.7376 11.1068C17.2983 11.523 18.0868 11.4004 18.4967 10.8387L17.252 9.93049C17.3445 9.80374 17.5269 9.7738 17.6563 9.86986L16.7376 11.1068ZM15.2876 10.0291L16.7376 11.1068L17.6563 9.86986L16.2066 8.79245L15.2876 10.0291ZM14.2862 10.1811H15.7471V8.64039H14.2862V10.1811ZM14.8627 9.60626C14.8627 9.91795 14.6112 10.1811 14.2862 10.1811V8.64039C13.7479 8.64039 13.322 9.07952 13.322 9.60626H14.8627ZM14.2862 9.03138C14.6112 9.03138 14.8627 9.29456 14.8627 9.60626H13.322C13.322 10.133 13.7479 10.5721 14.2862 10.5721V9.03138ZM15.2553 9.03138H14.2862V10.5721H15.2553V9.03138ZM16.4133 10.1928C16.4133 9.55726 15.9014 9.03138 15.2553 9.03138V10.5721C15.038 10.5721 14.8726 10.3957 14.8726 10.1928H16.4133ZM15.2553 11.3541C15.9014 11.3541 16.4133 10.8282 16.4133 10.1928H14.8726C14.8726 9.9898 15.038 9.81337 15.2553 9.81337V11.3541ZM13.3376 11.3541H15.2553V9.81337H13.3376V11.3541ZM11.8857 10.8419C12.2967 11.1725 12.8085 11.3541 13.3376 11.3541V9.81337C13.1617 9.81337 12.9902 9.75305 12.8513 9.6413L11.8857 10.8419ZM11.3402 10.4008L11.8841 10.8406L12.8529 9.64261L12.309 9.20274L11.3402 10.4008ZM11.3788 10.5721H11.8246V9.03138H11.3788V10.5721ZM10.2207 9.41076C10.2207 10.0463 10.7327 10.5721 11.3788 10.5721V9.03138C11.596 9.03138 11.7615 9.20781 11.7615 9.41076H10.2207ZM10.2207 8.62878V9.41076H11.7615V8.62878H10.2207ZM11.3788 7.46741C10.7327 7.46741 10.2207 7.99329 10.2207 8.62878H11.7615C11.7615 8.83172 11.596 9.00815 11.3788 9.00815V7.46741ZM15.2613 7.46741H11.3788V9.00815H15.2613V7.46741ZM16.922 11.5136L12.6788 13.9634L13.4492 15.2977L17.6923 12.8479L16.922 11.5136ZM21.9355 13.9634L17.6923 11.5136L16.922 12.8479L21.1652 15.2977L21.9355 13.9634ZM22.3207 19.5301V14.6305H20.78V19.5301H22.3207ZM17.6923 22.6471L21.9355 20.1973L21.1652 18.863L16.922 21.3128L17.6923 22.6471ZM12.6788 20.1973L16.922 22.6471L17.6923 21.3128L13.4492 18.863L12.6788 20.1973ZM12.2936 14.6305V19.5301H13.8343V14.6305H12.2936ZM22.5371 13.6161L17.6923 10.819L16.922 12.1533L21.7667 14.9504L22.5371 13.6161ZM22.9222 19.8774V14.2832H21.3815V19.8774H22.9222ZM17.6923 23.3417L22.5371 20.5446L21.7667 19.2103L16.922 22.0074L17.6923 23.3417ZM12.0773 20.5446L16.922 23.3417L17.6923 22.0074L12.8476 19.2103L12.0773 20.5446ZM11.6921 14.2832V19.8774H13.2328V14.2832H11.6921ZM16.922 10.819L12.0773 13.6161L12.8476 14.9504L17.6923 12.1533L16.922 10.819ZM17.1935 15.0235H17.5411V13.4827H17.1935V15.0235ZM17.9639 14.9087V14.2531H16.4232V14.9087H17.9639ZM16.5737 15.9618C16.5737 15.9222 16.5815 15.9034 16.586 15.8945C16.5909 15.8849 16.6034 15.8647 16.6391 15.8378C16.7179 15.7784 16.9001 15.6959 17.2348 15.678L17.1523 14.1394C16.6243 14.1677 16.1115 14.3057 15.7108 14.6081C15.2858 14.9289 15.033 15.4047 15.033 15.9618H16.5737ZM17.0188 16.292C16.8384 16.2296 16.7259 16.173 16.6578 16.1298C16.6246 16.1087 16.604 16.0921 16.592 16.0813C16.5861 16.0759 16.5822 16.0719 16.5798 16.0693C16.5775 16.0668 16.5765 16.0654 16.5764 16.0653C16.5763 16.0652 16.5768 16.0659 16.5776 16.0673C16.5785 16.0687 16.5793 16.0703 16.58 16.072C16.5817 16.0756 16.5816 16.0767 16.5807 16.0729C16.5782 16.0621 16.5737 16.0337 16.5737 15.9618H15.033C15.033 16.2079 15.0568 16.5984 15.3338 16.9762C15.5969 17.3351 16.0065 17.5723 16.5154 17.7482L17.0188 16.292ZM17.5349 16.4367L16.9768 16.2788L16.5574 17.7614L17.1156 17.9193L17.5349 16.4367ZM19.3541 18.0784C19.3541 18.0201 19.3579 17.849 19.309 17.6633C19.2538 17.4534 19.1426 17.254 18.9631 17.0797C18.6458 16.7715 18.1516 16.5804 17.501 16.4279L17.1495 17.928C17.4372 17.9955 17.6266 18.0585 17.7486 18.111C17.8723 18.1641 17.9002 18.1952 17.8897 18.185C17.8676 18.1635 17.835 18.1162 17.8191 18.0556C17.8095 18.0193 17.8134 17.9948 17.8134 18.0784H19.3541ZM17.3673 19.5809C17.5358 19.5809 17.9492 19.5681 18.3469 19.4227C18.5501 19.3484 18.7988 19.2219 19.0025 18.9989C19.2216 18.7591 19.3541 18.444 19.3541 18.0784H17.8134C17.8134 18.0733 17.8146 18.0525 17.8259 18.0239C17.837 17.9954 17.8524 17.9735 17.865 17.9597C17.8852 17.9376 17.8831 17.9517 17.8179 17.9756C17.7565 17.998 17.6752 18.0158 17.5841 18.027C17.4956 18.0378 17.4164 18.0402 17.3673 18.0402V19.5809ZM15.3805 18.1595C15.3805 18.394 15.4378 18.6343 15.5749 18.8528C15.7102 19.0686 15.897 19.2214 16.093 19.3262C16.4628 19.5241 16.9186 19.5809 17.3673 19.5809V18.0402C17.1983 18.0402 17.0688 18.0285 16.973 18.0113C16.8755 17.9938 16.831 17.9737 16.82 17.9678C16.8127 17.9639 16.8467 17.9809 16.8801 18.0341C16.9152 18.09 16.9213 18.1409 16.9213 18.1595H15.3805ZM15.8033 18.9298H16.1509V17.3891H15.8033V18.9298ZM17.2244 18.3631C16.7481 18.3439 16.6049 18.2336 16.5855 18.2161C16.5802 18.2113 16.5789 18.2091 16.5795 18.2099C16.5799 18.2105 16.5799 18.2109 16.5795 18.2099C16.5785 18.2072 16.5737 18.1925 16.5737 18.1595H15.033C15.033 18.5252 15.1445 18.9914 15.5538 19.3604C15.9436 19.7119 16.4956 19.8758 17.1626 19.9026L17.2244 18.3631ZM17.9639 19.7871V19.1328H16.4232V19.7871H17.9639ZM17.5411 19.0168H17.1935V20.5575H17.5411V19.0168ZM16.7707 19.1315V19.7871H18.3115V19.1315H16.7707ZM18.1609 18.0784C18.1609 18.118 18.1532 18.1368 18.1486 18.1457C18.1437 18.1553 18.1312 18.1755 18.0955 18.2024C18.0168 18.2619 17.8345 18.3443 17.4999 18.3622L17.5823 19.9008C18.1103 19.8725 18.6231 19.7346 19.0238 19.4321C19.4488 19.1113 19.7017 18.6355 19.7017 18.0784H18.1609ZM17.7158 17.7482C17.8962 17.8106 18.0088 17.8672 18.0768 17.9104C18.11 17.9315 18.1306 17.9481 18.1426 17.9589C18.1486 17.9643 18.1525 17.9683 18.1548 17.9709C18.1571 17.9735 18.1581 17.9748 18.1582 17.9749C18.1583 17.9751 18.1578 17.9744 18.157 17.9729C18.1562 17.9715 18.1553 17.9699 18.1546 17.9682C18.153 17.9646 18.153 17.9636 18.1539 17.9673C18.1564 17.9781 18.1609 18.0065 18.1609 18.0784H19.7017C19.7017 17.8323 19.6778 17.4418 19.4008 17.064C19.1377 16.7051 18.7281 16.468 18.2193 16.292L17.7158 17.7482ZM17.1997 17.6035L17.7578 17.7614L18.1772 16.2788L17.619 16.1209L17.1997 17.6035ZM15.3805 15.9618C15.3805 16.0201 15.3767 16.1913 15.4256 16.3769C15.4809 16.5869 15.592 16.7863 15.7715 16.9605C16.0889 17.2687 16.5831 17.4598 17.2336 17.6123L17.5851 16.1122C17.2974 16.0447 17.108 15.9817 16.986 15.9293C16.8623 15.8761 16.8344 15.845 16.8449 15.8552C16.8671 15.8767 16.8996 15.9241 16.9155 15.9846C16.9251 16.0209 16.9213 16.0454 16.9213 15.9618H15.3805ZM17.3673 14.4593C17.1988 14.4593 16.7854 14.4722 16.3877 14.6176C16.1845 14.6919 15.9358 14.8183 15.7321 15.0414C15.5131 15.2811 15.3805 15.5962 15.3805 15.9618H16.9213C16.9213 15.9669 16.92 15.9877 16.9088 16.0164C16.8976 16.0448 16.8823 16.0667 16.8697 16.0805C16.8495 16.1026 16.8515 16.0885 16.9167 16.0646C16.9781 16.0422 17.0594 16.0244 17.1506 16.0133C17.2391 16.0024 17.3183 16.0001 17.3673 16.0001V14.4593ZM19.3541 15.8808C19.3541 15.6462 19.2968 15.406 19.1597 15.1874C19.0244 14.9716 18.8376 14.8189 18.6417 14.714C18.2718 14.5161 17.816 14.4593 17.3673 14.4593V16.0001C17.5363 16.0001 17.6658 16.0117 17.7616 16.0289C17.8591 16.0464 17.9036 16.0665 17.9146 16.0724C17.9219 16.0763 17.8879 16.0594 17.8546 16.0062C17.8194 15.9502 17.8134 15.8993 17.8134 15.8808H19.3541ZM18.9313 15.1104H18.5837V16.6511H18.9313V15.1104ZM17.5102 15.6772C17.9866 15.6963 18.1297 15.8066 18.1491 15.8241C18.1545 15.829 18.1557 15.8311 18.1552 15.8303C18.1547 15.8297 18.1548 15.8293 18.1552 15.8303C18.1562 15.8329 18.1609 15.8478 18.1609 15.8808H19.7017C19.7017 15.5151 19.5901 15.0489 19.1808 14.6798C18.791 14.3283 18.239 14.1644 17.572 14.1377L17.5102 15.6772ZM16.7707 14.2531V14.9074H18.3115V14.2531H16.7707ZM15.8312 24.7892L16.5213 25.3015L17.4396 24.0643L16.7495 23.5521L15.8312 24.7892ZM15.6252 23.4292C15.3094 23.862 15.4008 24.4698 15.8312 24.7892L16.7495 23.5521C17.0003 23.7382 17.0514 24.0886 16.8699 24.3373L15.6252 23.4292ZM16.9844 23.221C16.5517 22.9003 15.9428 22.994 15.6252 23.4292L16.8699 24.3373C16.6844 24.5915 16.3231 24.6486 16.0671 24.4589L16.9844 23.221ZM18.4353 24.2993L16.9854 23.2217L16.0671 24.4589L17.5163 25.5359L18.4353 24.2993ZM18.5108 24.3554L18.4353 24.2993L17.5163 25.5359L17.5917 25.592L18.5108 24.3554ZM18.1453 24.2033H18.0513V25.7441H18.1453V24.2033ZM19.6062 24.2033H18.1453V25.7441H19.6062V24.2033ZM19.3138 24.4941C19.3138 24.3381 19.4393 24.2033 19.6062 24.2033V25.7441C20.3048 25.7441 20.8545 25.1743 20.8545 24.4941H19.3138ZM19.6062 24.7849C19.4393 24.7849 19.3138 24.6501 19.3138 24.4941H20.8545C20.8545 23.8139 20.3048 23.2441 19.6062 23.2441V24.7849ZM18.6371 24.7849H19.6062V23.2441H18.6371V24.7849ZM17.7632 23.9076C17.7632 24.3936 18.1553 24.7849 18.6371 24.7849V23.2441C19.0085 23.2441 19.3039 23.5449 19.3039 23.9076H17.7632ZM18.6371 23.0304C18.1553 23.0304 17.7632 23.4216 17.7632 23.9076H19.3039C19.3039 24.2703 19.0085 24.5711 18.6371 24.5711V23.0304ZM20.5548 23.0304H18.6371V24.5711H20.5548V23.0304ZM21.8281 23.4794C21.4673 23.1895 21.0186 23.0304 20.5548 23.0304V24.5711C20.6655 24.5711 20.7742 24.609 20.8629 24.6804L21.8281 23.4794ZM22.3736 23.9205L21.8303 23.4811L20.8614 24.6791L21.4048 25.1185L22.3736 23.9205ZM22.4517 23.9837L22.3736 23.9205L21.4048 25.1185L21.4829 25.1817L22.4517 23.9837ZM22.0678 23.8123H21.9673V25.3531H22.0678V23.8123ZM22.5136 23.8123H22.0678V25.3531H22.5136V23.8123ZM23.3875 24.6896C23.3875 24.2036 22.9954 23.8123 22.5136 23.8123V25.3531C22.1422 25.3531 21.8468 25.0523 21.8468 24.6896H23.3875ZM23.3875 25.4716V24.6896H21.8468V25.4716H23.3875ZM22.5136 26.3488C22.9954 26.3488 23.3875 25.9576 23.3875 25.4716H21.8468C21.8468 25.1089 22.1422 24.8081 22.5136 24.8081V26.3488ZM18.6311 26.3488H22.5136V24.8081H18.6311V26.3488ZM17.3639 25.9294C17.7306 26.2013 18.1748 26.3488 18.6311 26.3488V24.8081C18.5072 24.8081 18.3843 24.768 18.2815 24.6917L17.3639 25.9294ZM16.5187 25.3012L17.3631 25.9288L18.2815 24.6917L17.4379 24.0646L16.5187 25.3012ZM16.9804 23.9125H16.9783V25.4533H16.9804V23.9125ZM16.9616 24.0646L16.5805 23.7814L15.6611 25.0177L16.0425 25.3012L16.9616 24.0646ZM18.113 24.9205L16.9616 24.0646L16.0425 25.3012L17.1939 26.1571L18.113 24.9205ZM18.6311 25.0922C18.446 25.0922 18.2645 25.0329 18.113 24.9205L17.1939 26.1571C17.6094 26.4651 18.1135 26.6329 18.6311 26.6329V25.0922ZM22.5136 25.0922H18.6311V26.6329H22.5136V25.0922ZM22.1309 25.4716C22.1309 25.2686 22.2964 25.0922 22.5136 25.0922V26.6329C23.1597 26.6329 23.6716 26.1071 23.6716 25.4716H22.1309ZM22.1309 24.6896V25.4716H23.6716V24.6896H22.1309ZM22.5136 25.069C22.2964 25.069 22.1309 24.8925 22.1309 24.6896H23.6716C23.6716 24.0541 23.1597 23.5282 22.5136 23.5282V25.069ZM22.0678 25.069H22.5136V23.5282H22.0678V25.069ZM21.0395 24.4577L21.5834 24.8976L22.5522 23.6996L22.0083 23.2597L21.0395 24.4577ZM20.5548 24.287C20.7306 24.287 20.9022 24.3473 21.0411 24.4591L22.0067 23.2584C21.5957 22.9279 21.0839 22.7462 20.5548 22.7462V24.287ZM18.6371 24.287H20.5548V22.7462H18.6371V24.287ZM19.0198 23.9076C19.0198 24.1106 18.8544 24.287 18.6371 24.287V22.7462C17.991 22.7462 17.4791 23.2721 17.4791 23.9076H19.0198ZM18.6371 23.5282C18.8544 23.5282 19.0198 23.7047 19.0198 23.9076H17.4791C17.4791 24.5431 17.991 25.069 18.6371 25.069V23.5282ZM19.6062 23.5282H18.6371V25.069H19.6062V23.5282ZM20.5704 24.4941C20.5704 23.9674 20.1445 23.5282 19.6062 23.5282V25.069C19.2812 25.069 19.0297 24.8058 19.0297 24.4941H20.5704ZM19.6062 25.46C20.1445 25.46 20.5704 25.0208 20.5704 24.4941H19.0297C19.0297 24.1824 19.2812 23.9192 19.6062 23.9192V25.46ZM18.1453 25.46H19.6062V23.9192H18.1453V25.46ZM16.2357 24.2302L17.6858 25.3079L18.6048 24.0713L17.1548 22.9936L16.2357 24.2302ZM16.6404 24.1699C16.5479 24.2966 16.3651 24.3263 16.2357 24.2302L17.1548 22.9936C16.5941 22.5775 15.8056 22.7 15.3957 23.2617L16.6404 24.1699ZM16.6872 23.944C16.7039 24.0179 16.6901 24.1017 16.6404 24.1699L15.3957 23.2617C15.1718 23.5686 15.1071 23.944 15.1847 24.2854L16.6872 23.944ZM16.5805 23.7814C16.6366 23.8233 16.6732 23.8824 16.6872 23.944L15.1847 24.2854C15.2485 24.5661 15.4094 24.8288 15.6588 25.0151L16.5805 23.7814ZM16.5805 23.7814L16.58 23.7801L15.6605 25.0164L15.6611 25.0177L16.5805 23.7814ZM16.1198 25.1692H16.121V23.6284H16.1198V25.1692ZM16.5805 23.7814L16.58 23.7801L15.6605 25.0164L15.6611 25.0177L16.5805 23.7814Z" fill="#050505"/>
</g>
</svg>
