<svg width="37" height="38" viewBox="0 0 37 38" fill="none" xmlns="http://www.w3.org/2000/svg">
<g clip-path="url(#clip0_6_912)">
<g clip-path="url(#clip1_6_912)">
<g clip-path="url(#clip2_6_912)">
<path d="M18.5195 36.9136C28.4607 36.9136 36.5195 28.8547 36.5195 18.9136C36.5195 8.97245 28.4607 0.913574 18.5195 0.913574C8.57841 0.913574 0.519531 8.97245 0.519531 18.9136C0.519531 28.8547 8.57841 36.9136 18.5195 36.9136Z" fill="white"/>
<path d="M9.51953 17.3558C9.54285 16.9826 9.56838 16.6098 9.58907 16.2362C9.62383 15.6104 9.68016 14.9895 9.87116 14.3861C10.2611 13.1547 11.1118 12.4885 12.3805 12.3714C13.196 12.2961 14.0164 12.268 14.8349 12.2354C17.5331 12.1288 20.2317 12.1421 22.929 12.2671C23.6124 12.2987 24.3007 12.3207 24.9758 12.4211C26.143 12.5949 26.9544 13.4196 27.2309 14.5885C27.4337 15.445 27.4518 16.3167 27.4813 17.1868C27.5424 18.9899 27.546 20.7938 27.3677 22.5911C27.2995 23.2807 27.1208 23.9531 26.6882 24.5204C26.2367 25.1123 25.629 25.4705 24.8909 25.5343C23.8826 25.6215 22.8709 25.669 21.8595 25.7117C19.3251 25.8191 16.7902 25.7746 14.257 25.6703C13.487 25.6387 12.711 25.5929 11.9523 25.4661C10.7694 25.2677 10.0899 24.501 9.79898 23.3572C9.60578 22.5959 9.60447 21.8161 9.55429 21.0406C9.5455 20.9016 9.53141 20.763 9.51953 20.6239C9.51953 19.5347 9.51953 18.445 9.51953 17.3558ZM18.9092 13.1908C17.2528 13.2309 15.9941 13.2525 14.7359 13.2942C13.9697 13.3197 13.203 13.3575 12.4395 13.4254C11.7037 13.4905 11.1738 13.8514 10.919 14.5819C10.7271 15.1325 10.6783 15.6998 10.6444 16.2723C10.5498 17.8751 10.5445 19.4792 10.6149 21.0829C10.6457 21.7883 10.6545 22.4977 10.8468 23.1891C11.0334 23.8585 11.4247 24.3 12.1231 24.4324C12.3181 24.4694 12.5147 24.512 12.7119 24.5226C13.688 24.575 14.6642 24.6269 15.6407 24.6621C17.6541 24.7351 19.6679 24.7445 21.6813 24.6608C22.716 24.6181 23.7519 24.5741 24.7831 24.4817C25.4036 24.4262 25.8419 24.0693 26.0742 23.4663C26.2931 22.8991 26.3493 22.3094 26.3841 21.7127C26.4782 20.1037 26.4862 18.4938 26.4144 16.8844C26.3828 16.1733 26.3877 15.4547 26.1803 14.7614C26.0699 14.3931 25.9278 14.0499 25.6051 13.8029C25.2227 13.5108 24.7804 13.4162 24.3209 13.3973C22.385 13.3172 20.4491 13.2484 18.9092 13.1908Z" fill="#1019FF"/>
<path d="M16.2315 18.79C16.2315 18.099 16.2302 17.4081 16.2315 16.7172C16.2332 16.0404 16.7948 15.7076 17.3915 16.0333C18.6647 16.7277 19.9366 17.4248 21.2075 18.1236C21.6952 18.3917 21.8113 18.9159 21.4663 19.293C21.3932 19.3731 21.2964 19.4373 21.2001 19.4893C19.9291 20.1754 18.6568 20.8598 17.3832 21.5409C16.7842 21.8613 16.2323 21.5264 16.2311 20.8451C16.2297 20.16 16.2315 19.4752 16.2315 18.79ZM20.2556 18.8024C19.2544 18.2544 18.2827 17.7228 17.2982 17.1837V20.3914C18.2849 19.8612 19.2518 19.3419 20.2556 18.8024Z" fill="#1019FF"/>
</g>
</g>
</g>
<defs>
<clipPath id="clip0_6_912">
<rect width="36" height="37.13" fill="white" transform="translate(0.519531 0.189941)"/>
</clipPath>
<clipPath id="clip1_6_912">
<rect width="36" height="37.13" fill="white" transform="translate(0.519531 0.189941)"/>
</clipPath>
<clipPath id="clip2_6_912">
<rect width="36" height="37.125" fill="white" transform="translate(0.519531 0.192383)"/>
</clipPath>
</defs>
</svg>
