<svg width="15" height="20" viewBox="0 0 15 20" fill="none" xmlns="http://www.w3.org/2000/svg">
<path d="M0.357147 3.02679C0.357147 1.42417 1.65632 0.125 3.25893 0.125H11.7411C13.3437 0.125 14.6429 1.42417 14.6429 3.02679V19.0982C14.6429 19.3525 14.4988 19.5849 14.2711 19.6979C14.0433 19.8111 13.7711 19.7854 13.5685 19.6317L7.5 15.028L1.43151 19.6317C1.22892 19.7854 0.956728 19.8111 0.72896 19.6979C0.501192 19.5849 0.357147 19.3525 0.357147 19.0982V3.02679ZM3.25893 1.46429C2.39599 1.46429 1.69643 2.16384 1.69643 3.02679V17.7496L7.09527 13.654C7.33456 13.4725 7.66545 13.4725 7.90474 13.654L13.3036 17.7496V3.02679C13.3036 2.16384 12.604 1.46429 11.7411 1.46429H3.25893Z" fill="black" stroke="black" stroke-width="0.00064"/>
</svg>
