<svg width="16" height="17" viewBox="0 0 16 17" fill="none" xmlns="http://www.w3.org/2000/svg">
<path d="M16 2H0V17H16V2Z" fill="white" fill-opacity="0.01"/>
<path d="M5.45166 8.97863V4.79935C5.45166 4.16985 5.98603 3.65955 6.64521 3.65955C7.30439 3.65955 7.83876 4.16985 7.83876 4.79935V8.97863" stroke="#4A4A4A" stroke-width="1.3" stroke-linecap="round" stroke-linejoin="round"/>
<path d="M15.0001 8.59869V11.0683C15.0001 13.4813 12.9517 15.4375 10.4248 15.4375H10.0269C7.50008 15.4375 5.45166 13.4813 5.45166 11.0683V8.59869" stroke="#4A4A4A" stroke-width="1.3" stroke-linecap="round" stroke-linejoin="round"/>
<path d="M7.83875 10.1184V9.3987V8.21872C7.83875 7.58923 8.37312 7.07892 9.0323 7.07892C9.69148 7.07892 10.2258 7.58923 10.2258 8.21872V9.4276V10.1184" stroke="#4A4A4A" stroke-width="1.3" stroke-linecap="round" stroke-linejoin="round"/>
<path d="M10.2258 10.1184V9.3987V8.21872C10.2258 7.58923 10.7602 7.07892 11.4194 7.07892C12.0786 7.07892 12.6129 7.58923 12.6129 8.21872V9.4276V10.1184" stroke="#4A4A4A" stroke-width="1.3" stroke-linecap="round" stroke-linejoin="round"/>
<path d="M12.6129 10.1184V9.3987V8.21872C12.6129 7.58923 13.1473 7.07892 13.8065 7.07892C14.4656 7.07892 15 7.58923 15 8.21872V9.4276V10.1184" stroke="#4A4A4A" stroke-width="1.3" stroke-linecap="round" stroke-linejoin="round"/>
<path d="M10.6236 4.79934C10.6236 4.39999 10.5591 4.01502 10.4395 3.65344C10.3057 3.24903 10.103 2.87387 9.84446 2.54052C9.11968 1.60589 7.9565 1 6.64513 1C5.33377 1 4.17058 1.60589 3.44581 2.54052C3.1873 2.87387 2.98457 3.24903 2.85077 3.65344C2.73115 4.01502 2.66663 4.39999 2.66663 4.79934" stroke="#4A4A4A" stroke-width="1.3" stroke-linecap="round"/>
</svg>
