<svg width="110" height="110" viewBox="0 0 110 110" fill="none" xmlns="http://www.w3.org/2000/svg">
<path d="M55 110C85.3757 110 110 85.3757 110 55C110 24.6243 85.3757 0 55 0C24.6243 0 0 24.6243 0 55C0 85.3757 24.6243 110 55 110Z" fill="#1031BD" fill-opacity="0.21"/>
<path d="M19 11C19 8.7909 20.7909 7 23 7H87.6487C89.8578 7 91.649 8.7909 91.649 11V99C91.649 101.209 89.8578 103 87.6487 103H23C20.7909 103 19 101.209 19 99V11Z" fill="white"/>
<path fill-rule="evenodd" clip-rule="evenodd" d="M87.6487 8.5H23C21.6193 8.5 20.5 9.6193 20.5 11V99C20.5 100.381 21.6193 101.5 23 101.5H87.6487C89.0294 101.5 90.1487 100.381 90.1487 99V11C90.1487 9.6193 89.0294 8.5 87.6487 8.5ZM23 7C20.7909 7 19 8.7909 19 11V99C19 101.209 20.7909 103 23 103H87.6487C89.8578 103 91.649 101.209 91.649 99V11C91.649 8.7909 89.8578 7 87.6487 7H23Z" fill="#1A1D23"/>
<path d="M67 75.4688C67 75.0545 67.3358 74.7188 67.75 74.7188H76.6284C77.0426 74.7188 77.3784 75.0545 77.3784 75.4688C77.3784 75.883 77.0426 76.2188 76.6284 76.2188H67.75C67.3358 76.2188 67 75.883 67 75.4688Z" fill="#1A1D23"/>
<path d="M30.6758 67.0366C30.6758 66.6224 31.0116 66.2866 31.4258 66.2866H40.9528C41.367 66.2866 41.7028 66.6224 41.7028 67.0366C41.7028 67.4508 41.367 67.7866 40.9528 67.7866H31.4258C31.0116 67.7866 30.6758 67.4508 30.6758 67.0366Z" fill="#1A1D23"/>
<path d="M30.6758 58.604C30.6758 58.1898 31.0116 57.854 31.4258 57.854H61.0609C61.4751 57.854 61.8109 58.1898 61.8109 58.604C61.8109 59.0182 61.4751 59.354 61.0609 59.354H31.4258C31.0116 59.354 30.6758 59.0182 30.6758 58.604Z" fill="#1A1D23"/>
<path d="M67 58.6039C67 58.1897 67.3358 57.8539 67.75 57.8539H76.6284C77.0426 57.8539 77.3784 58.1897 77.3784 58.6039C77.3784 59.0182 77.0426 59.3539 76.6284 59.3539H67.75C67.3358 59.3539 67 59.0182 67 58.6039Z" fill="#1A1D23"/>
<path d="M46.2432 67.0366C46.2432 66.6224 46.579 66.2866 46.9932 66.2866H76.6283C77.0425 66.2866 77.3783 66.6224 77.3783 67.0366C77.3783 67.4508 77.0425 67.7866 76.6283 67.7866H46.9932C46.579 67.7866 46.2432 67.4508 46.2432 67.0366Z" fill="#1A1D23"/>
<path d="M30.6758 75.4688C30.6758 75.0545 31.0116 74.7188 31.4258 74.7188H61.0609C61.4751 74.7188 61.8109 75.0545 61.8109 75.4688C61.8109 75.883 61.4751 76.2188 61.0609 76.2188H31.4258C31.0116 76.2188 30.6758 75.883 30.6758 75.4688Z" fill="#1A1D23"/>
<path d="M30.6758 88.4486C30.6758 86.2395 32.4666 84.4486 34.6758 84.4486H52.6217C54.8309 84.4486 56.6217 86.2395 56.6217 88.4486C56.6217 90.6577 54.8309 92.449 52.6217 92.449H34.6758C32.4666 92.449 30.6758 90.6577 30.6758 88.4486Z" fill="#1031BD"/>
<g clip-path="url(#clip0_52_4)">
<path d="M64.65 47H44.35C43.48 47 42.9 46.5 42.9 45.75V39.5C42.9 38.75 43.48 38.25 44.35 38.25C45.22 38.25 45.8 38.75 45.8 39.5V44.5H63.2V39.5C63.2 38.75 63.78 38.25 64.65 38.25C65.52 38.25 66.1 38.75 66.1 39.5V45.75C66.1 46.5 65.52 47 64.65 47Z" fill="#1031BD"/>
<path d="M69 30.75C69 30.5 68.855 30.25 68.71 30L62.91 22.5C62.62 22.25 62.185 22 61.75 22H47.25C46.815 22 46.38 22.25 46.09 22.5L40.29 30C40.145 30.25 40 30.5 40 30.75C40 30.75 40 32.5 40 32.625C40 34.375 41.595 35.75 43.625 35.75C46.38 35.75 47.25 33.25 47.25 33.25C47.54 34.625 49.135 35.75 50.875 35.75C53.63 35.75 54.5 33.25 54.5 33.25C54.79 34.625 56.385 35.75 58.125 35.75C60.88 35.75 61.75 33.25 61.75 33.25C62.04 34.625 63.635 35.75 65.375 35.75C67.405 35.75 69 34.375 69 32.625C69 32.5 69 30.75 69 30.75Z" fill="#1031BD" stroke="#1031BD" stroke-width="0.00064"/>
</g>
<defs>
<clipPath id="clip0_52_4">
<rect width="29" height="25" fill="white" transform="translate(40 22)"/>
</clipPath>
</defs>
</svg>
