<svg width="21" height="21" viewBox="0 0 21 21" fill="none" xmlns="http://www.w3.org/2000/svg" stroke="white" >
<path d="M20.1667 10.7787V12.2365C20.1667 15.9747 20.1667 17.844 19.0439 19.0053C17.9212 20.1667 16.1141 20.1667 12.5 20.1667H8.66667C5.05256 20.1667 3.24552 20.1667 2.12275 19.0053C1 17.844 1 15.9747 1 12.2365V10.7787C1 8.58568 1 7.48914 1.49757 6.58013C1.99513 5.67112 2.90416 5.10695 4.7222 3.97862L6.63886 2.78908C8.56067 1.59636 9.5216 1 10.5833 1C11.6451 1 12.606 1.59636 14.5278 2.78908L16.4445 3.97861C18.2626 5.10695 19.1715 5.67112 19.6691 6.58013" stroke="black" stroke-opacity="0.78" stroke-width="1.5" stroke-linecap="round"/>
<path d="M13.4583 16.3333H7.70834" stroke="#1C274C" stroke-width="1.728" stroke-linecap="round"/>
</svg>
