<svg width="14" height="16" viewBox="0 0 14 16" fill="none" xmlns="http://www.w3.org/2000/svg">
<path fill-rule="evenodd" clip-rule="evenodd" d="M10.4103 2.97674H13.4615C13.6043 2.97674 13.7413 3.03555 13.8423 3.14022C13.9433 3.24489 14 3.38686 14 3.53488C14 3.68291 13.9433 3.82488 13.8423 3.92955C13.7413 4.03422 13.6043 4.09302 13.4615 4.09302H12.5641V13.9535C12.5641 14.4963 12.3561 15.0168 11.9858 15.4006C11.6156 15.7844 11.1134 16 10.5897 16H3.41026C2.88662 16 2.38444 15.7844 2.01417 15.4006C1.64391 15.0168 1.4359 14.4963 1.4359 13.9535V4.09302H0.538462C0.395653 4.09302 0.258693 4.03422 0.157712 3.92955C0.0567305 3.82488 0 3.68291 0 3.53488C0 3.38686 0.0567305 3.24489 0.157712 3.14022C0.258693 3.03555 0.395653 2.97674 0.538462 2.97674H3.58974V2.04651C3.58974 1.50374 3.79776 0.983205 4.16802 0.599409C4.53828 0.215614 5.04047 0 5.5641 0H8.4359C8.95953 0 9.46172 0.215614 9.83198 0.599409C10.2022 0.983205 10.4103 1.50374 10.4103 2.04651V2.97674ZM9.33333 2.97674V2.04651C9.33333 1.53302 8.93128 1.11628 8.4359 1.11628H5.5641C5.06872 1.11628 4.66667 1.53302 4.66667 2.04651V2.97674H9.33333ZM11.4872 4.09302H2.51282V13.9535C2.51282 14.467 2.91487 14.8837 3.41026 14.8837H10.5897C11.0851 14.8837 11.4872 14.467 11.4872 13.9535V4.09302Z" fill="#1031BD"/>
</svg>
