<svg width="12" height="12" viewBox="0 0 12 12" fill="none" xmlns="http://www.w3.org/2000/svg">
<path d="M6 5.71788C6.72932 5.71788 7.42877 5.41667 7.94448 4.88051C8.46019 4.34436 8.74991 3.61718 8.74991 2.85894C8.74991 2.1007 8.46019 1.37352 7.94448 0.837364C7.42877 0.301209 6.72932 0 6 0C5.27068 0 4.57123 0.301209 4.05552 0.837364C3.53981 1.37352 3.25009 2.1007 3.25009 2.85894C3.25009 3.61718 3.53981 4.34436 4.05552 4.88051C4.57123 5.41667 5.27068 5.71788 6 5.71788ZM6 6.97396C2.34382 6.97396 0 9.07159 0 10.0929V12H12V10.0929C12 8.85781 9.78109 6.97396 6 6.97396Z" fill="#4A4A4A" stroke="#4A4A4A" stroke-width="0.00064"/>
</svg>
