<svg width="33" height="33" viewBox="0 0 33 33" fill="none" xmlns="http://www.w3.org/2000/svg">
<g clip-path="url(#clip0_1_253)">
<rect x="0.5" y="0.5" width="32" height="32" rx="16" fill="#F5F6F7"/>
<g clip-path="url(#clip1_1_253)">
<g clip-path="url(#clip2_1_253)">
<mask id="mask0_1_253" style="mask-type:alpha" maskUnits="userSpaceOnUse" x="0" y="0" width="33" height="32">
<path d="M16.5 31.9678C25.0688 31.9678 32.0152 25.0215 32.0152 16.4527C32.0152 7.8839 25.0688 0.937531 16.5 0.937531C7.93123 0.937531 0.984863 7.8839 0.984863 16.4527C0.984863 25.0215 7.93123 31.9678 16.5 31.9678Z" fill="white"/>
</mask>
<g mask="url(#mask0_1_253)">
<mask id="mask1_1_253" style="mask-type:luminance" maskUnits="userSpaceOnUse" x="0" y="0" width="33" height="32">
<path d="M32.0152 0.9375H0.984863V31.9678H32.0152V0.9375Z" fill="white"/>
</mask>
<g mask="url(#mask1_1_253)">
<path d="M32.0152 0.9375H0.984863V31.9678H32.0152V0.9375Z" fill="#F5F6F7"/>
<path d="M18.3908 21.107H14.9969C12.5666 21.107 10.2358 22.0725 8.51729 23.791C6.79879 25.5095 5.83334 27.8402 5.83334 30.2706C5.83334 30.7206 6.01213 31.1523 6.33037 31.4705C6.64862 31.7887 7.08024 31.9675 7.5303 31.9675H25.8575C26.3075 31.9675 26.7391 31.7887 27.0574 31.4705C27.3756 31.1523 27.5545 30.7206 27.5545 30.2706C27.5545 27.8402 26.5889 25.5095 24.8704 23.791C23.1519 22.0725 20.8212 21.107 18.3908 21.107Z" fill="#CAD8DD"/>
<path d="M23.4824 11.6041V13.6405C23.4826 14.8321 23.169 16.0029 22.5732 17.035C21.9775 18.067 21.1205 18.924 20.0885 19.5199V22.4647L16.6945 24.5011L13.3007 22.4647V19.5199C12.2686 18.924 11.4116 18.067 10.8158 17.035C10.2201 16.0029 9.90656 14.8321 9.90674 13.6405V11.6041C9.90674 9.80388 10.6219 8.07737 11.8948 6.8044C13.1678 5.53144 14.8943 4.81628 16.6945 4.81628C18.4948 4.81628 20.2213 5.53144 21.4943 6.8044C22.7673 8.07737 23.4824 9.80388 23.4824 11.6041Z" fill="#DDE5E8"/>
<g opacity="0.06">
<path d="M16.696 4.81628C16.1232 4.81853 15.553 4.89337 14.999 5.03901C16.4552 5.41434 17.7455 6.26284 18.6669 7.45118C19.5884 8.63953 20.089 10.1004 20.0899 11.6041V13.6405C20.0889 15.1443 19.5883 16.605 18.6668 17.7933C17.7454 18.9816 16.4552 19.8301 14.999 20.2056C16.0019 20.4694 17.0519 20.4991 18.068 20.2925C19.0841 20.0858 20.0391 19.6483 20.8592 19.0137C21.6793 18.3793 22.3424 17.5646 22.7976 16.6329C23.2527 15.7013 23.4875 14.6774 23.4839 13.6405V11.6041C23.4839 9.80387 22.7687 8.07737 21.4958 6.8044C20.2228 5.53144 18.4962 4.81628 16.696 4.81628Z" fill="#17292D"/>
</g>
</g>
</g>
</g>
</g>
</g>
<defs>
<clipPath id="clip0_1_253">
<rect x="0.5" y="0.5" width="32" height="32" rx="16" fill="white"/>
</clipPath>
<clipPath id="clip1_1_253">
<rect width="32" height="32" fill="white" transform="translate(0.5 0.5)"/>
</clipPath>
<clipPath id="clip2_1_253">
<rect width="31.0303" height="32" fill="white" transform="translate(0.984863 0.5)"/>
</clipPath>
</defs>
</svg>
