<svg width="13" height="13" viewBox="0 0 13 13" fill="none" xmlns="http://www.w3.org/2000/svg">
<path d="M3.69863 3.6987C4.54464 2.85267 4.54464 1.48055 3.69863 0.63452C2.85262 -0.211507 1.48052 -0.211507 0.634508 0.63452C-0.211502 1.48055 -0.211502 2.85267 0.634508 3.6987C1.48086 4.54507 2.85262 4.54507 3.69863 3.6987ZM12.3652 9.3013C11.5192 8.45527 10.1471 8.45527 9.30112 9.3013C8.45511 10.1473 8.45511 11.5195 9.30112 12.3655C10.1471 13.2115 11.5192 13.2115 12.3652 12.3655C13.2116 11.5195 13.2116 10.1477 12.3652 9.3013ZM12.2996 1.46633L11.5338 0.700537C11.1106 0.277354 10.4247 0.277354 10.0019 0.700537L0.700523 10.0021C0.277348 10.4253 0.277348 11.1112 0.700523 11.534L1.4663 12.2998C1.88947 12.723 2.57535 12.723 2.99819 12.2998L12.2996 2.99825C12.7227 2.5754 12.7227 1.88951 12.2996 1.46633Z" fill="#4A4A4A"/>
</svg>
