<svg width="11" height="10" viewBox="0 0 11 10" fill="none" xmlns="http://www.w3.org/2000/svg">
<path d="M10.5063 3.3028C10.6503 3.40197 10.7555 3.33123 10.7401 3.14563L10.4993 0.238879C10.4839 0.0532753 10.341 -0.0451223 10.1817 0.0202031L7.68711 1.04339C7.52786 1.10876 7.51528 1.24332 7.6593 1.34249L8.12182 1.66093C8.26584 1.7601 8.30719 1.96859 8.21361 2.12426L6.32831 5.26201C6.23482 5.41768 6.02815 5.49102 5.86903 5.42501L2.93886 4.20926C2.77977 4.14325 2.56099 4.20685 2.45267 4.35051L0.612539 6.79156C0.504225 6.93527 0.414843 7.20531 0.413971 7.39164L0.404547 9.38524C0.403716 9.57162 0.493639 9.60838 0.604402 9.46699L2.97427 6.44242C3.08512 6.30103 3.3059 6.23935 3.4649 6.3054L6.41682 7.5312C6.57583 7.59726 6.78307 7.52438 6.8774 7.36926L9.51948 3.0233C9.61376 2.86818 9.80872 2.82246 9.95274 2.92158L10.5063 3.3028Z" fill="#1031BD" stroke="#1031BD" stroke-width="0.000639992"/>
</svg>
