<svg width="22" height="22" viewBox="0 0 22 22" fill="none" xmlns="http://www.w3.org/2000/svg">
<path fill-rule="evenodd" clip-rule="evenodd" d="M10.9998 0.0354004C16.8107 0.0354004 21.5215 4.74614 21.5215 10.5571C21.5215 16.3682 16.8107 21.0789 10.9998 21.0789C5.18877 21.0789 0.478027 16.3682 0.478027 10.5571C0.478028 4.74614 5.18877 0.0354004 10.9998 0.0354004ZM19.6085 10.5571C19.6085 5.80269 15.7543 1.94844 10.9998 1.94844C6.24532 1.94844 2.39107 5.80269 2.39107 10.5571C2.39107 15.3116 6.24532 19.1658 10.9998 19.1658C15.7543 19.1658 19.6085 15.3116 19.6085 10.5571Z" fill="#57C775"/>
<path fill-rule="evenodd" clip-rule="evenodd" d="M17.1294 8.76651L10.6555 14.1614C10.2754 14.4782 9.71654 14.4529 9.36672 14.103L5.8208 10.5571L7.17352 9.20436L10.1018 12.1326L15.9047 7.29688L17.1294 8.76651Z" fill="#57C775"/>
</svg>
