<svg width="107" height="98" viewBox="0 0 107 98" fill="none" xmlns="http://www.w3.org/2000/svg">
<g clip-path="url(#clip0_65_1511)">
<g clip-path="url(#clip1_65_1511)">
<g clip-path="url(#clip2_65_1511)">
<path d="M53.5001 97.5881C82.7489 97.5881 106.46 96.2584 106.46 94.6184C106.46 92.9782 82.7489 91.6487 53.5001 91.6487C24.2514 91.6487 0.540527 92.9782 0.540527 94.6184C0.540527 96.2584 24.2514 97.5881 53.5001 97.5881Z" fill="#CCC5E4"/>
<path d="M97.2151 31.7903V92.7394H7.11865V31.7903C7.11865 30.2174 8.39661 28.9887 9.92033 28.9887H94.3642C95.9371 28.9395 97.2151 30.2174 97.2151 31.7903Z" fill="#08074F"/>
<path d="M8.59277 87.3324V33.5105C8.59277 32.6258 9.33005 31.8884 10.2148 31.8884H94.118C95.0028 31.8884 95.74 32.6258 95.74 33.5105V87.3324C95.74 88.2171 95.0028 88.9544 94.118 88.9544H10.2148C9.33005 88.9053 8.59277 88.2171 8.59277 87.3324Z" fill="#08074F"/>
<path d="M66.8391 85.9065C66.8391 86.0048 66.79 86.1031 66.79 86.2506" stroke="#50B3D1" stroke-width="0.439416" stroke-miterlimit="10"/>
<path d="M100.705 90.5757V91.8044C100.705 93.2299 99.7707 94.3604 97.2149 94.3604H6.67619C4.12027 94.3604 3.57959 93.2299 3.57959 91.8044V90.5757H100.705Z" fill="#08074F"/>
<path d="M63.8896 90.5757C63.8896 91.5096 63.1031 92.296 62.1693 92.296H42.1642C41.2303 92.296 40.4438 91.5096 40.4438 90.5757H63.8896Z" fill="#59499D"/>
<path d="M70.7227 89.1509C70.9685 88.5119 71.116 87.8729 71.116 87.1847C71.116 83.9407 68.1668 81.3356 64.5787 81.3356C63.9889 81.3356 63.399 81.4339 62.8583 81.5322C62.8583 81.4831 62.8583 81.3848 62.8583 81.3356C62.8583 79.6153 61.2855 78.239 59.3685 78.239C58.7786 78.239 58.2872 78.3865 57.7957 78.5831L56.0753 52.6306H49.0465L47.1295 77.1085C46.4414 75.8306 44.5736 75.2407 43.6397 75.2407C41.1821 75.2407 39.2161 77.0102 39.2161 79.2221C39.2161 80.0577 39.511 80.7949 39.9533 81.4339C36.2178 81.2373 32.8262 84.3339 32.8262 87.1847C32.8262 87.8729 32.9737 88.5611 33.2195 89.1509H70.7227Z" fill="#CCC5E4"/>
<path d="M53.7158 85.9069C54.0599 84.4323 55.4362 83.2526 57.1074 83.1052C58.4837 82.9577 59.7124 83.4984 60.4989 84.334C60.5972 84.4323 60.6955 84.334 60.6463 84.2357C60.0073 82.9577 58.5328 82.073 56.8124 82.1713C54.8955 82.2697 53.3718 83.6459 53.1751 85.3663C53.126 85.8085 53.1751 86.2509 53.3226 86.6442C53.3718 86.7425 53.5684 86.7425 53.5684 86.595C53.6667 86.3984 53.6667 86.1526 53.7158 85.9069Z" fill="white"/>
<path d="M49.3903 83.4487C50.0784 82.6622 51.3072 82.4164 52.3394 82.7605C53.175 83.0554 53.7157 83.6944 53.9123 84.4316C53.9123 84.4808 54.0597 84.4808 54.0597 84.4316C54.1089 83.4978 53.5682 82.6131 52.5361 82.2198C51.4055 81.7774 50.0292 82.1215 49.3411 83.0554C49.1445 83.3012 49.0462 83.547 48.9971 83.8419C48.9971 83.9402 49.0954 83.9402 49.1445 83.891C49.1937 83.7436 49.292 83.5961 49.3903 83.4487Z" fill="white"/>
<path d="M40.789 84.9233C40.1992 83.4487 40.7399 81.7776 42.1653 80.8436C43.2958 80.0572 44.7213 79.9589 45.9009 80.3029C45.9992 80.3521 46.0975 80.2046 45.9992 80.1555C44.6721 79.3199 42.8534 79.2707 41.4281 80.1555C39.806 81.1386 39.2161 83.1046 40.1009 84.6775C40.3467 85.0708 40.6416 85.464 40.9857 85.7588C41.084 85.8571 41.2314 85.7097 41.1823 85.6114C41.0348 85.3657 40.8874 85.1691 40.789 84.9233Z" fill="white"/>
<path d="M54.0103 54.5469L54.7967 83.2519L55.7306 82.7112L54.0103 54.5469Z" fill="white"/>
<path d="M50.8159 51.3035L49.3413 78.6322L49.8329 79.3696L50.8159 51.3035Z" fill="white"/>
<path d="M71.6559 91.461C75.4292 91.461 78.4881 90.1846 78.4881 88.6101C78.4881 87.0357 75.4292 85.7593 71.6559 85.7593C67.8825 85.7593 64.8237 87.0357 64.8237 88.6101C64.8237 90.1846 67.8825 91.461 71.6559 91.461Z" fill="#CCC5E4"/>
<path d="M37.299 87.1355C37.6431 88.6592 34.9397 90.5761 31.2533 91.4118C27.5668 92.2474 24.3228 91.6575 23.9787 90.1338C23.6347 88.6101 26.3381 86.6931 30.0244 85.8576C33.7109 85.0219 36.9549 85.5626 37.299 87.1355Z" fill="#CCC5E4"/>
<path d="M38.4778 50.0744C38.4778 50.3202 38.2812 50.4676 38.0846 50.4676C37.8388 50.4676 37.6914 50.271 37.6914 50.0744C37.6914 49.8778 37.888 49.6812 38.0846 49.6812C38.2812 49.632 38.4778 49.8287 38.4778 50.0744Z" stroke="#9DDBF4" stroke-width="0.439416" stroke-miterlimit="10"/>
<path d="M47.5716 33.8542C47.5716 34.0999 47.3749 34.2473 47.1783 34.2473C46.9326 34.2473 46.7852 34.0507 46.7852 33.8542C46.7852 33.6084 46.9817 33.461 47.1783 33.461C47.3749 33.4118 47.5716 33.6084 47.5716 33.8542Z" stroke="#9DDBF4" stroke-width="0.439416" stroke-miterlimit="10"/>
<path d="M77.8978 44.373H77.3571V43.8323C77.3571 43.7339 77.3079 43.6848 77.2096 43.6848C77.1113 43.6848 77.0622 43.7339 77.0622 43.8323V44.373H76.5215C76.4232 44.373 76.374 44.4221 76.374 44.5204C76.374 44.6187 76.4232 44.6679 76.5215 44.6679H77.0622V45.2086C77.0622 45.3069 77.1113 45.356 77.2096 45.356C77.3079 45.356 77.3571 45.3069 77.3571 45.2086V44.6679H77.8978C77.9961 44.6679 78.0453 44.6187 78.0453 44.5204C78.0453 44.4221 77.947 44.373 77.8978 44.373Z" fill="#CCC5E4"/>
<path d="M80.9949 69.4897H80.4543V68.949C80.4543 68.8507 80.4052 68.8015 80.3068 68.8015C80.2085 68.8015 80.1594 68.8507 80.1594 68.949V69.4897H79.6187C79.5204 69.4897 79.4712 69.5389 79.4712 69.6372C79.4712 69.7355 79.5204 69.7846 79.6187 69.7846H80.1594V70.3253C80.1594 70.4236 80.2085 70.4728 80.3068 70.4728C80.4052 70.4728 80.4543 70.4236 80.4543 70.3253V69.7846H80.9949C81.0932 69.7846 81.1424 69.7355 81.1424 69.6372C81.1424 69.5389 81.0932 69.4897 80.9949 69.4897Z" fill="#CCC5E4"/>
<path d="M74.9001 37.4911H74.3595V36.9505C74.3595 36.8521 74.3103 36.803 74.212 36.803C74.1137 36.803 74.0645 36.8521 74.0645 36.9505V37.4911H73.524C73.4256 37.4911 73.3765 37.5403 73.3765 37.6386C73.3765 37.7369 73.4256 37.786 73.524 37.786H74.0645V38.3267C74.0645 38.425 74.1137 38.4741 74.212 38.4741C74.3103 38.4741 74.3595 38.425 74.3595 38.3267V37.786H74.9001C74.9985 37.786 75.0476 37.7369 75.0476 37.6386C75.0476 37.5403 74.9985 37.4911 74.9001 37.4911Z" fill="#CCC5E4"/>
<path d="M31.7438 47.5672H31.2523V47.0757C31.2523 46.9774 31.2031 46.9282 31.1048 46.9282C31.0065 46.9282 30.9573 46.9774 30.9573 47.0757V47.5672H30.4659C30.3676 47.5672 30.3184 47.6164 30.3184 47.7147C30.3184 47.813 30.3676 47.8621 30.4659 47.8621H30.9573V48.3537C30.9573 48.452 31.0065 48.5011 31.1048 48.5011C31.2031 48.5011 31.2523 48.452 31.2523 48.3537V47.8621H31.7438C31.8421 47.8621 31.8913 47.813 31.8913 47.7147C31.8913 47.6655 31.8421 47.5672 31.7438 47.5672Z" fill="#CCC5E4"/>
<path d="M90.2842 60.0521H89.2029V58.9708C89.2029 58.8233 89.0554 58.6758 88.908 58.6758C88.7605 58.6758 88.6131 58.8233 88.6131 58.9708V60.0521H87.5317C87.3842 60.0521 87.2368 60.1995 87.2368 60.347C87.2368 60.4944 87.3842 60.6419 87.5317 60.6419H88.6131V61.7233C88.6131 61.8708 88.7605 62.0182 88.908 62.0182C89.0554 62.0182 89.2029 61.8708 89.2029 61.7233V60.6419H90.2842C90.4317 60.6419 90.5791 60.4944 90.5791 60.347C90.5791 60.1995 90.4317 60.0521 90.2842 60.0521Z" fill="#CCC5E4"/>
<path d="M27.7137 40.1456H27.3205V39.7524C27.3205 39.7033 27.2713 39.6541 27.2221 39.6541C27.173 39.6541 27.1238 39.7033 27.1238 39.7524V40.1456H26.7306C26.6815 40.1456 26.6323 40.1947 26.6323 40.2439C26.6323 40.293 26.6815 40.3422 26.7306 40.3422H27.1238V40.7354C27.1238 40.7846 27.173 40.8337 27.2221 40.8337C27.2713 40.8337 27.3205 40.7846 27.3205 40.7354V40.3913H27.7137C27.7628 40.3913 27.812 40.3422 27.812 40.293C27.812 40.1947 27.7628 40.1456 27.7137 40.1456Z" fill="#CCC5E4"/>
<path d="M37.691 73.5696C37.9082 73.5696 38.0843 73.3936 38.0843 73.1764C38.0843 72.9592 37.9082 72.7832 37.691 72.7832C37.474 72.7832 37.2979 72.9592 37.2979 73.1764C37.2979 73.3936 37.474 73.5696 37.691 73.5696Z" fill="#CCC5E4"/>
<path fill-rule="evenodd" clip-rule="evenodd" d="M25.7968 62.1205C25.6279 62.1205 25.4562 62.2921 25.4562 62.4611C25.4562 62.6301 25.6279 62.8018 25.7968 62.8018C25.9659 62.8018 26.1376 62.6301 26.1376 62.4611C26.1376 62.2921 25.9659 62.1205 25.7968 62.1205ZM24.4663 62.4611C24.4663 61.7454 25.0811 61.1306 25.7968 61.1306C26.5126 61.1306 27.1275 61.7454 27.1275 62.4611C27.1275 63.1768 26.5126 63.7917 25.7968 63.7917C25.0811 63.7917 24.4663 63.1768 24.4663 62.4611Z" fill="#CCC5E4"/>
<path fill-rule="evenodd" clip-rule="evenodd" d="M75.0469 58.3831C74.8887 58.3831 74.7537 58.5181 74.7537 58.6763C74.7537 58.8345 74.8887 58.9695 75.0469 58.9695C75.2052 58.9695 75.3402 58.8345 75.3402 58.6763C75.3402 58.5181 75.2052 58.3831 75.0469 58.3831ZM74.2588 58.6763C74.2588 58.2447 74.6153 57.8882 75.0469 57.8882C75.4785 57.8882 75.8351 58.2447 75.8351 58.6763C75.8351 59.1079 75.4785 59.4645 75.0469 59.4645C74.6153 59.4645 74.2588 59.1079 74.2588 58.6763Z" fill="#CCC5E4"/>
<path d="M43.4424 48.059C38.4289 54.9403 34.8899 63.4438 34.4475 63.4438C33.3661 63.3946 32.7764 50.2217 35.0865 44.864C37.1017 40.1455 41.1323 37.6879 42.7051 37.6387C43.8356 37.6387 43.4424 48.059 43.4424 48.059Z" fill="#007AFF"/>
<path d="M40.8865 38.2285C40.1 38.6709 39.1662 39.3099 38.2323 40.1947C38.2323 40.3421 37.6424 47.2234 39.6576 53.8099C40.739 51.9913 41.9187 50.0743 43.2458 48.2557L40.8865 38.2285Z" fill="#007AFF"/>
<path d="M60.1047 48.0587C65.1183 54.9401 68.6573 63.4434 69.0997 63.4434C70.181 63.3943 70.7708 50.2214 68.4607 44.8638C66.4455 40.1452 62.415 37.6875 60.842 37.6384C59.7116 37.6384 60.1047 48.0587 60.1047 48.0587Z" fill="#007AFF"/>
<path d="M58.8758 54.1051C59.0233 54.056 59.1707 53.9085 59.269 53.7119C60.8911 50.0255 61.8741 44.5204 61.8741 36.7543C61.8741 20.1407 52.8301 9.72046 51.7979 9.72046C50.7657 9.72046 41.7217 20.1407 41.7217 36.7543C41.7217 44.4712 42.7046 50.0255 44.3267 53.7119C44.425 53.9085 44.5233 54.056 44.72 54.1051C45.5064 54.4492 48.1115 55.383 51.8471 55.383C55.4843 55.383 58.0894 54.4492 58.8758 54.1051Z" fill="#333333"/>
<path d="M59.8104 52.7774C59.9579 52.7283 60.1053 52.5808 60.2036 52.4333C62.0223 49.1401 63.1037 44.2741 63.1037 37.3927C63.1037 22.647 52.8799 4.3623 51.7002 4.3623C50.5206 4.3623 40.2969 22.647 40.2969 37.3927C40.2969 44.2741 41.3782 49.1401 43.1969 52.4333C43.2952 52.5808 43.4427 52.7283 43.5901 52.7774C44.4748 53.0723 47.3748 53.9571 51.6511 53.9571C56.0257 53.9571 58.9748 53.0723 59.8104 52.7774Z" fill="#5A5A5A"/>
<path d="M61.3343 50.5659C63.4969 46.5354 64.8733 40.4405 64.8733 31.7896C64.8733 13.7016 53.1259 0.577881 51.7987 0.577881C50.4715 0.577881 38.7241 13.7016 38.7241 31.7896C38.7241 40.4405 40.0513 46.5354 42.2631 50.5659C42.2631 50.5659 45.9004 52.0896 51.8479 52.0896C57.6478 52.0896 61.3343 50.5659 61.3343 50.5659Z" fill="#1031BD"/>
<path d="M51.4544 29.2333C56.015 29.2333 59.712 25.4922 59.712 20.8773C59.712 16.2625 56.015 12.5215 51.4544 12.5215C46.8939 12.5215 43.1968 16.2625 43.1968 20.8773C43.1968 25.4922 46.8939 29.2333 51.4544 29.2333Z" fill="#CCC5E4"/>
<path d="M57.7952 20.8781C57.7952 24.4171 54.9443 27.3171 51.4545 27.3171C50.9629 27.3171 50.5206 27.2679 50.1273 27.1696C49.4392 27.0222 48.7511 26.7273 48.1613 26.3832C47.129 25.7442 46.2934 24.8595 45.8019 23.7781C45.3596 22.8933 45.1138 21.9594 45.1138 20.9273C45.1138 20.6815 45.1138 20.4849 45.163 20.2391C45.4579 17.2408 47.8172 14.8324 50.8155 14.5375C51.0613 14.5375 51.2579 14.4883 51.5036 14.4883C52.5358 14.4883 53.5189 14.7341 54.3545 15.1765C55.4358 15.7171 56.3205 16.5527 56.9104 17.5849C57.3036 18.1748 57.5494 18.8628 57.6968 19.551C57.746 19.9442 57.7952 20.3866 57.7952 20.8781Z" fill="#7762EF"/>
<path d="M51.4546 15.0781C48.3088 15.0781 45.7529 17.6831 45.7529 20.878C45.7529 24.0729 48.3088 26.6781 51.4546 26.6781C54.6004 26.6781 57.1564 24.0729 57.1564 20.878C57.1564 17.6831 54.6004 15.0781 51.4546 15.0781Z" fill="#B0D9EF"/>
<path d="M52.1421 38.6218C50.9624 38.6218 48.1116 45.8472 48.554 47.5675C48.554 47.5675 51.3065 60.5929 52.1421 60.5929C52.9778 60.5929 55.7303 47.5675 55.7303 47.5675C56.1727 45.7981 53.3218 38.6218 52.1421 38.6218Z" fill="#007AFF"/>
<path d="M58.2861 11.0476H55.9269L44.9658 30.7086H47.3251L58.2861 11.0476Z" fill="white"/>
<path d="M61.1374 11.0476H59.9086L48.8984 30.7086H50.1764L61.1374 11.0476Z" fill="white"/>
<path opacity="0.31" d="M51.749 0.577881C53.0762 0.577881 59.5643 13.7016 59.5643 31.7896C59.5643 40.2439 58.0897 47.7642 55.9762 51.8439C59.3677 51.4015 61.3338 50.5659 61.3338 50.5659C63.4965 46.5354 64.8727 40.4405 64.8727 31.7896C64.8236 13.7016 53.0762 0.577881 51.749 0.577881Z" fill="#1031BD"/>
</g>
</g>
</g>
<defs>
<clipPath id="clip0_65_1511">
<rect width="107" height="98" fill="white"/>
</clipPath>
<clipPath id="clip1_65_1511">
<rect width="107" height="98" fill="white"/>
</clipPath>
<clipPath id="clip2_65_1511">
<rect width="106.909" height="98" fill="white" transform="translate(0.0454102)"/>
</clipPath>
</defs>
</svg>
