<svg width="89" height="80" viewBox="0 0 89 80" fill="none" xmlns="http://www.w3.org/2000/svg">
<g clip-path="url(#clip0_65_1411)">
<g clip-path="url(#clip1_65_1411)">
<g clip-path="url(#clip2_65_1411)">
<path d="M1.57617 76.2471C1.57617 77.8458 21.0283 79.1781 44.957 79.1781C68.9389 79.1781 88.3377 77.8458 88.3377 76.2471C88.3377 74.6483 68.8857 73.3159 44.957 73.3159C21.0283 73.3159 1.57617 74.6483 1.57617 76.2471Z" fill="#CCC5E4"/>
<path d="M50.339 19.8094C54.0771 19.8094 57.1073 16.7792 57.1073 13.0412C57.1073 9.3032 54.0771 6.27295 50.339 6.27295C46.601 6.27295 43.5708 9.3032 43.5708 13.0412C43.5708 16.7792 46.601 19.8094 50.339 19.8094Z" fill="#CCC5E4"/>
<path d="M50.3392 24.8722C50.1261 24.8722 50.0195 24.7123 50.0195 24.5524V9.63031C50.0195 9.41713 50.1794 9.31055 50.3392 9.31055C50.5525 9.31055 50.659 9.47043 50.659 9.63031V24.4992C50.7123 24.7123 50.5525 24.8722 50.3392 24.8722Z" fill="white"/>
<path d="M50.3929 15.9723C50.2862 15.9723 50.233 15.919 50.1264 15.8658C50.0197 15.7591 50.0197 15.4927 50.1264 15.3861L54.0168 11.4957C54.1233 11.3891 54.3898 11.3891 54.4964 11.4957C54.603 11.6023 54.603 11.8687 54.4964 11.9753L50.606 15.8658C50.606 15.919 50.4994 15.9723 50.3929 15.9723Z" fill="white"/>
<path d="M50.3393 18.5837C50.2327 18.5837 50.1795 18.5304 50.0728 18.4771L46.1825 14.5867C46.0759 14.4801 46.0759 14.2137 46.1825 14.107C46.289 14.0005 46.5555 14.0005 46.6621 14.107L50.5525 17.9975C50.6591 18.1041 50.6591 18.3705 50.5525 18.4771C50.4992 18.5304 50.446 18.5837 50.3393 18.5837Z" fill="white"/>
<path d="M46.9289 29.1358H53.857L55.3492 20.9819H45.3833L46.9289 29.1358Z" fill="#59499D"/>
<path d="M50.6057 19.8093H50.0195V24.5524H50.6057V19.8093Z" fill="white"/>
<path d="M63.9293 16.1854C64.8354 16.2921 65.6348 15.7058 65.7413 14.7998L66.594 10.5897L63.0233 9.63037L62.5971 14.3202C62.4372 15.2794 63.0233 16.0788 63.9293 16.1854Z" fill="#FFB8BC"/>
<path d="M63.609 13.3076C65.3677 13.5208 66.9665 12.2418 67.1797 10.4831L67.606 6.59265C67.8192 4.83397 66.5402 3.23518 64.7815 3.022C63.0228 2.80883 61.424 4.08787 61.2108 5.84655L60.7845 9.73696C60.518 11.4956 61.8503 13.0944 63.609 13.3076Z" fill="#FFB8BC"/>
<path d="M61.8507 6.59265C62.0638 5.84655 64.6753 7.49864 64.9417 8.03157C65.2614 8.67109 65.2082 8.99085 64.8884 9.52378C64.5154 10.0568 63.5027 10.7495 62.5967 10.5364C60.9979 10.0568 61.5309 7.71181 61.8507 6.59265Z" fill="#08074F"/>
<path d="M38.1882 27.9634C39.041 27.164 40.3733 27.3772 41.5457 27.5903C42.2918 27.6969 43.0379 27.8035 43.8373 27.8568C43.8906 27.6969 43.8906 27.5903 43.9439 27.4304C58.7595 27.8035 58.2798 20.449 64.6217 16.6652C68.2989 14.4802 68.6721 17.9975 68.3523 20.2891C66.9134 30.3083 52.4175 33.346 43.3044 31.8538C43.3044 31.8005 43.3044 31.7472 43.3044 31.6939C42.1319 31.534 41.0128 31.4807 39.787 31.2676C39.2541 31.161 38.7212 31.0544 38.2948 30.7346C37.8685 30.4148 37.6553 29.8819 37.6553 29.4023C37.6553 28.7628 37.8152 28.2832 38.1882 27.9634Z" fill="#1031BD"/>
<path d="M64.996 31.8076L63.8042 32.0942L74.4326 76.2942L75.6244 76.0076L64.996 31.8076Z" fill="#08074F"/>
<path d="M18.792 31.7769L8.17725 75.9814L9.36916 76.2675L19.9839 32.0631L18.792 31.7769Z" fill="#08074F"/>
<path d="M8.7915 36.2408H74.9818V31.551H8.7915V36.2408Z" fill="#08074F"/>
<path d="M8.79053 36.2399H22.6468V31.55H8.79053V36.2399Z" fill="#59499D"/>
<path d="M78.4785 53.4909H69.2056L69.6852 48.055C69.7917 46.616 71.0707 45.4436 72.5098 45.4436H76.5067C77.1995 45.4436 77.8924 45.7101 78.372 46.243C78.8516 46.7759 79.0648 47.4155 79.0115 48.1615L78.4785 53.4909ZM70.4846 52.2651H77.3594L77.7325 48.055C77.7857 47.6819 77.6791 47.3089 77.4127 47.0424C77.1995 46.776 76.8265 46.616 76.4535 46.616H72.4564C71.657 46.616 70.9109 47.3089 70.8576 48.1083L70.4846 52.2651Z" fill="#59499D"/>
<path d="M37.1671 66.6858L33.8633 66.7403L33.9908 74.467L37.2946 74.4125L37.1671 66.6858Z" fill="#FFB8BC"/>
<path d="M37.4429 73.7422C36.2704 73.6356 33.3393 73.7955 33.3393 73.7955C33.3393 73.7955 29.8219 75.0745 29.289 76.1937C28.9692 76.8865 30.0351 77.3129 30.6746 77.2596L37.7626 76.3003L37.4429 73.7422Z" fill="#08074F"/>
<path d="M37.443 73.7423C37.443 73.7423 34.7783 74.7549 33.3394 73.7956C33.3927 73.7956 33.9256 73.5824 33.9789 73.5291C33.9789 73.5291 36.0573 72.2501 37.2297 72.3566C37.2297 72.41 37.443 73.7423 37.443 73.7423Z" fill="#FFB8BC"/>
<path d="M32.7528 72.0369C32.2731 62.6573 32.6461 55.0897 34.8312 51.146C38.0288 45.3903 48.7408 41.5532 62.4905 41.7131C62.5437 45.1238 62.7569 48.5346 62.9168 51.892C45.3833 51.9986 37.9755 49.0142 38.3486 72.0369C36.8563 72.0369 34.2983 72.0369 32.7528 72.0369Z" fill="#08074F"/>
<path d="M58.0674 51.8387C58.0674 51.8387 66.7009 54.0237 69.8453 52.8513C72.7763 51.7321 75.068 48.5878 74.9614 42.7788C74.8547 38.6753 58.0674 42.2992 58.0674 42.2992V51.8387Z" fill="#08074F"/>
<path d="M28.702 54.8596L26.3281 62.2131L29.4723 63.2282L31.8462 55.8747L28.702 54.8596Z" fill="#FFB8BC"/>
<path d="M29.8219 62.6572C28.756 62.1776 25.9314 61.3782 25.9314 61.3782C25.9314 61.3782 22.201 61.4847 21.3482 62.3375C20.8153 62.8704 21.7213 63.6165 22.3075 63.7764L29.289 65.162L29.8219 62.6572Z" fill="#08074F"/>
<path d="M29.8225 62.6574C29.8225 62.6574 26.998 62.7639 25.9321 61.3783C25.9855 61.3783 26.5716 61.325 26.5716 61.325C26.5716 61.325 28.9699 60.7921 30.0357 61.2717C30.089 61.2717 29.8225 62.6574 29.8225 62.6574Z" fill="#FFB8BC"/>
<path d="M25.9849 59.513C28.5962 50.4531 31.3675 43.4185 34.725 40.3807C39.5747 35.9573 50.2334 38.0358 62.5974 42.9921C61.8513 44.9639 61.1585 49.4939 60.9986 50.1867C44.3178 44.5909 38.2957 39.3682 31.2609 61.2717C29.8753 60.7921 27.4238 59.9927 25.9849 59.513Z" fill="#08074F"/>
<path d="M40.8537 52.9046C39.5214 51.6788 38.1357 50.5063 36.6968 49.3871L37.0166 48.9609C41.7064 43.6315 50.4465 41.6064 62.4908 41.713C62.5441 45.1237 62.7572 48.5345 62.9171 51.8919C52.9513 51.9453 46.2896 51.0393 42.3992 54.3967C41.9195 53.8638 41.3866 53.3842 40.8537 52.9046Z" fill="#08074F"/>
<path d="M75.0679 39.1548C74.6949 30.0416 74.3219 24.7123 74.2685 23.6465C73.7889 16.1854 70.2183 14.3734 66.3278 14.1602C61.7979 13.8938 56.362 13.7872 56.1488 19.8627L55.829 24.9255C55.456 25.0854 55.1362 25.2985 54.8697 25.6183C54.2302 26.3644 54.0171 27.5368 54.3901 28.4429C54.6032 28.9757 54.9763 29.4021 55.456 29.7752L54.6566 41.7129C54.6566 41.7129 59.0266 43.2051 62.4906 43.365C66.4877 43.5781 75.1745 42.2991 75.1745 42.2991C75.1745 42.2991 75.2278 42.0326 75.0679 39.1548Z" fill="#007AFF"/>
<path d="M59.879 53.4907H50.606L51.0857 48.0547C51.1922 46.6158 52.4712 45.4434 53.9102 45.4434H57.9072C58.5999 45.4434 59.2928 45.7098 59.7725 46.2428C60.2521 46.7757 60.4652 47.4152 60.412 48.1613L59.879 53.4907ZM51.9383 52.2649H58.8132L59.1862 48.0547C59.2395 47.6817 59.1329 47.3086 58.8664 47.0422C58.6533 46.7757 58.2802 46.6158 57.9072 46.6158H53.9102C53.1107 46.6158 52.3647 47.3086 52.3113 48.108L51.9383 52.2649Z" fill="#08074F"/>
<path d="M60.8387 44.6972H77.253L79.1183 23.3267H62.7039C61.4782 23.3267 60.4123 23.3267 60.4123 23.3267L58.4404 44.6972C58.4404 44.6972 59.613 44.6972 60.8387 44.6972Z" fill="#59499D"/>
<path d="M59.6665 55.8888H78.3724L78.7454 51.7319H60.0395L59.6665 55.8888Z" fill="#08074F"/>
<path d="M50.3398 55.8888H59.6662L60.0392 51.7319H50.7129L50.3398 55.8888Z" fill="#59499D"/>
<path d="M60.9976 74.6481C60.8911 75.5541 61.5839 76.3003 62.5432 76.3003C63.4492 76.3003 64.3018 75.5541 64.3552 74.6481C64.4617 73.7422 63.7689 72.9961 62.8096 72.9961C61.9036 72.9428 61.1042 73.6889 60.9976 74.6481Z" fill="#59499D"/>
<path d="M62.3722 70.9202L62.1299 73.6809L63.3509 73.788L63.5933 71.0273L62.3722 70.9202Z" fill="#59499D"/>
<path d="M63.8854 53.7788L62.3477 71.2988L63.5688 71.406L65.1065 53.886L63.8854 53.7788Z" fill="#08074F"/>
<path d="M69.0988 73.3159L67.9263 73.2093L68.0329 71.9303H57.8006L57.6939 73.3159L56.4683 73.2093L56.6814 70.7046H69.3653L69.0988 73.3159Z" fill="#08074F"/>
<path d="M66.8067 74.6481C66.7001 75.5541 67.3929 76.3003 68.3522 76.3003C69.3115 76.3003 70.1108 75.5541 70.1642 74.6481C70.2707 73.7422 69.5779 72.9961 68.6187 72.9961C67.7127 72.9428 66.86 73.6889 66.8067 74.6481Z" fill="#08074F"/>
<path d="M55.2955 74.6481C55.1889 75.5541 55.8817 76.3003 56.841 76.3003C57.7469 76.3003 58.5997 75.5541 58.6529 74.6481C58.7595 73.7422 58.0667 72.9961 57.1074 72.9961C56.2015 72.9428 55.3487 73.6889 55.2955 74.6481Z" fill="#08074F"/>
<path d="M60.6782 44.6972H79.3309L81.1961 23.3267H62.5435L60.6782 44.6972Z" fill="#08074F"/>
<path d="M70.1516 35.8286L68.6372 53.0831L69.8582 53.1903L71.3727 35.9358L70.1516 35.8286Z" fill="#08074F"/>
<path d="M41.3328 25.565H16.4448V7.65845H41.3328V25.565ZM17.4575 24.6057H40.3735V8.61773H17.4575V24.6057Z" fill="#59499D"/>
<path d="M41.8124 8.13818H17.937V25.0855H41.8124V8.13818Z" fill="#08074F"/>
<path d="M42.2923 25.565H17.4575V7.65845H42.3455V25.565H42.2923ZM18.4168 24.6057H41.333V8.61773H18.4168V24.6057Z" fill="#08074F"/>
<path d="M33.5522 25.5649H24.3857V29.3488H33.5522V25.5649Z" fill="#59499D"/>
<path d="M34.4047 25.5649H25.2383V29.3488H34.4047V25.5649Z" fill="#08074F"/>
<path d="M37.3361 29.3489H22.4673V31.5339H37.3361V29.3489Z" fill="#59499D"/>
<path d="M29.3955 28.8693C29.3955 28.3897 29.5554 27.8568 29.9284 27.537C30.7812 26.7376 32.1135 26.9508 33.286 27.164C36.3769 27.6969 39.5746 27.6437 42.559 26.7909C47.462 25.4586 51.5656 22.1544 55.4559 18.8502C55.829 18.5305 56.1488 18.2107 56.5752 17.9442C57.0548 17.6777 57.2147 17.9442 57.4278 18.4239C57.8009 19.3299 57.9075 20.3424 57.9607 21.3017C58.0141 21.8879 58.0141 22.5274 57.8009 23.0604C57.5345 23.7 57.0548 24.1262 56.5218 24.5526C52.8979 27.6969 38.2956 31.6406 35.5243 31.2676C34.192 31.1077 32.9662 31.0544 31.6338 30.788C31.1009 30.6813 30.568 30.5747 30.1417 30.255C29.6087 29.8819 29.3955 29.4023 29.3955 28.8693Z" fill="#FFB8BC"/>
<path d="M60.0922 19.8095C60.412 17.4645 61.6378 13.2543 57.9606 15.4926C51.6187 19.2765 50.4994 27.3771 35.6839 27.004C35.2042 28.7094 35.151 29.9884 35.0444 31.3741C44.1043 32.8663 58.6001 29.8285 60.0922 19.8095Z" fill="#007AFF"/>
<path d="M78.052 17.731C77.5191 16.1854 75.1209 15.3327 75.2808 13.5208C75.334 12.828 75.7604 12.295 76.0802 11.6555C76.3999 11.016 76.5064 10.3232 76.0268 9.73693C75.8137 9.47046 75.4939 9.204 75.1742 9.04412C74.6413 8.72436 74.1083 8.45789 73.5754 8.08484C72.243 7.12556 72.0831 5.42018 71.2837 4.08784C69.5783 1.10342 66.1676 -1.02832 62.7035 0.517191C60.252 1.63635 58.4401 5.2603 61.4245 6.85909C62.7035 7.5519 63.1299 8.61777 63.343 9.95012C63.7161 12.0819 63.7161 14.3202 64.5688 16.292C66.4873 20.662 71.4436 21.0884 75.6005 20.0759C76.1867 19.916 76.7197 19.7561 77.1993 19.4363C78.1053 18.8501 78.2118 18.2639 78.052 17.731Z" fill="#08074F"/>
</g>
</g>
</g>
<rect x="1" y="0.5" width="87" height="79" stroke="black"/>
<defs>
<clipPath id="clip0_65_1411">
<rect x="0.5" width="88" height="80" fill="white"/>
</clipPath>
<clipPath id="clip1_65_1411">
<rect width="88" height="80" fill="white" transform="translate(0.5)"/>
</clipPath>
<clipPath id="clip2_65_1411">
<rect width="86.9136" height="80" fill="white" transform="translate(1.5)"/>
</clipPath>
</defs>
</svg>
