<svg width="87" height="96" viewBox="0 0 87 96" fill="none" xmlns="http://www.w3.org/2000/svg">
<g clip-path="url(#clip0_65_1583)">
<path d="M43.5 95.4128C67.3517 95.4128 86.6875 94.1063 86.6875 92.4947C86.6875 90.8831 67.3517 89.5767 43.5 89.5767C19.6482 89.5767 0.3125 90.8831 0.3125 92.4947C0.3125 94.1063 19.6482 95.4128 43.5 95.4128Z" fill="#CCC5E4"/>
<path d="M36.6642 31.1692L35.4785 31.458L50.3853 92.6468L51.5709 92.3579L36.6642 31.1692Z" fill="#08074F"/>
<path d="M25.169 31.1609L10.2622 92.3497L11.4478 92.6386L26.3545 31.4498L25.169 31.1609Z" fill="#08074F"/>
<path d="M8.67334 64.9147H53.1872V10.7446H8.67334V64.9147Z" fill="#08074F"/>
<path d="M49.4419 14.5552H12.4619V59.8118H49.4419V14.5552Z" fill="#D0C6E5"/>
<path d="M10.499 59.8118H47.479L49.442 14.5552H12.4622L10.499 59.8118Z" fill="#F4F6F8"/>
<path d="M35.7011 18.0569H25.8857V18.6405H35.7011V18.0569Z" fill="#D0C6E5"/>
<path d="M35.5947 20.1792H25.7793V20.7628H35.5947V20.1792Z" fill="#D0C6E5"/>
<path d="M16.6538 49.9966H21.4819L21.8533 41.0833H17.0252L16.6538 49.9966Z" fill="#1031BD"/>
<path d="M23.5513 49.9965H28.3794L29.0161 35.8306H24.1349L23.5513 49.9965Z" fill="#1031BD"/>
<path d="M30.395 49.9966H35.2762L36.3373 26.1746H31.4561L30.395 49.9966Z" fill="#1031BD"/>
<path d="M38.1413 30.4719L37.2925 49.9965H42.1736L43.0225 30.4719H38.1413Z" fill="#1031BD"/>
<path d="M40.4755 52.6494H18.2451V53.233H40.4755V52.6494Z" fill="#D0C6E5"/>
<path d="M37.4514 27.1304C37.7166 26.4408 38.1941 25.9633 38.9369 25.8041C40.3694 25.4857 44.4017 28.3507 45.9934 28.563C47.7972 28.8282 49.5481 28.2977 50.9806 27.1835C54.0579 24.6899 55.6495 20.4985 57.1882 16.9968C57.6656 15.9888 60.3715 17.4212 61.0613 18.0048C61.7509 18.5885 62.5999 19.066 62.0693 20.3924C60.4776 24.3715 58.3023 28.563 54.5884 30.9505C51.352 33.0196 47.4789 33.0196 43.9242 31.8525C42.9161 31.5341 41.9611 31.1627 41.0061 30.6852C40.2633 30.3138 39.5206 29.9955 38.7777 29.6241C37.7697 29.0936 36.9738 28.2977 37.4514 27.1304Z" fill="#C48181"/>
<path d="M63.396 17.4742C63.5021 15.1927 60.5841 13.4949 58.3026 15.1397C54.3765 18.0047 54.1643 32.0115 43.447 27.5017C42.8104 28.9872 42.2798 30.5789 41.8022 31.8523C55.4907 38.0068 62.9715 27.2364 63.396 17.4742Z" fill="#08074F"/>
<path d="M76.5298 80.9119L73.291 81.4878L74.6752 89.2714L77.914 88.6954L76.5298 80.9119Z" fill="#C48181"/>
<path d="M77.9329 88.0901C76.7656 88.1432 73.9006 88.6738 73.9006 88.6738C73.9006 88.6738 70.6111 90.4246 70.2398 91.5918C69.9745 92.3346 71.1417 92.5998 71.7253 92.4407L78.5696 90.4776L77.9329 88.0901Z" fill="#08074F"/>
<path d="M77.9331 88.09C77.9331 88.09 75.4926 89.4696 73.9009 88.6737C73.954 88.6737 74.4314 88.3554 74.4845 88.3554C74.4845 88.3554 76.3414 86.8167 77.5617 86.7637L77.9331 88.09Z" fill="#C48181"/>
<path d="M73.1053 87.3474C70.1342 72.704 66.155 52.2775 65.7837 37.7402C69.1793 37.4218 72.5748 37.3157 75.9704 36.9443C76.4479 52.5427 76.4479 71.1653 78.464 86.4984C78.464 86.4455 74.3787 87.1882 73.1053 87.3474Z" fill="#08074F"/>
<path d="M61.4744 81.603L58.1968 81.8837L58.8533 89.5491L62.131 89.2684L61.4744 81.603Z" fill="#C48181"/>
<path d="M62.2284 88.5684C61.0612 88.5684 58.1432 88.8867 58.1432 88.8867C58.1432 88.8867 54.7476 90.4253 54.3231 91.5394C54.0047 92.2292 55.172 92.6005 55.7556 92.4944L62.7059 91.0619L62.2284 88.5684Z" fill="#08074F"/>
<path d="M62.2289 88.5683C62.2289 88.5683 59.6822 89.7886 58.1436 88.8866C58.1966 88.8866 58.7271 88.6214 58.7271 88.6214C58.7271 88.6214 60.6903 87.2419 61.9106 87.2419L62.2289 88.5683Z" fill="#C48181"/>
<path d="M57.507 86.7644C55.4378 73.7657 54.8012 49.3069 57.2417 36.4143C60.3189 36.7857 64.3512 36.9449 67.4284 37.2102C64.9879 49.9967 61.6984 73.8187 62.8656 86.499C61.0617 86.6582 59.3108 86.7113 57.507 86.7644Z" fill="#08074F"/>
<path d="M75.4394 19.0651C75.2272 13.0167 68.3829 12.8045 63.8732 13.0698C59.9471 13.2819 55.9679 15.192 56.127 19.7548C56.127 19.7548 55.5434 28.9334 55.1721 38.0061C55.0659 40.9241 55.0659 41.1363 55.0659 41.1363C55.0659 41.1363 59.6288 42.728 76.6597 40.871L75.4394 19.0651Z" fill="#08074F"/>
<path d="M64.6158 14.661C63.82 14.661 63.1302 14.0243 63.1302 13.2285L63.0771 9.88591L66.1544 8.93091L65.9953 13.1754C66.1014 13.9712 65.4116 14.661 64.6158 14.661Z" fill="#C48181"/>
<path d="M65.3057 8.82495L63.1304 9.03717V12.9633C64.8282 13.0163 66.1014 11.3185 66.1545 9.99218C66.2076 9.72689 65.3057 8.82495 65.3057 8.82495Z" fill="#8D5B5B"/>
<path d="M64.7218 6.54351L62.5996 5.90684C62.0691 5.74767 61.4854 6.06601 61.3263 6.59656C61.1671 7.12712 61.4854 7.71073 62.016 7.8699L64.2444 8.50658L64.7218 6.54351Z" fill="#8D5B5B"/>
<path d="M65.0933 8.55975L67.2155 9.19642C67.7461 9.35559 68.3297 9.03725 68.4888 8.5067C68.648 7.97613 68.3297 7.39252 67.7992 7.23335L65.5708 6.59668L65.0933 8.55975Z" fill="#C48181"/>
<path d="M63.2895 11.5308C61.7508 11.1064 60.8489 9.46166 61.3263 7.92305L62.3344 4.52746C62.7589 2.98884 64.4036 2.08689 65.9423 2.5644C67.4809 2.98884 68.3828 4.63357 67.9053 6.1722L66.8972 9.56778C66.4728 11.0533 64.8281 11.9553 63.2895 11.5308Z" fill="#C48181"/>
<path d="M66.738 8.2944C67.2154 8.93108 67.852 7.28634 67.9051 6.96801C68.2766 5.74773 68.1174 4.26216 67.3215 3.2541C66.6849 2.45826 64.2973 -0.300647 62.2812 1.18492C61.0079 2.13992 61.0078 4.31521 62.1751 5.05799C63.1301 5.6416 65.0402 5.53549 65.8359 6.38439C66.3665 6.96801 66.2604 7.71079 66.738 8.2944Z" fill="#08074F"/>
<path d="M74.007 46.8141C73.7949 46.8141 73.6357 46.761 73.4234 46.655C72.5215 46.1244 72.044 45.2224 72.4684 44.1613C75.864 35.8316 72.8928 27.3426 68.7545 19.8087C68.224 18.8537 71.089 17.6865 71.8848 17.3151C72.7337 16.9437 73.901 17.0499 74.4315 18.0049C79.3657 26.5999 79.7371 36.6805 75.864 45.753C75.5987 46.4958 74.856 46.8141 74.007 46.8141Z" fill="#C48181"/>
<path d="M72.8926 14.7682C72.0969 14.1846 67.9584 16.0416 67.8524 17.2089C67.6401 19.1719 74.6966 27.9792 73.5824 40.6064L77.7207 41.7206C81.5408 29.4117 76.2352 17.368 72.8926 14.7682Z" fill="#08074F"/>
<path d="M67.3751 14.6614H62.1226V13.2819L63.1307 12.5392L64.457 14.1839L66.1018 12.3269L67.3751 13.0697V14.6614Z" fill="#08074F"/>
<path d="M65.465 15.3513L64.9344 14.7146C64.5631 14.7146 64.2979 14.7146 63.9795 14.7677L63.502 15.3513C63.6612 15.8288 63.7673 16.1471 63.8733 16.5716C63.7142 22.6199 63.1837 28.6683 62.2817 34.6106C62.6001 36.1492 62.9183 37.7408 63.2367 39.2794C63.9264 37.847 64.5631 36.3614 65.2528 34.8759C65.5711 28.7214 65.5711 22.6199 65.1998 16.5186C65.2528 16.2002 65.359 15.7757 65.465 15.3513Z" fill="white"/>
<path d="M24.6111 81.0337C25.407 80.0256 25.7783 78.6993 25.46 77.4259C25.3539 77.0015 25.3008 76.524 25.3008 76.0465C25.3539 74.9854 25.7253 73.9773 26.3089 73.2345C26.8925 72.4917 27.1048 71.5898 27.1048 70.6348C27.1048 70.5817 27.1048 70.4756 27.1048 70.4225C27.2108 68.6716 28.7495 67.2392 30.5534 67.2922C32.3573 67.3453 33.7898 68.8839 33.7367 70.6878C33.7367 70.7409 33.7367 70.7939 33.7367 70.9C33.6306 71.802 33.8959 72.757 34.4265 73.4997C34.957 74.2956 35.2753 75.3037 35.2223 76.3648C35.2223 76.8423 35.1162 77.3198 35.0101 77.7443C34.5856 79.0176 34.9039 80.344 35.6468 81.4051C36.6548 82.8376 37.1323 84.6415 36.7609 86.5515C36.2304 89.4696 33.8428 91.7511 30.8717 92.1224C26.6272 92.5999 23.0725 89.2574 23.1786 85.119C23.1786 83.5274 23.7092 82.1479 24.6111 81.0337Z" fill="#CCC5E4"/>
<path d="M30.394 90.0003C30.1818 90.0003 30.0757 89.8411 30.0757 89.682V75.5161C30.0757 75.3038 30.2349 75.1978 30.394 75.1978C30.6062 75.1978 30.7124 75.3569 30.7124 75.5161V89.682C30.7124 89.8411 30.5532 90.0003 30.394 90.0003Z" fill="white"/>
<path d="M30.288 84.1641C30.1819 84.1641 30.1288 84.111 30.0228 84.0579L27.6353 81.6704C27.5291 81.5643 27.5291 81.299 27.6353 81.1928C27.7414 81.0868 28.0066 81.0868 28.1127 81.1928L30.5003 83.5804C30.6063 83.6866 30.6063 83.9518 30.5003 84.0579C30.4472 84.111 30.3942 84.1641 30.288 84.1641Z" fill="white"/>
<path d="M30.3946 86.3925C30.2885 86.3925 30.2354 86.3394 30.1294 86.2864C30.0233 86.1802 30.0233 85.915 30.1294 85.8089L32.5169 83.4214C32.623 83.3153 32.8883 83.3153 32.9944 83.4214C33.1005 83.5275 33.1005 83.7928 32.9944 83.8989L30.6069 86.2864C30.5538 86.3925 30.4477 86.3925 30.3946 86.3925Z" fill="white"/>
<path d="M30.3413 79.6012C30.2351 79.6012 30.1822 79.5482 30.076 79.4952L27.6885 77.1076C27.5823 77.0015 27.5823 76.7362 27.6885 76.6301C27.7946 76.524 28.0599 76.524 28.166 76.6301L30.5535 79.0177C30.6597 79.1237 30.6597 79.389 30.5535 79.4952C30.5005 79.6012 30.4474 79.6012 30.3413 79.6012Z" fill="white"/>
<path d="M30.3946 81.8827C30.2885 81.8827 30.2354 81.8298 30.1294 81.7767C30.0233 81.6706 30.0233 81.4052 30.1294 81.2991L32.5169 78.9116C32.623 78.8055 32.8883 78.8055 32.9944 78.9116C33.1005 79.0178 33.1005 79.283 32.9944 79.3891L30.6069 81.7767C30.6069 81.8298 30.5008 81.8827 30.3946 81.8827Z" fill="white"/>
<path d="M25.1422 92.4941H34.7983L36.9206 86.7639H23.02L25.1422 92.4941Z" fill="#08074F"/>
</g>
<defs>
<clipPath id="clip0_65_1583">
<rect width="87" height="95.8977" fill="white" transform="translate(0 0.0510254)"/>
</clipPath>
</defs>
</svg>
