<svg width="20" height="20" viewBox="0 0 20 20" fill="none" xmlns="http://www.w3.org/2000/svg">
<path fill-rule="evenodd" clip-rule="evenodd" d="M9.99998 0C12.7158 0 13.0564 0.0115117 14.1229 0.0601778C15.1874 0.108765 15.9143 0.277786 16.5504 0.525007C17.208 0.780564 17.7656 1.1225 18.3216 1.67843C18.8775 2.23436 19.2194 2.79203 19.475 3.44962C19.7222 4.08573 19.8912 4.81263 19.9398 5.87705C19.9885 6.94362 20 7.28416 20 10C20 12.7159 19.9885 13.0564 19.9398 14.123C19.8912 15.1874 19.7222 15.9143 19.475 16.5504C19.2194 17.208 18.8775 17.7657 18.3216 18.3216C17.7656 18.8775 17.208 19.2195 16.5504 19.475C15.9143 19.7223 15.1874 19.8913 14.1229 19.9399C13.0564 19.9885 12.7158 20 9.99998 20C7.28412 20 6.94362 19.9885 5.87701 19.9399C4.81259 19.8913 4.08569 19.7223 3.44958 19.475C2.79199 19.2195 2.23432 18.8775 1.67839 18.3216C1.12246 17.7657 0.780524 17.208 0.524967 16.5504C0.277746 15.9143 0.108725 15.1874 0.060138 14.123C0.0114718 13.0564 0 12.7159 0 10C0 7.28416 0.0114718 6.94362 0.060138 5.87705C0.108725 4.81263 0.277746 4.08573 0.524967 3.44962C0.780524 2.79203 1.12246 2.23436 1.67839 1.67843C2.23432 1.1225 2.79199 0.780564 3.44958 0.525007C4.08569 0.277786 4.81259 0.108765 5.87701 0.0601778C6.94362 0.0115117 7.28412 0 9.99998 0ZM9.99998 1.80184C7.32985 1.80184 7.0136 1.812 5.9591 1.86011C4.98415 1.90461 4.45466 2.06752 4.10229 2.20443C3.63551 2.38583 3.30235 2.60257 2.95244 2.95248C2.60253 3.30239 2.38579 3.63555 2.20443 4.10229C2.06748 4.4547 1.90457 4.98419 1.86007 5.95918C1.81196 7.01364 1.8018 7.32989 1.8018 10C1.8018 12.6701 1.81196 12.9864 1.86007 14.0409C1.90457 15.0158 2.06748 15.5453 2.20443 15.8978C2.38579 16.3645 2.60253 16.6976 2.95244 17.0476C3.30235 17.3975 3.63551 17.6142 4.10229 17.7956C4.45466 17.9325 4.98415 18.0954 5.95914 18.1399C7.01344 18.188 7.32969 18.1982 9.99998 18.1982C12.6703 18.1982 12.9865 18.188 14.0408 18.1399C15.0158 18.0954 15.5453 17.9325 15.8977 17.7956C16.3644 17.6142 16.6976 17.3975 17.0475 17.0476C17.3974 16.6976 17.6142 16.3645 17.7955 15.8978C17.9325 15.5453 18.0954 15.0158 18.1399 14.0409C18.188 12.9864 18.1982 12.6701 18.1982 10C18.1982 7.32989 18.188 7.01364 18.1399 5.95914C18.0954 4.98419 17.9325 4.4547 17.7955 4.10229C17.6142 3.63555 17.3974 3.30239 17.0475 2.95248C16.6976 2.60257 16.3644 2.38583 15.8977 2.20443C15.5453 2.06752 15.0158 1.90461 14.0408 1.86011C12.9864 1.812 12.6701 1.80184 9.99998 1.80184ZM10.0198 4.88095C12.858 4.88095 15.1587 7.18172 15.1587 10.0198C15.1587 12.858 12.858 15.1587 10.0198 15.1587C7.18172 15.1587 4.88095 12.858 4.88095 10.0198C4.88095 7.18172 7.18172 4.88095 10.0198 4.88095ZM10.0198 13.3556C11.8621 13.3556 13.3556 11.8621 13.3556 10.0198C13.3556 8.17756 11.8621 6.68406 10.0198 6.68406C8.17756 6.68406 6.68406 8.17756 6.68406 10.0198C6.68406 11.8621 8.17756 13.3556 10.0198 13.3556ZM16.5079 4.64284C16.5079 5.30033 15.975 5.83333 15.3175 5.83333C14.66 5.83333 14.127 5.30033 14.127 4.64284C14.127 3.98535 14.66 3.45238 15.3175 3.45238C15.975 3.45238 16.5079 3.98535 16.5079 4.64284Z" fill="#001777" fill-opacity="0.84"/>
</svg>
