<svg width="19" height="19" viewBox="0 0 19 19" fill="none" xmlns="http://www.w3.org/2000/svg">
<path fill-rule="evenodd" clip-rule="evenodd" d="M0.458608 5.8301H4.00239V18.1807H0.458608V5.8301ZM2.14017 4.28527H2.11451C0.831694 4.28527 0 3.34113 0 2.14554C0 0.925506 0.856282 0 2.16476 0C3.47216 0 4.27606 0.923177 4.30172 2.14205C4.30172 3.33764 3.47216 4.28527 2.14017 4.28527ZM18.1818 18.1818H14.1634V11.7894C14.1634 10.1165 13.5348 8.97566 12.1526 8.97566C11.0953 8.97566 10.5074 9.74517 10.2337 10.4891C10.1311 10.7545 10.1471 11.1259 10.1471 11.4984V18.1818H6.16608C6.16608 18.1818 6.2174 6.85922 6.16608 5.8301H10.1471V7.76843C10.3823 6.92092 11.6544 5.71136 13.6845 5.71136C16.2031 5.71136 18.1818 7.48903 18.1818 11.3133V18.1818Z" fill="#001777" fill-opacity="0.84"/>
</svg>
