<svg width="36" height="34" viewBox="0 0 36 34" fill="none" stroke="currentColor" xmlns="http://www.w3.org/2000/svg">
<path d="M11.0357 3C13.2773 3 15.1075 4.62943 15.2096 6.67543L15.2143 6.85714V10.884L20.2332 7.45371C20.5378 7.24543 20.9454 7.23171 21.263 7.40743L21.3661 7.47343L26.3571 11.16V8.14286H28.2143V12.5314L30.6518 14.3306L29.4911 15.6694L28.2143 14.7257L28.2134 18.4286H30.0714C30.5478 18.4286 30.9406 18.7594 30.9935 19.1854L31 19.2857V26.1429C31 26.5826 30.6416 26.9451 30.1801 26.994L30.0714 27H5V25.2857H12.0061L13.6311 23.5714H5V21.8571H15.2143V21.9017L16.8811 20.1429H5V18.4286H6.85714V6.85714C6.85714 4.72714 8.72821 3 11.0357 3ZM22.4525 20.1429H19.3492L14.4742 25.2857H17.5775L22.4525 20.1429ZM29.1429 21.5657L25.6171 25.2857H29.1429V21.5657ZM28.0239 20.1429H24.9206L20.0456 25.2857H23.1489L28.0239 20.1429ZM26.3571 13.3543L20.7634 9.22371L15.2143 13.0174V18.4286H17.9991L18 15C18 14.5603 18.3584 14.1977 18.8199 14.1489L18.9286 14.1429H22.6429C23.1192 14.1429 23.512 14.4737 23.5649 14.8997L23.5714 15L23.5705 18.4286H26.3562L26.3571 13.3543ZM11.0357 4.71429C9.80536 4.71429 8.79786 5.59886 8.71893 6.71657L8.71429 6.85714V18.4286H13.3571V6.85714C13.3571 5.67343 12.3181 4.71429 11.0357 4.71429ZM21.7143 15.8571H19.8571V18.4286H21.7143V15.8571Z" fill="#6A6A6A"/>
</svg>
