<svg width="28" height="28" viewBox="0 0 28 28" fill="none" stroke="currentColor" xmlns="http://www.w3.org/2000/svg">
<g clip-path="url(#clip0_122_1061)">
<path d="M3.40517 9.64087V9.62512C3.40515 8.06947 3.84942 6.54866 4.68193 5.25457C5.51444 3.96048 6.6979 2.95108 8.08299 2.35373C9.46807 1.75637 10.9927 1.59782 12.4646 1.89808C13.9365 2.19834 15.2897 2.94396 16.3534 4.04087C17.1903 3.61249 18.1251 3.43237 19.0546 3.52043C19.984 3.60848 20.8719 3.96128 21.6201 4.53983C22.3683 5.11839 22.9478 5.90018 23.2944 6.79884C23.641 7.6975 23.7414 8.67803 23.5843 9.63212C23.8152 9.65434 24.0392 9.72568 24.2424 9.84169C24.4455 9.9577 24.6234 10.1159 24.765 10.3064C24.9065 10.4968 25.0087 10.7155 25.0651 10.9488C25.1216 11.1821 25.131 11.4249 25.0929 11.6621C24.3302 16.4204 22.4435 19.4321 19.4364 20.6991V21.8751C19.4364 22.5713 19.1697 23.239 18.695 23.7313C18.2203 24.2236 17.5765 24.5001 16.9052 24.5001H10.1552C9.48384 24.5001 8.84001 24.2236 8.36531 23.7313C7.89061 23.239 7.62392 22.5713 7.62392 21.8751V20.6991C4.6168 19.4321 2.73017 16.4204 1.96742 11.6621C1.93061 11.4312 1.93884 11.195 1.99163 10.9674C2.04441 10.7398 2.14068 10.5256 2.27474 10.3373C2.40879 10.149 2.57791 9.99047 2.77208 9.87115C2.96625 9.75183 3.18153 9.67412 3.40517 9.64262V9.64087ZM5.09267 9.62512H6.78017C6.78017 8.46479 7.22465 7.352 8.01581 6.53152C8.80698 5.71105 9.88004 5.25012 10.9989 5.25012C12.1178 5.25012 13.1909 5.71105 13.982 6.53152C14.7732 7.352 15.2177 8.46479 15.2177 9.62512H16.9052C16.9052 8.00067 16.2829 6.44275 15.1753 5.29409C14.0676 4.14543 12.5654 3.50012 10.9989 3.50012C9.43249 3.50012 7.93021 4.14543 6.82257 5.29409C5.71494 6.44275 5.09267 8.00067 5.09267 9.62512ZM8.46767 9.62512H13.5302C13.5302 8.92892 13.2635 8.26124 12.7888 7.76896C12.3141 7.27668 11.6702 7.00012 10.9989 7.00012C10.3276 7.00012 9.68376 7.27668 9.20906 7.76896C8.73436 8.26124 8.46767 8.92892 8.46767 9.62512ZM20.054 9.62512H21.8614C21.9888 9.10794 22.0006 8.56743 21.8961 8.04478C21.7915 7.52212 21.5733 7.03111 21.2581 6.60916C20.9428 6.18721 20.5389 5.84546 20.0769 5.60994C19.615 5.37442 19.1074 5.25135 18.5927 5.25012C18.1877 5.25012 17.8029 5.32362 17.4452 5.45837C17.7439 5.95537 17.9902 6.49087 18.1792 7.05262C18.5006 6.96995 18.8384 6.98697 19.1506 7.10157C19.4627 7.21617 19.7356 7.42331 19.9352 7.69728C20.1349 7.97125 20.2526 8.29999 20.2737 8.6427C20.2948 8.98541 20.2185 9.32702 20.054 9.62512ZM17.7489 21.0001H9.31142V21.8751C9.31142 22.1072 9.40032 22.3297 9.55855 22.4938C9.71678 22.6579 9.93139 22.7501 10.1552 22.7501H16.9052C17.1289 22.7501 17.3436 22.6579 17.5018 22.4938C17.66 22.3297 17.7489 22.1072 17.7489 21.8751V21.0001ZM8.71742 19.2501H18.3429C21.0193 18.3576 22.7135 15.8341 23.429 11.3751H3.6313C4.3468 15.8341 6.04105 18.3576 8.71742 19.2501Z" fill="#6A6A6A" stroke="#6A6A6A" stroke-width="0.00064"/>
</g>
<defs>
<clipPath id="clip0_122_1061">
<rect width="27" height="28" fill="white" transform="translate(0.0302734)"/>
</clipPath>
</defs>
</svg>
