<svg width="20" height="18" viewBox="0 0 20 18" fill="none" stroke="currentColor" xmlns="http://www.w3.org/2000/svg">
<path d="M18.8724 6.5738L16.7755 1.26378C16.6431 0.898498 16.3922 0.580608 16.0572 0.354178C15.7224 0.127748 15.3202 0.00397189 14.9066 0H5.10586C4.69765 0.000849603 4.29956 0.118424 3.96533 0.336825C3.6311 0.555226 3.37684 0.863951 3.23689 1.2213L1.14 6.53132C0.803501 6.6814 0.518597 6.91594 0.317284 7.20856C0.115959 7.50125 0.00621442 7.84046 0.000379588 8.18805V12.9671C-0.00616181 13.2777 0.071936 13.5848 0.227402 13.8598C0.382857 14.1346 0.610575 14.3683 0.88928 14.5388V14.6026V16.7266C0.88928 17.0082 1.00935 17.2784 1.22306 17.4775C1.43679 17.6766 1.72665 17.7886 2.0289 17.7886H3.16851C3.47076 17.7886 3.76062 17.6766 3.97434 17.4775C4.18806 17.2784 4.30813 17.0082 4.30813 16.7266V14.8681H15.7043V16.7266C15.7043 17.0082 15.8244 17.2784 16.0381 17.4775C16.2518 17.6766 16.5417 17.7886 16.8439 17.7886H17.9835C18.2857 17.7886 18.5757 17.6766 18.7893 17.4775C19.003 17.2784 19.1231 17.0082 19.1231 16.7266V14.6026C19.1231 14.6026 19.1231 14.6026 19.1231 14.5388C19.3911 14.3698 19.6103 14.1418 19.7613 13.8751C19.9123 13.6084 19.9906 13.3112 19.9892 13.0095V8.23053C19.9855 7.88517 19.8792 7.54756 19.682 7.25508C19.4848 6.96267 19.2046 6.72685 18.8724 6.5738ZM18.2684 13.0095C18.2684 13.08 18.2384 13.1475 18.185 13.1973C18.1316 13.2471 18.0591 13.275 17.9835 13.275H2.0289C1.95333 13.275 1.88087 13.2471 1.82743 13.1973C1.77401 13.1475 1.74399 13.08 1.74399 13.0095V8.23053C1.74399 8.16012 1.77401 8.09258 1.82743 8.04277C1.88087 7.99296 1.95333 7.96503 2.0289 7.96503H17.9835C18.0591 7.96503 18.1316 7.99296 18.185 8.04277C18.2384 8.09258 18.2684 8.16012 18.2684 8.23053V13.0095ZM4.84375 1.76293C4.86423 1.71345 4.90015 1.67082 4.94686 1.64053C4.99357 1.61025 5.04896 1.5937 5.10586 1.59301H14.9066C14.9634 1.5937 15.0188 1.61025 15.0655 1.64053C15.1123 1.67082 15.1482 1.71345 15.1687 1.76293L16.7641 5.84102H3.24828L4.84375 1.76293Z" fill="#6A6A6A" stroke="#6A6A6A" stroke-width="0.00064"/>
<path d="M5.4477 12.2134C6.3918 12.2134 7.15713 11.5001 7.15713 10.6203C7.15713 9.74059 6.3918 9.02734 5.4477 9.02734C4.50361 9.02734 3.73828 9.74059 3.73828 10.6203C3.73828 11.5001 4.50361 12.2134 5.4477 12.2134Z" fill="#6A6A6A" stroke="#6A6A6A" stroke-width="0.00064"/>
<path d="M14.5649 12.2134C15.509 12.2134 16.2743 11.5001 16.2743 10.6203C16.2743 9.74059 15.509 9.02734 14.5649 9.02734C13.6208 9.02734 12.8555 9.74059 12.8555 10.6203C12.8555 11.5001 13.6208 12.2134 14.5649 12.2134Z" fill="#6A6A6A" stroke="#6A6A6A" stroke-width="0.00064"/>
</svg>
