<svg width="20" height="20" viewBox="0 0 20 20" fill="none" xmlns="http://www.w3.org/2000/svg">
<path fill-rule="evenodd" clip-rule="evenodd" d="M1.62442 0.0101302C3.48762 0.279844 5.4366 1.09039 6.9064 2.18218C7.88072 1.90066 8.92544 1.74842 10.0102 1.74842C11.1022 1.74842 12.1537 1.90271 13.1335 2.18784C14.6384 1.11442 16.4972 0.273688 18.3864 0.0113893C18.7885 -0.0432338 19.2068 0.144253 19.3904 0.482982C20.1274 2.0891 20.1524 4.00427 19.6992 5.67663L19.6922 5.70256C19.5707 6.15132 19.4137 6.73132 18.9099 6.92643C19.2844 7.77575 19.4904 8.69688 19.4904 9.66395C19.4904 12.0881 18.4114 14.5822 17.4438 16.8184L17.3459 17.0447C16.7584 18.4043 15.4439 19.3408 13.9208 19.6017L11.7687 19.9705C11.105 20.0841 10.4427 19.8633 10.0102 19.4183C9.57768 19.8633 8.91539 20.0841 8.25177 19.9705L6.09962 19.6017C4.57657 19.3408 3.26201 18.4043 2.67447 17.0447L2.57661 16.8184C1.60907 14.5822 0.529944 12.0881 0.529944 9.66395C0.529944 8.69688 0.735978 7.77575 1.11057 6.92643C0.606184 6.73112 0.453267 6.16521 0.331674 5.71519L0.321245 5.67663C-0.111804 4.07894 -0.19504 2.00798 0.630027 0.482982C0.812674 0.146063 1.22107 -0.0476625 1.62442 0.0101302ZM4.8764 3.00803C3.80549 3.58526 2.87602 4.3412 2.15457 5.22968C1.87205 4.1658 1.86886 2.98268 2.11781 1.91244C3.0786 2.16842 4.01881 2.53135 4.8764 3.00803ZM17.8658 5.22969C17.1491 4.347 16.227 3.59512 15.165 3.01936C16.0172 2.53585 16.9348 2.14848 17.8999 1.90108C18.1522 2.97434 18.1493 4.16237 17.8658 5.22969ZM7.02734 3.99296C7.94042 3.67461 8.94809 3.49719 10.0102 3.49719C11.0723 3.49719 12.08 3.67461 12.993 3.99296C15.7508 4.9545 17.5944 7.1681 17.5944 9.66395C17.5944 11.7756 16.636 13.9791 15.7801 15.9468C15.7143 16.0983 15.6488 16.2486 15.5847 16.3972C15.2519 17.1673 14.4953 17.7246 13.5745 17.8823L11.4223 18.2511L10.8748 17.1286C10.7217 16.8148 10.3832 16.613 10.0102 16.613C9.63712 16.613 9.29877 16.8148 9.14566 17.1286L8.59799 18.2511L6.4459 17.8823C5.52513 17.7246 4.76853 17.1673 4.43578 16.3972C4.37166 16.2488 4.30643 16.0988 4.24061 15.9475C3.38474 13.9798 2.426 11.7756 2.426 9.66395C2.426 7.1681 4.2696 4.9545 7.02734 3.99296ZM8.58813 13.1154C8.22902 13.1154 7.90078 13.3025 7.74019 13.5988C7.5796 13.895 7.61426 14.2495 7.82971 14.5144L9.25175 16.2632C9.43083 16.4834 9.71173 16.613 10.0102 16.613C10.3086 16.613 10.5895 16.4834 10.7686 16.2632L12.1906 14.5144C12.4061 14.2495 12.4407 13.895 12.2801 13.5988C12.1195 13.3025 11.7913 13.1154 11.4322 13.1154H8.58813ZM7.75514 8.84955C7.75514 9.57398 7.11847 10.1611 6.3331 10.1611C5.54772 10.1611 4.91106 9.57398 4.91106 8.84955C4.91106 8.1252 5.54772 7.53801 6.3331 7.53801C7.11847 7.53801 7.75514 8.1252 7.75514 8.84955ZM13.8023 10.0551C14.5876 10.0551 15.2243 9.46791 15.2243 8.74348C15.2243 8.01914 14.5876 7.43193 13.8023 7.43193C13.0169 7.43193 12.3802 8.01914 12.3802 8.74348C12.3802 9.46791 13.0169 10.0551 13.8023 10.0551Z" fill="#6A6A6A"/>
<path d="M10.0102 16.613C10.3832 16.613 10.7217 16.8148 10.8748 17.1286L11.4223 18.2511L13.5745 17.8823C14.4953 17.7246 15.2519 17.1673 15.5847 16.3972C15.6488 16.2486 15.7143 16.0983 15.7801 15.9468C16.636 13.9791 17.5944 11.7756 17.5944 9.66395C17.5944 7.1681 15.7508 4.9545 12.993 3.99296C12.08 3.67461 11.0723 3.49719 10.0102 3.49719C8.94809 3.49719 7.94042 3.67461 7.02734 3.99296C4.2696 4.9545 2.426 7.1681 2.426 9.66395C2.426 11.7756 3.38474 13.9798 4.24061 15.9475C4.30643 16.0988 4.37166 16.2488 4.43578 16.3972C4.76853 17.1673 5.52513 17.7246 6.4459 17.8823L8.59799 18.2511L9.14566 17.1286C9.29877 16.8148 9.63712 16.613 10.0102 16.613ZM10.0102 16.613C9.71173 16.613 9.43083 16.4834 9.25175 16.2632L7.82971 14.5144C7.61426 14.2495 7.5796 13.895 7.74019 13.5988C7.90078 13.3025 8.22902 13.1154 8.58813 13.1154H11.4322C11.7913 13.1154 12.1195 13.3025 12.2801 13.5988C12.4407 13.895 12.4061 14.2495 12.1906 14.5144L10.7686 16.2632C10.5895 16.4834 10.3086 16.613 10.0102 16.613ZM1.62442 0.0101302C3.48762 0.279844 5.4366 1.09039 6.9064 2.18218C7.88072 1.90066 8.92544 1.74842 10.0102 1.74842C11.1022 1.74842 12.1537 1.90271 13.1335 2.18784C14.6384 1.11442 16.4972 0.273688 18.3864 0.0113893C18.7885 -0.0432338 19.2068 0.144253 19.3904 0.482982C20.1274 2.0891 20.1524 4.00427 19.6992 5.67663L19.6922 5.70256C19.5707 6.15132 19.4137 6.73132 18.9099 6.92643C19.2844 7.77575 19.4904 8.69688 19.4904 9.66395C19.4904 12.0881 18.4114 14.5822 17.4438 16.8184L17.3459 17.0447C16.7584 18.4043 15.4439 19.3408 13.9208 19.6017L11.7687 19.9705C11.105 20.0841 10.4427 19.8633 10.0102 19.4183C9.57768 19.8633 8.91539 20.0841 8.25177 19.9705L6.09962 19.6017C4.57657 19.3408 3.26201 18.4043 2.67447 17.0447L2.57661 16.8184C1.60907 14.5822 0.529944 12.0881 0.529944 9.66395C0.529944 8.69688 0.735978 7.77575 1.11057 6.92643C0.606184 6.73112 0.453267 6.16521 0.331674 5.71519L0.321245 5.67663C-0.111804 4.07894 -0.19504 2.00798 0.630027 0.482982C0.812674 0.146063 1.22107 -0.0476625 1.62442 0.0101302ZM4.8764 3.00803C3.80549 3.58526 2.87602 4.3412 2.15457 5.22968C1.87205 4.1658 1.86886 2.98268 2.11781 1.91244C3.0786 2.16842 4.01881 2.53135 4.8764 3.00803ZM17.8658 5.22969C17.1491 4.347 16.227 3.59512 15.165 3.01936C16.0172 2.53585 16.9348 2.14848 17.8999 1.90108C18.1522 2.97434 18.1493 4.16237 17.8658 5.22969ZM7.75514 8.84955C7.75514 9.57398 7.11847 10.1611 6.3331 10.1611C5.54772 10.1611 4.91106 9.57398 4.91106 8.84955C4.91106 8.1252 5.54772 7.53801 6.3331 7.53801C7.11847 7.53801 7.75514 8.1252 7.75514 8.84955ZM13.8023 10.0551C14.5876 10.0551 15.2243 9.46791 15.2243 8.74348C15.2243 8.01914 14.5876 7.43193 13.8023 7.43193C13.0169 7.43193 12.3802 8.01914 12.3802 8.74348C12.3802 9.46791 13.0169 10.0551 13.8023 10.0551Z" stroke="#6A6A6A" stroke-width="0.00064"/>
</svg>
