<svg width="23" height="21" viewBox="0 0 23 21" fill="currentColor" xmlns="http://www.w3.org/2000/svg">
<path fill-rule="evenodd" clip-rule="evenodd" d="M2.23582 7.2408C2.19958 7.43927 2.17244 7.62151 2.15209 7.78348C1.98543 7.83018 1.80584 7.89247 1.62337 7.97577C1.23799 8.15171 0.820797 8.4306 0.502289 8.86687C0.179421 9.30901 0 9.85568 0 10.5C0 11.1443 0.179421 11.691 0.502289 12.1331C0.820797 12.5694 1.23799 12.8483 1.62337 13.0242C1.80584 13.1075 1.98543 13.1698 2.15209 13.2165C2.17243 13.3785 2.19958 13.5608 2.23582 13.7592C2.37791 14.5376 2.66405 15.5901 3.24673 16.6541C3.83148 17.7219 4.72499 18.8188 6.08486 19.6465C7.45127 20.4782 9.22616 21 11.5 21C13.7739 21 15.5487 20.4782 16.9151 19.6465C18.275 18.8188 19.1685 17.7219 19.7532 16.6541C20.336 15.5901 20.6221 14.5376 20.7642 13.7592C20.8004 13.5608 20.8275 13.3785 20.8479 13.2165C21.0146 13.1698 21.1942 13.1075 21.3766 13.0242C21.762 12.8483 22.1792 12.5694 22.4978 12.1331C22.8206 11.691 23 11.1443 23 10.5C23 9.85568 22.8206 9.30901 22.4978 8.86687C22.1792 8.4306 21.762 8.15171 21.3766 7.97577C21.1942 7.89247 21.0146 7.83018 20.8479 7.78348C20.8275 7.62151 20.8004 7.43927 20.7642 7.2408C20.6221 6.46238 20.336 5.40989 19.7532 4.34584C19.1685 3.27806 18.275 2.18124 16.9151 1.3535C15.5487 0.521774 13.7739 0 11.5 0C9.22616 0 7.45127 0.521774 6.08486 1.3535C4.72501 2.18124 3.83148 3.27806 3.24674 4.34585C2.66405 5.40989 2.37791 6.46238 2.23582 7.2408ZM18.7162 13.3636H4.28378C4.39759 14.0242 4.63455 14.9195 5.1169 15.8004C5.57761 16.6417 6.25228 17.454 7.24469 18.058C8.23055 18.6581 9.59204 19.0909 11.5 19.0909C13.408 19.0909 14.7694 18.6581 15.7553 18.058C16.7478 17.454 17.4224 16.6417 17.8831 15.8004C18.3654 14.9195 18.6024 14.0242 18.7162 13.3636ZM18.7162 7.63636H17.7727C17.1953 7.63636 16.7273 8.06372 16.7273 8.59091C16.7273 9.1181 17.1953 9.54545 17.7727 9.54545H19.8636C20.1861 9.55691 20.5703 9.66869 20.7579 9.92575C20.8271 10.0205 20.9091 10.1898 20.9091 10.5C20.9091 10.8102 20.8271 10.9795 20.7579 11.0743C20.5703 11.3313 20.1861 11.4431 19.8636 11.4545H3.13636C2.81389 11.4431 2.42978 11.3313 2.24203 11.0743C2.17285 10.9795 2.09091 10.8102 2.09091 10.5C2.09091 10.1898 2.17285 10.0205 2.24203 9.92575C2.42978 9.66869 2.81389 9.55691 3.13636 9.54545H5.22727C5.80466 9.54545 6.27273 9.1181 6.27273 8.59091C6.27273 8.06372 5.80466 7.63636 5.22727 7.63636H4.28378C4.39759 6.97586 4.63456 6.08042 5.1169 5.19961C5.57763 4.3583 6.25228 3.54603 7.2447 2.94196C7.57372 2.74168 7.94459 2.56004 8.36364 2.40691V4.77273C8.36364 5.2999 8.8317 5.72727 9.40909 5.72727C9.9865 5.72727 10.4545 5.2999 10.4545 4.77273V1.9556C10.7834 1.92523 11.1316 1.90909 11.5 1.90909C11.8684 1.90909 12.2166 1.92523 12.5455 1.9556V4.77273C12.5455 5.2999 13.0135 5.72727 13.5909 5.72727C14.1683 5.72727 14.6364 5.2999 14.6364 4.77273V2.40691C15.0554 2.56004 15.4263 2.74168 15.7553 2.94196C16.7478 3.54603 17.4224 4.3583 17.8831 5.19961C18.3654 6.08042 18.6024 6.97586 18.7162 7.63636Z" fill="#6A6A6A"/>
</svg>
