<svg width="20" height="18" viewBox="0 0 20 18" fill="none" xmlns="http://www.w3.org/2000/svg">
<path d="M0.364258 14.5615C0.364258 16.0123 1.44492 17.1912 2.7748 17.1912H17.2359C18.5658 17.1912 19.6465 16.0123 19.6465 14.5615C19.6465 13.1107 18.5658 11.9318 17.2359 11.9318V8.65059C17.2359 4.28887 14.0004 0.756836 10.0043 0.756836C6.01035 0.756836 2.77266 4.29121 2.77266 8.65059V11.9318C1.44707 11.9318 0.364258 13.1107 0.364258 14.5615Z" fill="#5E676F"/>
<path d="M16.6342 13.2463H17.2357C17.8996 13.2463 18.441 13.8369 18.441 14.5611C18.441 15.2854 17.8996 15.876 17.2357 15.876H2.77461C2.11074 15.876 1.56934 15.2854 1.56934 14.5611C1.56934 13.8369 2.11074 13.2463 2.77461 13.2463H16.6342ZM3.97988 11.9338V8.6502C3.97988 5.01738 6.67832 2.07129 10.0062 2.07129C13.3363 2.07129 16.0326 5.0127 16.0326 8.6502V11.9338H3.97988Z" fill="white"/>
<path d="M10.0062 10.8775C8.34121 10.8775 6.99414 9.40566 6.99414 7.5916C6.99414 5.77754 8.34336 4.30566 10.0062 4.30566C11.6691 4.30566 13.0184 5.77754 13.0184 7.5916C13.0184 9.40566 11.6713 10.8775 10.0062 10.8775ZM13.9229 10.8775C13.4244 10.8775 13.0184 10.4369 13.0184 9.89082C13.0184 9.34707 13.4223 8.9041 13.9229 8.9041C14.4234 8.9041 14.8273 9.34473 14.8273 9.89082C14.8273 10.4346 14.4213 10.8775 13.9229 10.8775Z" fill="#5E676F"/>
<path d="M10.0062 10.2184C11.3383 10.2184 12.4168 9.0418 12.4168 7.58867C12.4168 6.13555 11.3383 4.95898 10.0062 4.95898C8.67422 4.95898 7.5957 6.13555 7.5957 7.58867C7.5957 9.0418 8.67422 10.2184 10.0062 10.2184ZM13.9229 10.2184C13.7574 10.2184 13.6221 10.0707 13.6221 9.89023C13.6221 9.70976 13.7574 9.56211 13.9229 9.56211C14.0883 9.56211 14.2236 9.70976 14.2236 9.89023C14.2236 10.0707 14.0904 10.2184 13.9229 10.2184Z" fill="white"/>
<path d="M10.0065 8.9041C9.34053 8.9041 8.80127 8.31582 8.80127 7.58926C8.80127 6.86269 9.34053 6.27441 10.0065 6.27441C10.6726 6.27441 11.2118 6.86269 11.2118 7.58926C11.2118 8.31582 10.6726 8.9041 10.0065 8.9041Z" fill="#5E676F"/>
<path d="M10.0063 8.24707C10.3394 8.24707 10.6079 7.95176 10.6079 7.59082C10.6079 7.22988 10.3372 6.93457 10.0063 6.93457C9.67334 6.93457 9.40479 7.22988 9.40479 7.59082C9.40479 7.95176 9.67334 8.24707 10.0063 8.24707Z" fill="white"/>
</svg>
