<svg width="21" height="20" viewBox="0 0 21 20" fill="none" xmlns="http://www.w3.org/2000/svg">
<path d="M19.25 7.08311H17.0931L13.8556 2.45395C13.7268 2.27006 13.5266 2.14244 13.299 2.09915C13.0714 2.05586 12.8351 2.10045 12.642 2.22311C12.4489 2.34578 12.3149 2.53646 12.2695 2.75322C12.224 2.96999 12.2708 3.19506 12.3996 3.37895L14.9905 7.08311H6.0095L8.603 3.37895C8.7318 3.19506 8.77862 2.96999 8.73316 2.75322C8.68771 2.53646 8.5537 2.34578 8.36063 2.22311C8.16755 2.10045 7.93121 2.05586 7.70362 2.09915C7.47602 2.14244 7.2758 2.27006 7.147 2.45395L3.90688 7.08311H1.75C1.51794 7.08311 1.29538 7.17091 1.13128 7.32719C0.967187 7.48347 0.875 7.69543 0.875 7.91645C0.875 8.13746 0.967187 8.34942 1.13128 8.5057C1.29538 8.66198 1.51794 8.74978 1.75 8.74978H2.625V15.4164C2.625 16.0795 2.90156 16.7154 3.39384 17.1842C3.88613 17.6531 4.55381 17.9164 5.25 17.9164H15.75C16.4462 17.9164 17.1139 17.6531 17.6062 17.1842C18.0984 16.7154 18.375 16.0795 18.375 15.4164V8.74978H19.25C19.4821 8.74978 19.7046 8.66198 19.8687 8.5057C20.0328 8.34942 20.125 8.13746 20.125 7.91645C20.125 7.69543 20.0328 7.48347 19.8687 7.32719C19.7046 7.17091 19.4821 7.08311 19.25 7.08311ZM16.625 15.4164C16.625 15.6375 16.5328 15.8494 16.3687 16.0057C16.2046 16.162 15.9821 16.2498 15.75 16.2498H5.25C5.01794 16.2498 4.79538 16.162 4.63128 16.0057C4.46719 15.8494 4.375 15.6375 4.375 15.4164V8.74978H16.625V15.4164ZM6.125 14.1664V10.8331C6.125 10.6121 6.21719 10.4001 6.38128 10.2439C6.54538 10.0876 6.76794 9.99978 7 9.99978C7.23206 9.99978 7.45462 10.0876 7.61872 10.2439C7.78281 10.4001 7.875 10.6121 7.875 10.8331V14.1664C7.875 14.3875 7.78281 14.5994 7.61872 14.7557C7.45462 14.912 7.23206 14.9998 7 14.9998C6.76794 14.9998 6.54538 14.912 6.38128 14.7557C6.21719 14.5994 6.125 14.3875 6.125 14.1664ZM9.625 14.1664V10.8331C9.625 10.6121 9.71719 10.4001 9.88128 10.2439C10.0454 10.0876 10.2679 9.99978 10.5 9.99978C10.7321 9.99978 10.9546 10.0876 11.1187 10.2439C11.2828 10.4001 11.375 10.6121 11.375 10.8331V14.1664C11.375 14.3875 11.2828 14.5994 11.1187 14.7557C10.9546 14.912 10.7321 14.9998 10.5 14.9998C10.2679 14.9998 10.0454 14.912 9.88128 14.7557C9.71719 14.5994 9.625 14.3875 9.625 14.1664ZM13.125 14.1664V10.8331C13.125 10.6121 13.2172 10.4001 13.3813 10.2439C13.5454 10.0876 13.7679 9.99978 14 9.99978C14.2321 9.99978 14.4546 10.0876 14.6187 10.2439C14.7828 10.4001 14.875 10.6121 14.875 10.8331V14.1664C14.875 14.3875 14.7828 14.5994 14.6187 14.7557C14.4546 14.912 14.2321 14.9998 14 14.9998C13.7679 14.9998 13.5454 14.912 13.3813 14.7557C13.2172 14.5994 13.125 14.3875 13.125 14.1664Z" fill="#6A6A6A" stroke="#6A6A6A" stroke-width="0.00064"/>
</svg>
