<svg width="32" height="33" viewBox="0 0 32 33" fill="currentColor" xmlns="http://www.w3.org/2000/svg">
<path d="M9.53482 28.3955H22.4582C23.4922 28.3955 24.3335 27.5016 24.3335 26.403V23.3451C24.3335 19.9295 21.8975 17.133 18.7468 16.8306V14.0227C20.2742 13.0226 21.2202 11.2482 21.2202 9.3279V7.14552H21.6668C21.8508 7.14552 22.0002 6.98685 22.0002 6.79135V4.3724H23.6668V6.23177C23.6668 6.42727 23.8162 6.58594 24.0002 6.58594C24.1842 6.58594 24.3335 6.42727 24.3335 6.23177V4.01823C24.3335 3.82273 24.1842 3.66406 24.0002 3.66406H21.6668H10.3335H8.00016C7.81616 3.66406 7.66682 3.82273 7.66682 4.01823C7.66682 4.21373 7.81616 4.3724 8.00016 4.3724H10.0002V6.79135C10.0002 6.98685 10.1495 7.14552 10.3335 7.14552H10.7802V9.32719C10.7802 11.2475 11.7255 13.0226 13.2468 14.0227V16.8313C10.0902 17.1401 7.66016 19.9345 7.66016 23.3458V26.4037C7.66016 27.5016 8.50082 28.3955 9.53482 28.3955ZM17.1548 16.793H14.8455H13.9135V14.401C14.5668 14.707 15.2768 14.8734 16.0002 14.8734C16.7208 14.8734 17.4288 14.707 18.0802 14.401V16.793H17.1548ZM16.7322 17.5014L16.0002 20.7399L15.2682 17.5014H16.7322ZM10.6668 4.3724H21.3335V6.43719H20.8868H11.1135H10.6668V4.3724ZM11.4468 9.32719V7.14552H20.5535V9.32719C20.5535 11.0654 19.6708 12.6734 18.2468 13.5255C16.8835 14.3649 15.1055 14.362 13.7448 13.5241C12.3275 12.6719 11.4468 11.064 11.4468 9.32719ZM8.32682 23.3451C8.32682 20.2001 10.6402 17.6359 13.6075 17.507C13.6788 17.5006 13.7548 17.5006 13.8268 17.5014H14.5828L15.6762 22.3393C15.7122 22.4986 15.8462 22.6106 16.0002 22.6106C16.1542 22.6106 16.2882 22.4979 16.3242 22.3393L17.4175 17.5014H18.1668C18.2408 17.5028 18.3155 17.5014 18.4002 17.5077C21.3535 17.6359 23.6668 20.1994 23.6668 23.3451V26.403C23.6668 27.1113 23.1248 27.6872 22.4582 27.6872H9.53482C8.86816 27.6872 8.32616 27.1113 8.32616 26.403L8.32682 23.3451Z" fill="#6A6A6A" stroke="#6A6A6A" stroke-width="1.28"/>
<path d="M10.722 22.9486H13.58C13.764 22.9486 13.9133 22.7899 13.9133 22.5944C13.9133 22.3989 13.764 22.2402 13.58 22.2402H10.722C10.538 22.2402 10.3887 22.3989 10.3887 22.5944C10.3887 22.7899 10.538 22.9486 10.722 22.9486Z" fill="#010101" stroke="#6A6A6A" stroke-width="1.28"/>
</svg>
