<svg width="25" height="25" viewBox="0 0 25 25" fill="none" xmlns="http://www.w3.org/2000/svg">
<path d="M20.5508 4.08033L20.604 4.24663L21.1782 6.24926C21.2872 6.62946 21.0948 7.02468 20.7425 7.17951L20.6425 7.21559L9.46869 10.4188L21.0927 10.4198C21.4882 10.4198 21.8151 10.7137 21.8668 11.095L21.874 11.201V20.0531C21.874 21.5766 20.6847 22.8223 19.1839 22.9125L19.0094 22.9177H5.98973C4.46626 22.9177 3.22056 21.7284 3.13038 20.2276L3.12515 20.0531L3.12493 11.3115L2.58143 9.41451C2.16151 7.95005 2.96135 6.4248 4.37916 5.92443L4.54546 5.87131L17.0608 2.28261C18.5252 1.86268 20.0505 2.66252 20.5508 4.08033ZM20.3106 11.9813H4.68765V20.0531C4.68765 20.6824 5.13398 21.2074 5.72732 21.3288L5.8566 21.3485L5.98973 21.3552H19.0094C19.6836 21.3552 20.2381 20.8429 20.3047 20.1863L20.3115 20.0531L20.3106 11.9813ZM6.53419 6.92652L4.97615 7.37328C4.32809 7.55911 3.93625 8.20448 4.05313 8.85401L4.08336 8.98384L4.44204 10.2347L4.74943 10.1463L6.53419 6.92652ZM11.4887 5.50584L8.65798 6.31753L6.87321 9.53733L9.70393 8.72564L11.4887 5.50584ZM16.4442 4.08487L13.6135 4.89656L11.8287 8.11636L14.6584 7.30496L16.4442 4.08487ZM18.3684 3.84158L16.7842 6.6954L19.4598 5.92845L19.102 4.67732C18.9904 4.28803 18.7129 3.99122 18.3684 3.84158Z" fill="#6A6A6A"/>
</svg>
