<svg width="24" height="22" viewBox="0 0 24 22" fill="none" xmlns="http://www.w3.org/2000/svg">
<path d="M18 7.75V7C18 5.94991 18 5.42485 17.782 5.02377C17.5903 4.67096 17.2843 4.38412 16.908 4.20437C16.4802 4 15.9201 4 14.8 4H6.2C5.07989 4 4.51984 4 4.09202 4.20437C3.71569 4.38412 3.40973 4.67096 3.21799 5.02377C3 5.42485 3 5.94991 3 7V7.75M3 7.75V16C3 17.0501 3 17.5752 3.21799 17.9763C3.40973 18.329 3.71569 18.6159 4.09202 18.7956C4.51984 19 5.07989 19 6.2 19H17.8C18.9201 19 19.4802 19 19.908 18.7956C20.2843 18.6159 20.5903 18.329 20.782 17.9763C21 17.5752 21 17.0501 21 16V10.75C21 9.69991 21 9.17485 20.782 8.77377C20.5903 8.42096 20.2843 8.13412 19.908 7.95437C19.4802 7.75 18.9201 7.75 17.8 7.75H3ZM21 11.5H19C17.8954 11.5 17 12.3394 17 13.375C17 14.4106 17.8954 15.25 19 15.25H21" stroke="#6A6A6A" stroke-width="2.24" stroke-linecap="round" stroke-linejoin="round"/>
</svg>
