<svg width="36" height="27" viewBox="0 0 36 27" fill="none" xmlns="http://www.w3.org/2000/svg">
<path d="M26.3996 9.89941H27.9996C28.4412 9.89941 28.7996 10.1682 28.7996 10.4994V16.4994C28.7996 16.8306 28.4412 17.0994 27.9996 17.0994H26.3996C25.958 17.0994 25.5996 16.8306 25.5996 16.4994V10.4994C25.5996 10.1682 25.958 9.89941 26.3996 9.89941Z" stroke="#6A6A6A" stroke-width="1.5"/>
<path d="M23.1999 7.5H24.7999C25.2415 7.5 25.5999 7.7688 25.5999 8.1V18.9C25.5999 19.2312 25.2415 19.5 24.7999 19.5H23.1999C22.7583 19.5 22.3999 19.2312 22.3999 18.9V8.1C22.3999 7.7688 22.7583 7.5 23.1999 7.5Z" stroke="#6A6A6A" stroke-width="1.5"/>
<path d="M12.0002 7.5H13.6002C14.0418 7.5 14.4002 7.7688 14.4002 8.1V18.9C14.4002 19.2312 14.0418 19.5 13.6002 19.5H12.0002C11.5586 19.5 11.2002 19.2312 11.2002 18.9V8.1C11.2002 7.7688 11.5586 7.5 12.0002 7.5Z" stroke="#6A6A6A" stroke-width="1.5"/>
<path d="M8.8 9.89941H10.4C10.8416 9.89941 11.2 10.1682 11.2 10.4994V16.4994C11.2 16.8306 10.8416 17.0994 10.4 17.0994H8.8C8.3584 17.0994 8 16.8306 8 16.4994V10.4994C8 10.1682 8.3584 9.89941 8.8 9.89941Z" stroke="#6A6A6A" stroke-width="1.5"/>
<path d="M28.7993 13.5H31.1993" stroke="#6A6A6A" stroke-width="1.5"/>
<path d="M14.3999 13.5H22.3999" stroke="#6A6A6A" stroke-width="1.5"/>
<path d="M5.6001 13.5H8.0001" stroke="#6A6A6A" stroke-width="1.5"/>
</svg>
