<svg width="21" height="21" viewBox="0 0 21 21" fill="none" xmlns="http://www.w3.org/2000/svg">
<path d="M11.5667 1.65848L11.6795 1.76417L20.1036 10.0401L19.2001 10.9591L18.0401 9.81973L18.0408 18.5552C18.0408 19.2344 17.5149 19.7912 16.8479 19.8402L16.7519 19.8441H3.86299C3.18374 19.8441 2.62694 19.3182 2.57732 18.6512L2.5741 18.5552L2.57345 9.82037L1.41474 10.9591L0.51123 10.0401L8.92639 1.77255C9.64365 1.04046 10.8004 0.999856 11.5667 1.65848ZM9.90014 2.62773L9.83827 2.6838L3.86234 8.55404L3.86299 18.5552L7.08456 18.5545L7.08521 12.1107C7.08521 11.4315 7.61108 10.8747 8.27808 10.8251L8.3741 10.8218H12.2408C12.92 10.8218 13.4768 11.3477 13.5264 12.0147L13.5297 12.1107L13.529 18.5545L16.7519 18.5552L16.7512 8.5534L10.7585 2.66575C10.524 2.43568 10.1579 2.4215 9.90014 2.62773ZM12.2408 12.1107H8.3741L8.37345 18.5545H12.2401L12.2408 12.1107Z" fill="#6A6A6A" stroke="#6A6A6A" stroke-width="0.64"/>
</svg>
