<svg width="19" height="23" viewBox="0 0 19 23" fill="currentColor" xmlns="http://www.w3.org/2000/svg">
<path d="M9.5 0C14.7467 0 19 3.92354 19 8.76348C19 11.5547 17.5854 14.0412 15.3813 15.6461L15.4394 15.6035L15.4383 22.1774C15.4383 22.7791 14.7604 23.1767 14.1698 22.9214L9.50063 20.903L4.83395 22.9213C4.24335 23.1767 3.56524 22.7792 3.56524 22.1774L3.56332 15.6055C1.39236 14.0019 0 11.5327 0 8.76348C0 3.92354 4.25329 0 9.5 0ZM13.6577 16.6453L13.7055 16.6237C12.4378 17.202 11.01 17.527 9.5 17.527C8.16358 17.527 6.8916 17.2724 5.73796 16.813L5.34589 16.6469L5.34649 20.8848L9.12246 19.2517C9.36194 19.1482 9.63895 19.1481 9.87846 19.2517L13.6571 20.8851L13.6577 16.6453ZM9.5 1.64315C5.23705 1.64315 1.78125 4.83103 1.78125 8.76348C1.78125 12.6959 5.23705 15.8838 9.5 15.8838C13.7629 15.8838 17.2188 12.6959 17.2188 8.76348C17.2188 4.83103 13.7629 1.64315 9.5 1.64315ZM9.77168 5.08539L10.8553 7.11485L13.2825 7.4384C13.5311 7.47153 13.6304 7.7533 13.4505 7.91499L11.695 9.49292L12.1094 11.7226C12.1519 11.9509 11.892 12.1249 11.6698 12.017L9.5 10.9627L7.33019 12.017C7.10791 12.125 6.84793 11.9507 6.8906 11.7223L7.30707 9.49292L5.54958 7.9151C5.36954 7.75346 5.46884 7.47154 5.71749 7.4384L8.1447 7.11485L9.22832 5.08539C9.33933 4.87748 9.66067 4.87748 9.77168 5.08539Z" fill="#6A6A6A" />
</svg>
