<svg width="26" height="25" viewBox="0 0 26 25" fill="none" xmlns="http://www.w3.org/2000/svg">
<path d="M19.9618 2.25428C16.7864 0.416559 12.3889 0.700793 10.5556 3.88373L14.7893 6.33402M19.9618 2.25428C23.1371 4.092 25.0902 8.05168 23.2569 11.2346L16.9062 7.55917M19.9618 2.25428L20.5729 1.1933M19.9618 2.25428C17.7361 2.85215 16.3171 3.68158 14.7893 6.33402M19.9618 2.25428C20.5582 4.48527 20.5509 6.13187 19.0231 8.78432M14.7893 6.33402L16.9062 7.55917M16.9062 7.55917L13.2396 13.925M2 23.246L3.07556 21.9522C3.3118 21.6677 3.60924 21.4406 3.94557 21.2878C4.28189 21.135 4.64837 21.0605 5.01751 21.0699C5.38665 21.0793 5.74887 21.1724 6.07699 21.3422C6.40512 21.512 6.69063 21.754 6.91211 22.0502C7.13049 22.3424 7.41121 22.5819 7.73375 22.7514C8.0563 22.9209 8.41254 23.016 8.77645 23.0299C9.14037 23.0438 9.50278 22.976 9.83722 22.8315C10.1717 22.687 10.4697 22.4695 10.7096 22.1948L10.9418 21.9277C11.1983 21.6335 11.5146 21.3978 11.8695 21.2363C12.2244 21.0747 12.6096 20.9912 12.9994 20.9912C13.3891 20.9912 13.7744 21.0747 14.1293 21.2363C14.4842 21.3978 14.8005 21.6335 15.057 21.9277L15.2904 22.1948C16.3147 23.3673 18.1553 23.2974 19.0879 22.0514C19.3094 21.755 19.5949 21.5128 19.9232 21.3429C20.2514 21.173 20.6138 21.0798 20.9831 21.0704C21.3524 21.0609 21.719 21.1355 22.0555 21.2884C22.3919 21.4414 22.6894 21.6687 22.9257 21.9534L24 23.246M6.532 17.1202C8.31654 15.5381 10.6176 14.6664 13 14.6699C15.3824 14.6664 17.6835 15.5381 19.468 17.1202" stroke="#6A6A6A" stroke-width="2.112" stroke-linecap="round" stroke-linejoin="round"/>
</svg>
