<svg width="36" height="24" viewBox="0 0 36 24" fill="none" xmlns="http://www.w3.org/2000/svg">
<path d="M16.1152 6.36523H9.04297V13.3721H17.769L16.1152 6.36523ZM11.1817 11.4709V8.26624H14.3786L15.135 11.4709H11.1817Z" fill="#6A6A6A" stroke="#6A6A6A" stroke-width="0.00064"/>
<path d="M34.7171 18.7097V18.7096V13.4139V11.3966V4.08351H24.8253V11.3966V13.4139V18.7096H23.8205V0.120117H21.6818V18.7096H20.6769V13.0442L18.6228 3.8094H5.95484V12.1402H0V20.727H2.19565C2.41446 22.1021 3.67516 23.1601 5.19314 23.1601C6.71112 23.1601 7.97182 22.1021 8.19063 20.727H12.4863C12.7051 22.1021 13.9658 23.1601 15.4838 23.1601C17.0018 23.1601 18.2625 22.1021 18.4813 20.727H19.6076H20.6769H24.8253H34.7171H36V18.7097H34.7171ZM5.19314 21.1427C4.70102 21.1427 4.30059 20.765 4.30059 20.3008C4.30059 20.1856 4.32534 20.0758 4.36999 19.9758C4.37034 19.975 4.37063 19.9741 4.37098 19.9732C4.38188 19.9489 4.39411 19.9252 4.40733 19.9021C4.4088 19.8995 4.41049 19.8971 4.41197 19.8945C4.42427 19.8735 4.43742 19.8529 4.45155 19.8331C4.45282 19.8313 4.45423 19.8294 4.45549 19.8276C4.51927 19.7394 4.60034 19.663 4.6942 19.6031C4.69448 19.6029 4.69477 19.6028 4.69505 19.6026C4.71776 19.5882 4.74124 19.5748 4.76543 19.5623C4.76691 19.5615 4.76845 19.5607 4.76993 19.56C4.81894 19.535 4.87076 19.5143 4.92469 19.4981C4.92947 19.4967 4.93432 19.4955 4.93917 19.4942C4.95984 19.4883 4.98087 19.4833 5.00217 19.4789C5.01054 19.4771 5.01891 19.4755 5.02734 19.4741C5.04647 19.4706 5.0658 19.468 5.08528 19.4657C5.09365 19.4647 5.10187 19.4636 5.11024 19.4628C5.13752 19.4604 5.16516 19.4588 5.19307 19.4588C5.22113 19.4588 5.2489 19.4604 5.27625 19.4628C5.28455 19.4635 5.2927 19.4647 5.30093 19.4657C5.32062 19.4678 5.34009 19.4706 5.35929 19.4741C5.36766 19.4755 5.37588 19.4771 5.38411 19.4788C5.40555 19.4832 5.42672 19.4883 5.4476 19.4942C5.45224 19.4955 5.45702 19.4966 5.46159 19.498C5.51566 19.5141 5.56748 19.5349 5.61656 19.56C5.61797 19.5607 5.61938 19.5614 5.62078 19.5622C5.64504 19.5748 5.66866 19.5882 5.69152 19.6027C5.69173 19.6028 5.69187 19.6029 5.69208 19.603C5.78595 19.6629 5.86709 19.7393 5.93093 19.8276C5.9322 19.8294 5.93353 19.8312 5.9348 19.833C5.94893 19.8528 5.96208 19.8734 5.97445 19.8944C5.97593 19.897 5.97762 19.8995 5.97902 19.9021C5.99224 19.9251 6.00448 19.9488 6.01538 19.9732C6.01573 19.9739 6.01601 19.9749 6.01636 19.9757C6.06094 20.0758 6.08576 20.1856 6.08576 20.3008C6.08569 20.765 5.68533 21.1427 5.19314 21.1427ZM15.4837 21.1427C14.9916 21.1427 14.5912 20.765 14.5912 20.3008C14.5912 20.1858 14.6159 20.0762 14.6604 19.9762C14.6608 19.9752 14.6611 19.9742 14.6616 19.9732C14.6725 19.9489 14.6847 19.9253 14.6978 19.9023C14.6994 19.8995 14.7011 19.897 14.7027 19.8943C14.7149 19.8735 14.728 19.853 14.7421 19.8333C14.7434 19.8314 14.7449 19.8294 14.7463 19.8275C14.8101 19.7394 14.8911 19.663 14.9848 19.6032C14.9851 19.603 14.9854 19.6028 14.9858 19.6026C15.0084 19.5882 15.0319 19.5748 15.056 19.5624C15.0575 19.5616 15.059 19.5608 15.0606 19.56C15.1097 19.535 15.1614 19.5143 15.2153 19.4981C15.2201 19.4967 15.2249 19.4956 15.2297 19.4942C15.2504 19.4884 15.2715 19.4833 15.2929 19.4789C15.3012 19.4772 15.3095 19.4756 15.3179 19.4741C15.3371 19.4707 15.3565 19.468 15.3761 19.4657C15.3844 19.4648 15.3926 19.4637 15.401 19.4629C15.4283 19.4605 15.456 19.4589 15.484 19.4589C15.5121 19.4589 15.5397 19.4604 15.567 19.4629C15.5754 19.4636 15.5836 19.4647 15.5919 19.4657C15.6116 19.4679 15.631 19.4707 15.6501 19.4741C15.6585 19.4756 15.6667 19.4772 15.6751 19.4789C15.6965 19.4833 15.7176 19.4884 15.7383 19.4942C15.743 19.4956 15.7479 19.4966 15.7526 19.4981C15.8066 19.5142 15.8584 19.535 15.9074 19.56C15.9089 19.5607 15.9104 19.5615 15.9118 19.5622C15.936 19.5748 15.9595 19.5882 15.9823 19.6027C15.9825 19.6028 15.9828 19.6029 15.983 19.6031C16.0768 19.663 16.1579 19.7394 16.2218 19.8276C16.2231 19.8294 16.2244 19.8313 16.2257 19.8331C16.2399 19.8529 16.253 19.8735 16.2653 19.8945C16.2668 19.8971 16.2685 19.8995 16.27 19.9021C16.2832 19.9252 16.2954 19.9489 16.3063 19.9732C16.3067 19.974 16.3069 19.9749 16.3073 19.9758C16.3519 20.0759 16.3767 20.1856 16.3767 20.3008C16.3763 20.765 15.9759 21.1427 15.4837 21.1427ZM18.003 18.7096C17.6762 18.2484 17.2146 17.8904 16.6793 17.6738C16.6689 17.6696 16.6585 17.6654 16.6481 17.6613C16.6127 17.6474 16.577 17.634 16.5409 17.6214C16.5229 17.615 16.5046 17.6091 16.4864 17.6031C16.4545 17.5925 16.4226 17.5819 16.3901 17.5723C16.3542 17.5617 16.3178 17.5522 16.2814 17.5428C16.25 17.5347 16.2184 17.5272 16.1866 17.52C16.149 17.5116 16.1113 17.5035 16.0732 17.4963C16.0519 17.4923 16.0303 17.489 16.0087 17.4854C15.9723 17.4794 15.9356 17.4739 15.8988 17.4691C15.8775 17.4663 15.8563 17.4638 15.8349 17.4614C15.7954 17.4571 15.7555 17.4537 15.7154 17.4508C15.6969 17.4495 15.6786 17.4478 15.66 17.4468C15.6016 17.4436 15.5429 17.4417 15.4837 17.4417C15.4246 17.4417 15.3658 17.4436 15.3075 17.4468C15.2889 17.4478 15.2705 17.4495 15.252 17.4508C15.212 17.4537 15.1721 17.4571 15.1325 17.4614C15.1111 17.4637 15.0899 17.4663 15.0687 17.4691C15.0318 17.4739 14.9952 17.4794 14.9588 17.4854C14.9373 17.489 14.9157 17.4923 14.8942 17.4963C14.8561 17.5034 14.8184 17.5116 14.7808 17.52C14.7491 17.5271 14.7175 17.5347 14.6861 17.5428C14.6497 17.5522 14.6133 17.5617 14.5773 17.5723C14.545 17.5819 14.5131 17.5925 14.4811 17.6031C14.4629 17.6091 14.4446 17.615 14.4265 17.6214C14.3904 17.6341 14.3548 17.6474 14.3194 17.6613C14.3089 17.6654 14.2985 17.6697 14.2882 17.6738C13.7528 17.8904 13.2912 18.2484 12.9644 18.7096H7.71244C7.38555 18.2483 6.92374 17.8901 6.38817 17.6736C6.37812 17.6695 6.36806 17.6655 6.35794 17.6614C6.32229 17.6474 6.28636 17.634 6.25008 17.6213C6.23229 17.615 6.21436 17.6092 6.1965 17.6033C6.1643 17.5927 6.13202 17.5819 6.0994 17.5722C6.06466 17.562 6.02937 17.5528 5.99414 17.5437C5.96138 17.5352 5.92847 17.5273 5.89535 17.5198C5.85809 17.5114 5.82068 17.5034 5.78285 17.4963C5.76134 17.4923 5.73961 17.4889 5.71788 17.4854C5.6816 17.4794 5.64518 17.4739 5.60841 17.4691C5.5871 17.4663 5.56573 17.4637 5.54428 17.4613C5.50477 17.457 5.46497 17.4536 5.42503 17.4507C5.40647 17.4494 5.38805 17.4478 5.36941 17.4467C5.31112 17.4435 5.25241 17.4415 5.19335 17.4415C5.19328 17.4415 5.19328 17.4415 5.19321 17.4415C5.13394 17.4415 5.0753 17.4435 5.01687 17.4467C4.99837 17.4477 4.98009 17.4493 4.9616 17.4507C4.92145 17.4536 4.88152 17.457 4.84186 17.4613C4.82055 17.4637 4.79939 17.4662 4.77823 17.469C4.74124 17.4737 4.70461 17.4793 4.66798 17.4854C4.64653 17.4889 4.62509 17.4922 4.60371 17.4962C4.56546 17.5033 4.52749 17.5115 4.48973 17.52C4.45866 17.527 4.42779 17.5344 4.39699 17.5423C4.36001 17.5517 4.32309 17.5614 4.2866 17.5722C4.25433 17.5817 4.22262 17.5923 4.1907 17.6028C4.17234 17.6088 4.15399 17.6149 4.13578 17.6213C4.09978 17.6339 4.0642 17.6472 4.02884 17.6611C4.01836 17.6652 4.00795 17.6695 3.99748 17.6737C3.46212 17.8903 3.00059 18.2483 2.67384 18.7094H2.13905V14.1573H8.09388V5.82638H16.8865L18.5384 13.2533V18.7096H18.003ZM32.5784 18.7096H26.964V13.4139H28.7018V15.0949H30.8405V13.4139H32.5784V18.7096ZM32.5784 11.3966H26.964V6.10082H28.7018V7.78175H30.8405V6.10082H32.5784V11.3966Z" fill="#6A6A6A" stroke="#6A6A6A" stroke-width="0.00064"/>
</svg>
