<svg width="22" height="19" viewBox="0 0 22 19" fill="none" xmlns="http://www.w3.org/2000/svg">
<path fill-rule="evenodd" clip-rule="evenodd" d="M20.5588 0.452716C20.415 0.166752 20.1353 -0.00799028 19.8343 0.000281214C17.4489 0.0657942 12.0722 1.54246 9.03425 6.9397C5.74972 4.69703 2.17572 5.01471 0.863723 5.42673C0.600102 5.50944 0.393968 5.73245 0.317434 6.0177C-0.18278 7.8813 -0.474617 12.4129 2.50851 15.6397C3.91722 17.1634 5.3728 17.779 6.69296 17.8031C7.73073 17.822 8.63683 17.474 9.3148 16.9919C9.75342 17.492 10.2172 17.8752 10.6366 18.1371C11.6124 18.7464 13.2342 19.2526 15.0215 18.8637C16.8448 18.4669 18.741 17.1605 20.2516 14.3303C23.2579 8.69822 21.719 2.75977 20.5588 0.452716ZM8.35868 15.5948C8.16646 15.227 7.99733 14.8261 7.86235 14.3927C7.35811 12.7743 7.35243 10.7789 8.28654 8.48129C5.78454 6.71948 3.04857 6.73924 1.74892 6.98548C1.42531 8.74053 1.46364 12.0571 3.64211 14.4135C4.80073 15.6667 5.87383 16.0538 6.72001 16.0692C7.37428 16.0812 7.93978 15.8722 8.35868 15.5948ZM10.2651 8.09372C12.7083 3.51664 17.0905 2.01039 19.3736 1.7684C20.3212 4.02794 21.3065 8.88619 18.8633 13.4633C17.5524 15.9192 16.0208 16.8773 14.7054 17.1636C14.0324 17.3101 13.39 17.2864 12.8297 17.1723L17.1686 8.56816C17.3806 8.14782 17.2374 7.62119 16.8486 7.39195C16.46 7.16253 15.9732 7.31755 15.7612 7.73789L13.4918 12.2383L13.2172 11.3472C13.0772 10.8929 12.6232 10.6473 12.2032 10.7989C11.7832 10.9502 11.5563 11.4413 11.6963 11.8955L12.4429 14.3182L11.315 16.5546C10.6427 16.0923 9.79606 15.1691 9.38149 13.8389C8.95297 12.4636 8.95425 10.5497 10.2651 8.09372Z" fill="#6A6A6A"/>
</svg>
