<svg width="24" height="18" viewBox="0 0 24 18" fill="none" xmlns="http://www.w3.org/2000/svg">
<path fill-rule="evenodd" clip-rule="evenodd" d="M8.4 3.35267C8.4 2.78563 8.93726 2.32594 9.6 2.32594C10.2628 2.32594 10.8 2.78563 10.8 3.35267V6.22754L1.21669 12.7873C0.447672 13.3137 0 14.1105 0 14.9532C0 16.4852 1.45144 17.727 3.24187 17.727H20.7581C22.5486 17.727 24 16.4852 24 14.9532C24 14.1105 23.5523 13.3137 22.7833 12.7873L13.2 6.22754V3.35267C13.2 1.65152 11.5883 0.272461 9.6 0.272461C7.61178 0.272461 6 1.65152 6 3.35267V4.37941C6 4.94646 6.53726 5.40615 7.2 5.40615C7.86274 5.40615 8.4 4.94646 8.4 4.37941V3.35267ZM2.71596 14.3907L12 8.03583L21.284 14.3907C21.4837 14.5274 21.6 14.7344 21.6 14.9532C21.6 15.351 21.2231 15.6735 20.7581 15.6735H3.24187C2.77692 15.6735 2.4 15.351 2.4 14.9532C2.4 14.7344 2.51626 14.5274 2.71596 14.3907Z" fill="#6A6A6A" stroke="#6A6A6A" stroke-width="0.00064"/>
</svg>
