<svg width="28" height="27" viewBox="0 0 28 27" fill="none" xmlns="http://www.w3.org/2000/svg">
<path d="M14.875 2.25C14.875 1.78401 14.4832 1.40625 14 1.40625C13.5168 1.40625 13.125 1.78401 13.125 2.25H14.875ZM13.125 2.25V3.375H14.875V2.25H13.125Z" fill="#6A6A6A"/>
<path d="M14.875 12.375C14.875 11.909 14.4832 11.5312 14 11.5312C13.5168 11.5312 13.125 11.909 13.125 12.375H14.875ZM13.125 12.375V13.5H14.875V12.375H13.125Z" fill="#6A6A6A"/>
<path d="M14.875 22.5C14.875 22.034 14.4832 21.6562 14 21.6562C13.5168 21.6562 13.125 22.034 13.125 22.5H14.875ZM13.125 22.5V24.75H14.875V22.5H13.125Z" fill="#6A6A6A"/>
<path d="M16.3337 24.75H11.667" stroke="#6A6A6A" stroke-width="2.048" stroke-linecap="round"/>
<path d="M10.5 7.875H17.5" stroke="#6A6A6A" stroke-width="1.6" stroke-linecap="round"/>
<path d="M10.5 18H17.5" stroke="#6A6A6A" stroke-width="1.6" stroke-linecap="round"/>
<path d="M7.82156 3.9375H20.4169C22.0555 3.9375 22.8747 3.9375 23.4632 4.31669C23.718 4.48085 23.9367 4.69179 24.107 4.93747C24.5002 5.50497 24.5002 6.29498 24.5002 7.875C24.5002 9.45502 24.5002 10.245 24.107 10.8125C23.9367 11.0582 23.718 11.2691 23.4632 11.4333C22.8747 11.8125 22.0555 11.8125 20.4169 11.8125H7.82156C7.0544 11.8125 6.67082 11.8125 6.31882 11.702C6.16353 11.6533 6.01397 11.589 5.87261 11.5101C5.5522 11.3313 5.29591 11.0562 4.78335 10.5057C3.79087 9.43995 3.29463 8.90705 3.17516 8.28429C3.12325 8.01372 3.12325 7.73628 3.17516 7.46571C3.29463 6.84295 3.79087 6.31006 4.78335 5.24426C5.29591 4.69384 5.5522 4.41863 5.87261 4.23989C6.01397 4.16104 6.16353 4.09671 6.31882 4.04798C6.67082 3.9375 7.0544 3.9375 7.82156 3.9375Z" stroke="#6A6A6A" stroke-width="1.6"/>
<path d="M20.1787 14.0625H7.58333C5.9448 14.0625 5.12553 14.0625 4.537 14.4417C4.28223 14.6059 4.06348 14.8168 3.89324 15.0625C3.5 15.63 3.5 16.4199 3.5 18C3.5 19.5801 3.5 20.37 3.89324 20.9375C4.06348 21.1832 4.28223 21.3941 4.537 21.5583C5.12553 21.9375 5.9448 21.9375 7.58333 21.9375H20.1787C20.9459 21.9375 21.3295 21.9375 21.6815 21.827C21.8367 21.7783 21.9863 21.714 22.1276 21.6351C22.4481 21.4563 22.7043 21.1812 23.2169 20.6307C24.2094 19.565 24.7056 19.0321 24.825 18.4093C24.877 18.1387 24.877 17.8613 24.825 17.5907C24.7056 16.9679 24.2094 16.435 23.2169 15.3693C22.7043 14.8188 22.4481 14.5437 22.1276 14.3649C21.9863 14.286 21.8367 14.2217 21.6815 14.173C21.3295 14.0625 20.9459 14.0625 20.1787 14.0625Z" stroke="#6A6A6A" stroke-width="1.6"/>
</svg>
