<!DOCTYPE svg PUBLIC "-//W3C//DTD SVG 1.1//EN" "http://www.w3.org/Graphics/SVG/1.1/DTD/svg11.dtd">


<svg width="174" height="140" viewBox="0 0 174 140" fill="none" xmlns="http://www.w3.org/2000/svg">
<path fill-rule="evenodd" clip-rule="evenodd" d="M101.138 0.668689C87.6541 3.12541 73.3048 10.9887 66.4067 23.1591C58.8312 36.5186 52.1359 45.2037 41.2524 52.2292C30.8612 58.9404 9.65577 66.4041 2.86318 84.1366C-5.59573 106.216 11.171 125.534 36.2438 133.607C64.2621 142.63 112.381 144.189 146.248 116.731C179.361 89.8817 177.016 52.4983 166.032 33.1849C150.802 6.4053 119.589 -2.69555 101.138 0.668689Z" fill="#009EE3" fill-opacity="0.1"/>
<path fill-rule="evenodd" clip-rule="evenodd" d="M42.3018 25.186C42.3018 21.32 45.4358 18.1235 49.3018 18.1235H126.708C130.574 18.1235 133.708 21.2575 133.708 25.1235V74.6235V88.7485V92.2798V95.811V99.3423V102.874V106.405V109.936V113.467V116.999V120.53V124.061C133.708 127.927 130.574 131.124 126.708 131.124H49.3018C45.4358 131.124 42.3018 127.99 42.3018 124.124V74.6235V46.3735V42.8423V39.311V35.7798V32.2485V28.7173V25.186Z" fill="white"/>
<path fill-rule="evenodd" clip-rule="evenodd" d="M42.3018 25.186C42.3018 21.32 45.4358 18.1235 49.3018 18.1235H126.708C130.574 18.1235 133.708 21.2575 133.708 25.1235V74.6235V88.7485V92.2798V95.811V99.3423V102.874V106.405V109.936V113.467V116.999V120.53V124.061C133.708 127.927 130.574 131.124 126.708 131.124H49.3018C45.4358 131.124 42.3018 127.99 42.3018 124.124V74.6235V46.3735V42.8423V39.311V35.7798V32.2485V28.7173V25.186Z" fill="white"/>
<path fill-rule="evenodd" clip-rule="evenodd" d="M42.3018 117.061V124.124C42.3018 127.99 45.4358 131.124 49.3018 131.124H126.708C130.574 131.124 133.708 127.927 133.708 124.061V120.53V116.999C133.708 120.865 130.574 124.061 126.708 124.061H49.3018C45.4358 124.061 42.3018 120.927 42.3018 117.061Z" fill="#1031BD" fill-opacity="0.17"/>
<mask id="mask0_9_7" style="mask-type:luminance" maskUnits="userSpaceOnUse" x="41" y="17" width="94" height="115">
<path fill-rule="evenodd" clip-rule="evenodd" d="M132.958 109.936V106.405H134.458V109.936V113.467H132.958V109.936ZM43.0518 39.311V42.8423H41.5518V39.311H43.0518ZM43.0518 42.8423V46.3735V74.6235V124.124C43.0518 127.575 45.85 130.374 49.3018 130.374H126.708C130.16 130.374 132.958 127.575 132.958 124.124V124.061V120.53V116.999H134.458V120.53V124.061V124.124C134.458 128.404 130.988 131.874 126.708 131.874H49.3018C45.0216 131.874 41.5518 128.404 41.5518 124.124V74.6235V46.3735V42.8423H43.0518ZM49.3018 18.8735C45.85 18.8735 43.0518 21.6718 43.0518 25.1235V25.186V28.7173V32.2485V35.7798H41.5518V32.2485V28.7173V25.186V25.1235C41.5518 20.8433 45.0216 17.3735 49.3018 17.3735H126.708C130.988 17.3735 134.458 20.8433 134.458 25.1235V74.6235V88.7485V92.2798V95.811V99.3423V102.874H132.958V99.3423V95.811V92.2798V88.7485V74.6235V25.1235C132.958 21.6718 130.16 18.8735 126.708 18.8735H49.3018Z" fill="white"/>
</mask>
<g mask="url(#mask0_9_7)">
<path d="M132.958 106.405V104.905H131.458V106.405H132.958ZM134.458 106.405H135.958V104.905H134.458V106.405ZM134.458 113.467V114.967H135.958V113.467H134.458ZM132.958 113.467H131.458V114.967H132.958V113.467ZM43.0518 42.8423V44.3423H44.5518V42.8423H43.0518ZM43.0518 39.311H44.5518V37.811H43.0518V39.311ZM41.5518 42.8423H40.0518V44.3423H41.5518V42.8423ZM41.5518 39.311V37.811H40.0518V39.311H41.5518ZM43.0518 42.8423H44.5518V41.3423H43.0518V42.8423ZM132.958 116.999V115.499H131.458V116.999H132.958ZM134.458 116.999H135.958V115.499H134.458V116.999ZM41.5518 42.8423V41.3423H40.0518V42.8423H41.5518ZM43.0518 35.7798V37.2798H44.5518V35.7798H43.0518ZM41.5518 35.7798H40.0518V37.2798H41.5518V35.7798ZM134.458 102.874V104.374H135.958V102.874H134.458ZM132.958 102.874H131.458V104.374H132.958V102.874ZM131.458 106.405V109.936H134.458V106.405H131.458ZM134.458 104.905H132.958V107.905H134.458V104.905ZM135.958 109.936V106.405H132.958V109.936H135.958ZM135.958 113.467V109.936H132.958V113.467H135.958ZM132.958 114.967H134.458V111.967H132.958V114.967ZM131.458 109.936V113.467H134.458V109.936H131.458ZM44.5518 42.8423V39.311H41.5518V42.8423H44.5518ZM41.5518 44.3423H43.0518V41.3423H41.5518V44.3423ZM40.0518 39.311V42.8423H43.0518V39.311H40.0518ZM43.0518 37.811H41.5518V40.811H43.0518V37.811ZM44.5518 46.3735V42.8423H41.5518V46.3735H44.5518ZM44.5518 74.6235V46.3735H41.5518V74.6235H44.5518ZM44.5518 124.124V74.6235H41.5518V124.124H44.5518ZM49.3018 128.874C46.6784 128.874 44.5518 126.747 44.5518 124.124H41.5518C41.5518 128.404 45.0216 131.874 49.3018 131.874V128.874ZM126.708 128.874H49.3018V131.874H126.708V128.874ZM131.458 124.124C131.458 126.747 129.331 128.874 126.708 128.874V131.874C130.988 131.874 134.458 128.404 134.458 124.124H131.458ZM131.458 124.061V124.124H134.458V124.061H131.458ZM131.458 120.53V124.061H134.458V120.53H131.458ZM131.458 116.999V120.53H134.458V116.999H131.458ZM134.458 115.499H132.958V118.499H134.458V115.499ZM135.958 120.53V116.999H132.958V120.53H135.958ZM135.958 124.061V120.53H132.958V124.061H135.958ZM135.958 124.124V124.061H132.958V124.124H135.958ZM126.708 133.374C131.817 133.374 135.958 129.232 135.958 124.124H132.958C132.958 127.575 130.16 130.374 126.708 130.374V133.374ZM49.3018 133.374H126.708V130.374H49.3018V133.374ZM40.0518 124.124C40.0518 129.232 44.1931 133.374 49.3018 133.374V130.374C45.85 130.374 43.0518 127.575 43.0518 124.124H40.0518ZM40.0518 74.6235V124.124H43.0518V74.6235H40.0518ZM40.0518 46.3735V74.6235H43.0518V46.3735H40.0518ZM40.0518 42.8423V46.3735H43.0518V42.8423H40.0518ZM43.0518 41.3423H41.5518V44.3423H43.0518V41.3423ZM44.5518 25.1235C44.5518 22.5002 46.6784 20.3735 49.3018 20.3735V17.3735C45.0216 17.3735 41.5518 20.8433 41.5518 25.1235H44.5518ZM44.5518 25.186V25.1235H41.5518V25.186H44.5518ZM44.5518 28.7173V25.186H41.5518V28.7173H44.5518ZM44.5518 32.2485V28.7173H41.5518V32.2485H44.5518ZM44.5518 35.7798V32.2485H41.5518V35.7798H44.5518ZM41.5518 37.2798H43.0518V34.2798H41.5518V37.2798ZM40.0518 32.2485V35.7798H43.0518V32.2485H40.0518ZM40.0518 28.7173V32.2485H43.0518V28.7173H40.0518ZM40.0518 25.186V28.7173H43.0518V25.186H40.0518ZM40.0518 25.1235V25.186H43.0518V25.1235H40.0518ZM49.3018 15.8735C44.1931 15.8735 40.0518 20.0149 40.0518 25.1235H43.0518C43.0518 21.6718 45.85 18.8735 49.3018 18.8735V15.8735ZM126.708 15.8735H49.3018V18.8735H126.708V15.8735ZM135.958 25.1235C135.958 20.0149 131.817 15.8735 126.708 15.8735V18.8735C130.16 18.8735 132.958 21.6718 132.958 25.1235H135.958ZM135.958 74.6235V25.1235H132.958V74.6235H135.958ZM135.958 88.7485V74.6235H132.958V88.7485H135.958ZM135.958 92.2798V88.7485H132.958V92.2798H135.958ZM135.958 95.811V92.2798H132.958V95.811H135.958ZM135.958 99.3423V95.811H132.958V99.3423H135.958ZM135.958 102.874V99.3423H132.958V102.874H135.958ZM132.958 104.374H134.458V101.374H132.958V104.374ZM131.458 99.3423V102.874H134.458V99.3423H131.458ZM131.458 95.811V99.3423H134.458V95.811H131.458ZM131.458 92.2798V95.811H134.458V92.2798H131.458ZM131.458 88.7485V92.2798H134.458V88.7485H131.458ZM131.458 74.6235V88.7485H134.458V74.6235H131.458ZM131.458 25.1235V74.6235H134.458V25.1235H131.458ZM126.708 20.3735C129.331 20.3735 131.458 22.5002 131.458 25.1235H134.458C134.458 20.8433 130.988 17.3735 126.708 17.3735V20.3735ZM49.3018 20.3735H126.708V17.3735H49.3018V20.3735Z" fill="#4F4C4C"/>
</g>
<path d="M88.0045 71.72C95.5135 71.72 101.601 65.6327 101.601 58.1237C101.601 50.6147 95.5135 44.5274 88.0045 44.5274C80.4955 44.5274 74.4082 50.6147 74.4082 58.1237C74.4082 65.6327 80.4955 71.72 88.0045 71.72Z" fill="#1031BD" fill-opacity="0.17" stroke="white" stroke-width="3"/>
<path d="M88.0045 73.22C96.342 73.22 103.101 66.4612 103.101 58.1237C103.101 49.7862 96.342 43.0274 88.0045 43.0274C79.667 43.0274 72.9082 49.7862 72.9082 58.1237C72.9082 66.4612 79.667 73.22 88.0045 73.22Z" stroke="#3F444F" stroke-width="1.5"/>
<path d="M80.8467 65.1686V64.3732C80.8467 62.2074 82.6024 60.4517 84.7682 60.4517H91.2207C93.3978 60.4517 95.1627 62.2166 95.1627 64.3937V65.1891" stroke="#4F4C4C" stroke-width="1.5"/>
<path fill-rule="evenodd" clip-rule="evenodd" d="M88.0111 48.4575C90.6734 48.4575 92.8317 50.6158 92.8317 53.2782C92.8317 55.9405 90.6734 58.0988 88.0111 58.0988C85.3487 58.0988 83.1904 55.9405 83.1904 53.2782C83.1904 50.6158 85.3487 48.4575 88.0111 48.4575Z" stroke="#4F4C4C" stroke-width="1.5"/>
<path d="M63.4368 81.6233H112.573" stroke="#4F4C4C" stroke-width="1.5" stroke-linecap="square"/>
<path d="M63.4368 90.6233H112.573" stroke="#4F4C4C" stroke-width="1.5" stroke-linecap="square"/>
<path d="M63.4368 99.6233H112.573" stroke="#4F4C4C" stroke-width="1.5" stroke-linecap="square"/>
<path d="M86.4941 112.187H112.573" stroke="#4F4C4C" stroke-width="1.5" stroke-linecap="square"/>
<path d="M107.044 11.7774H101.459C99.7838 5.93892 94.4023 1.62354 88.0053 1.62354C81.6084 1.62354 76.2269 5.93892 74.5515 11.7774H68.9669C66.8853 11.7774 65.1592 13.5035 65.1592 15.5851V25.7389C65.1592 30.6128 69.1699 34.6235 74.0438 34.6235H101.967C106.841 34.6235 110.851 30.6128 110.851 25.7389V15.5851C110.851 13.5035 109.125 11.7774 107.044 11.7774Z" fill="white"/>
<path d="M100.017 12.1911L100.329 13.2774H101.459H107.044C108.297 13.2774 109.351 14.332 109.351 15.5851V25.7389C109.351 29.7843 106.012 33.1235 101.967 33.1235H74.0438C69.9984 33.1235 66.6592 29.7843 66.6592 25.7389V15.5851C66.6592 14.332 67.7138 13.2774 68.9669 13.2774H74.5515H75.6816L75.9933 12.1911C77.4906 6.97309 82.3008 3.12354 88.0053 3.12354C93.7099 3.12354 98.52 6.97309 100.017 12.1911Z" fill="#1031BD" fill-opacity="0.17" stroke="white" stroke-width="3"/>
<path d="M88.0047 15.3081C89.5659 15.3081 90.8316 14.0425 90.8316 12.4812C90.8316 10.9199 89.5659 9.65427 88.0047 9.65427C86.4434 9.65427 85.1777 10.9199 85.1777 12.4812C85.1777 14.0425 86.4434 15.3081 88.0047 15.3081Z" stroke="#4F4C4C" stroke-width="1.5"/>
<path d="M107.044 11.7774H101.459C99.7838 5.93892 94.4023 1.62354 88.0053 1.62354C81.6084 1.62354 76.2269 5.93892 74.5515 11.7774H68.9669C66.8853 11.7774 65.1592 13.5035 65.1592 15.5851V25.7389C65.1592 30.6128 69.1699 34.6235 74.0438 34.6235H101.967C106.841 34.6235 110.851 30.6128 110.851 25.7389V15.5851C110.851 13.5035 109.125 11.7774 107.044 11.7774Z" stroke="#4F4C4C" stroke-width="1.5"/>
</svg>
