<!DOCTYPE svg PUBLIC "-//W3C//DTD SVG 1.1//EN" "http://www.w3.org/Graphics/SVG/1.1/DTD/svg11.dtd">


<svg width="122" height="122" viewBox="0 0 122 122" fill="none" xmlns="http://www.w3.org/2000/svg">
<path d="M97.457 54.6498L97.2307 53.1963L95.8248 52.7674C91.8693 51.5641 88.5691 48.9311 86.5199 45.3568C84.4707 41.7826 83.8631 37.5889 84.8043 33.5381L85.1379 32.1084L84.006 31.191C80.956 28.7129 77.5725 26.7471 73.9148 25.3412L72.5328 24.8051L71.4605 25.8178C68.4701 28.6533 64.5623 30.2141 60.4639 30.2141C56.3773 30.2141 52.4695 28.6533 49.4553 25.8178L48.383 24.8051L47.001 25.3412C43.3553 26.759 39.9598 28.7248 36.9217 31.191L35.7898 32.1084L36.1234 33.5381C37.0646 37.5889 36.457 41.7826 34.3959 45.3568C32.3824 48.8715 28.9988 51.576 25.1029 52.7555L23.709 53.1844L23.4826 54.6379C23.1728 56.6156 23.006 58.5815 23.006 60.4877C23.006 62.394 23.1728 64.3717 23.4826 66.3375L23.709 67.791L25.1029 68.2199C29.0584 69.4232 32.3586 72.0563 34.4078 75.6305C36.4689 79.2285 37.0766 83.4104 36.1234 87.4373L35.7898 88.867L36.9217 89.7844C39.9598 92.2506 43.3433 94.2283 47.001 95.6342L48.3711 96.1703L49.4433 95.1576C52.4457 92.3221 56.3654 90.7613 60.4519 90.7613C64.5623 90.7613 68.4701 92.3221 71.4486 95.1576L72.5209 96.1703L73.9029 95.6342C77.5605 94.2164 80.956 92.2506 83.9822 89.7844L85.1141 88.867L84.7805 87.4492C83.8631 83.4699 84.4826 79.157 86.508 75.6305C88.5215 72.1158 91.9051 69.4113 95.8129 68.2199L97.2187 67.791L97.4451 66.3375C97.7549 64.3479 97.9098 62.382 97.9098 60.4877C97.9217 58.5934 97.7668 56.6275 97.457 54.6498ZM94.1807 64.3717C92.1434 65.158 90.249 66.2422 88.5215 67.6123C86.3769 69.3279 84.5898 71.3891 83.2435 73.76C81.8853 76.1189 81.0037 78.6924 80.5986 81.4207C80.2769 83.601 80.2889 85.8051 80.6344 87.9615C78.5732 89.4984 76.3453 90.7971 73.9863 91.8336C70.1619 88.7121 65.4201 87.0084 60.4519 87.0084C57.7355 87.0084 55.0668 87.5207 52.5291 88.5453C50.4918 89.3555 48.6094 90.4635 46.9176 91.8336C44.5467 90.7971 42.3187 89.5104 40.2576 87.9615C41.0439 83.0768 40.1385 78.0848 37.6603 73.7481C36.3021 71.3772 34.515 69.316 32.3705 67.6004C30.6549 66.2303 28.7486 65.1461 26.7113 64.3598C26.5564 63.0492 26.473 61.7506 26.473 60.4877C26.473 59.2248 26.5564 57.9262 26.7113 56.6156C28.7486 55.8293 30.643 54.7451 32.3705 53.375C34.515 51.6713 36.3021 49.5982 37.6484 47.2393C39.0066 44.8803 39.9002 42.3068 40.2933 39.5785C40.615 37.3983 40.5912 35.1941 40.2576 33.0377C42.3307 31.5008 44.5586 30.2022 46.9176 29.1656C48.6094 30.5357 50.4918 31.6438 52.5291 32.4539C55.0668 33.4666 57.7355 33.9908 60.4519 33.9908C65.4201 33.9908 70.1619 32.2871 73.9863 29.1656C76.3572 30.2022 78.5851 31.4889 80.6463 33.0377C80.3008 35.1941 80.2889 37.3983 80.6105 39.5785C81.0037 42.2949 81.8973 44.8803 83.2555 47.2393C84.5898 49.5982 86.3769 51.6713 88.5215 53.375C90.2371 54.7451 92.1434 55.8293 94.1807 56.6156C94.3355 57.9381 94.4189 59.2367 94.4189 60.4877C94.407 61.7506 94.3236 63.0492 94.1807 64.3717Z" fill="#1031BD" fill-opacity="0.78"/>
<path d="M60.7736 75.8092C52.5648 75.8092 45.881 69.1254 45.881 60.9166C45.881 52.7078 52.5648 46.024 60.7736 46.024C68.9824 46.024 75.6662 52.7078 75.6662 60.9166C75.6662 69.1254 68.9824 75.8092 60.7736 75.8092ZM60.7736 50.051C54.7808 50.051 49.8961 54.9238 49.8961 60.9285C49.8961 66.9332 54.7689 71.8061 60.7736 71.8061C66.7664 71.8061 71.6512 66.9332 71.6512 60.9285C71.6512 54.9238 66.7664 50.051 60.7736 50.051Z" fill="#1031BD" fill-opacity="0.79"/>
</svg>
