<!DOCTYPE svg PUBLIC "-//W3C//DTD SVG 1.1//EN" "http://www.w3.org/Graphics/SVG/1.1/DTD/svg11.dtd">
<!-- Uploaded to: SVG Repo, www.svgrepo.com, Transformed by: SVG Repo Mixer Tools -->
<svg version="1.1" id="Icons" xmlns="http://www.w3.org/2000/svg" xmlns:xlink="http://www.w3.org/1999/xlink" viewBox="0 0 32 32" xml:space="preserve" width="99px" height="99px" fill="#0D2048" stroke="#0D2048">
<g id="SVGRepo_bgCarrier" stroke-width="0"/>
<g id="SVGRepo_tracerCarrier" stroke-linecap="round" stroke-linejoin="round"/>
<g id="SVGRepo_iconCarrier"> <style type="text/css"> .st0{fill:none;stroke:#1c0d5;stroke-width:2;stroke-linecap:round;stroke-linejoin:round;stroke-miterlimit:10;} </style> <path class="st0" d="M6.5,13.5c-2.6-2.6-2.6-6.7,0-9.3l11.1,11.1l3.7,3.7l5.7,5.7c1,1,1,2.5,0,3.5l0,0c-1,1-2.8,1-3.7-0.2l-4.1-5.1 c-1-1.3-2.8-1.7-4.4-1.1l0,0L6.5,13.5z"/> <line class="st0" x1="21.3" y1="12.1" x2="26.7" y2="6.7"/> <path class="st0" d="M19.1,16.8c0.4-0.1,0.7-0.1,1.1-0.2c1.3-0.1,2.8-0.8,4.3-2.3l4.9-4.9"/> <path class="st0" d="M12.3,19.3L5.3,25c-1.1,0.8-1.2,2.4-0.2,3.3c1,1,2.5,0.8,3.3-0.2l5.7-7.1"/> <path class="st0" d="M24,4L19,8.9c-1.5,1.5-2.3,3-2.3,4.3c0,0.4-0.1,0.7-0.2,1.1"/> </g>
</svg>