<!DOCTYPE svg PUBLIC "-//W3C//DTD SVG 1.1//EN" "http://www.w3.org/Graphics/SVG/1.1/DTD/svg11.dtd">
<!-- Uploaded to: SVG Repo, www.svgrepo.com, Transformed by: SVG Repo Mixer Tools -->
<svg width="800px" height="800px" viewBox="0 0 512 512" version="1.1" xml:space="preserve" xmlns="http://www.w3.org/2000/svg" xmlns:xlink="http://www.w3.org/1999/xlink" fill="#0D2048" stroke="#0D2048">
<g id="SVGRepo_bgCarrier" stroke-width="0"/>
<g id="SVGRepo_tracerCarrier" stroke-linecap="round" stroke-linejoin="round"/>
<g id="SVGRepo_iconCarrier"> <style type="text/css"> .st0{fill:#33333;} </style> <g id="Layer_1"/> <g id="Layer_2"> <g> <path class="st0" d="M42.66,423.25c0,33.77,27.48,61.25,61.25,61.25h304.18c33.77,0,61.25-27.47,61.25-61.25V195.02 c0-33.77-27.48-61.25-61.25-61.25H294.63l22.81-22.81c5.62,2.63,11.88,4.11,18.49,4.11c24.14,0,43.79-19.64,43.79-43.79 c0-24.14-19.64-43.79-43.79-43.79s-43.79,19.64-43.79,43.79c0,5.83,1.15,11.39,3.23,16.49l-36.21,36.21l-36.21-36.21 c2.08-5.09,3.23-10.66,3.23-16.49c0-24.14-19.64-43.79-43.79-43.79s-43.79,19.64-43.79,43.79c0,24.14,19.64,43.79,43.79,43.79 c6.6,0,12.87-1.48,18.49-4.11l22.81,22.81H103.91c-33.77,0-61.25,27.47-61.25,61.25V423.25z M335.92,59.5 c6.5,0,11.79,5.29,11.79,11.79s-5.29,11.79-11.79,11.79s-11.79-5.29-11.79-11.79S329.42,59.5,335.92,59.5z M170.62,71.29 c0-6.5,5.29-11.79,11.79-11.79s11.79,5.29,11.79,11.79s-5.29,11.79-11.79,11.79S170.62,77.79,170.62,71.29z M74.66,195.02 c0-16.13,13.12-29.25,29.25-29.25h304.18c16.13,0,29.25,13.12,29.25,29.25v228.23c0,16.13-13.12,29.25-29.25,29.25H103.91 c-16.13,0-29.25-13.12-29.25-29.25V195.02z"/> <path class="st0" d="M132.97,430.6h162.59c19.72,0,35.77-16.04,35.77-35.77v-171.4c0-19.72-16.04-35.77-35.77-35.77H132.97 c-19.72,0-35.77,16.04-35.77,35.77v171.4C97.2,414.56,113.25,430.6,132.97,430.6z M129.2,223.44c0-2.08,1.69-3.77,3.77-3.77 h162.59c2.08,0,3.77,1.69,3.77,3.77v171.4c0,2.08-1.69,3.77-3.77,3.77H132.97c-2.08,0-3.77-1.69-3.77-3.77V223.44z"/> <path class="st0" d="M384.82,301.38c24.47,0,44.39-19.91,44.39-44.39c0-24.47-19.91-44.38-44.39-44.38s-44.39,19.91-44.39,44.38 C340.43,281.47,360.35,301.38,384.82,301.38z M384.82,244.61c6.83,0,12.39,5.56,12.39,12.38s-5.56,12.39-12.39,12.39 s-12.39-5.56-12.39-12.39S377.99,244.61,384.82,244.61z"/> <path class="st0" d="M384.82,405.66c24.47,0,44.39-19.91,44.39-44.38c0-24.47-19.91-44.39-44.39-44.39s-44.39,19.91-44.39,44.39 C340.43,385.75,360.35,405.66,384.82,405.66z M384.82,348.89c6.83,0,12.39,5.56,12.39,12.39s-5.56,12.38-12.39,12.38 s-12.39-5.56-12.39-12.38S377.99,348.89,384.82,348.89z"/> </g> </g> </g>
</svg>