<!DOCTYPE svg PUBLIC "-//W3C//DTD SVG 1.1//EN" "http://www.w3.org/Graphics/SVG/1.1/DTD/svg11.dtd">
<!-- Uploaded to: SVG Repo, www.svgrepo.com, Transformed by: SVG Repo Mixer Tools -->
<svg width="800px" height="800px" viewBox="0 0 24 24" fill="none" xmlns="http://www.w3.org/2000/svg" stroke="#0D2048" stroke-width="0.00024000000000000003">
<g id="SVGRepo_bgCarrier" stroke-width="0"/>
<g id="SVGRepo_tracerCarrier" stroke-linecap="round" stroke-linejoin="round"/>
<g id="SVGRepo_iconCarrier"> <path fill-rule="evenodd" clip-rule="evenodd" d="M16.6838 5.25H7.3162L4.7105 10.5H3.75V12H4.5V18.75L5.25 19.5H8.25L9 18.75V17.7H15V18.75L15.75 19.5H18.75L19.5 18.75V12H20.25V10.5H19.2895L16.6838 5.25ZM17.6149 10.5L15.7537 6.75H8.2463L6.38509 10.5H17.6149ZM6 12V18H7.5V16.95L8.25 16.2H15.75L16.5 16.95V18H18V12H6ZM8.625 15C9.24632 15 9.75 14.4963 9.75 13.875C9.75 13.2537 9.24632 12.75 8.625 12.75C8.00368 12.75 7.5 13.2537 7.5 13.875C7.5 14.4963 8.00368 15 8.625 15ZM16.5 13.875C16.5 14.4963 15.9963 15 15.375 15C14.7537 15 14.25 14.4963 14.25 13.875C14.25 13.2537 14.7537 12.75 15.375 12.75C15.9963 12.75 16.5 13.2537 16.5 13.875Z" fill="#080341"/> </g>
</svg>